RubikHebrew-Regular.ufo
<glyph name="dollar" format="1">
  <advance width="615"/>
  <unicode hex="0024"/>
  <outline>
    <contour>
      <point x="326" y="-100" type="line"/>
      <point x="339" y="-100"/>
      <point x="349" y="-91"/>
      <point x="349" y="-77" type="curve"/>
      <point x="349" y="-8" type="line"/>
      <point x="487" y="3"/>
      <point x="574" y="74"/>
      <point x="574" y="189" type="curve" smooth="yes"/>
      <point x="574" y="302"/>
      <point x="502" y="344"/>
      <point x="344" y="388" type="curve" smooth="yes"/>
      <point x="209" y="428"/>
      <point x="156" y="453"/>
      <point x="156" y="523" type="curve" smooth="yes"/>
      <point x="156" y="594"/>
      <point x="216" y="628"/>
      <point x="304" y="628" type="curve" smooth="yes"/>
      <point x="390" y="628"/>
      <point x="449" y="585"/>
      <point x="457" y="529" type="curve" smooth="yes"/>
      <point x="461" y="514"/>
      <point x="473" y="509"/>
      <point x="482" y="509" type="curve"/>
      <point x="532" y="509" type="line"/>
      <point x="545" y="509"/>
      <point x="553" y="519"/>
      <point x="553" y="530" type="curve" smooth="yes"/>
      <point x="550" y="601"/>
      <point x="484" y="691"/>
      <point x="349" y="707" type="curve"/>
      <point x="349" y="777" type="line"/>
      <point x="349" y="791"/>
      <point x="339" y="800"/>
      <point x="326" y="800" type="curve"/>
      <point x="290" y="800" type="line"/>
      <point x="276" y="800"/>
      <point x="267" y="791"/>
      <point x="267" y="777" type="curve"/>
      <point x="267" y="708" type="line"/>
      <point x="135" y="696"/>
      <point x="61" y="619"/>
      <point x="61" y="522" type="curve" smooth="yes"/>
      <point x="61" y="408"/>
      <point x="130" y="363"/>
      <point x="275" y="321" type="curve" smooth="yes"/>
      <point x="416" y="279"/>
      <point x="478" y="256"/>
      <point x="478" y="186" type="curve" smooth="yes"/>
      <point x="478" y="117"/>
      <point x="425" y="73"/>
      <point x="309" y="73" type="curve" smooth="yes"/>
      <point x="195" y="73"/>
      <point x="146" y="127"/>
      <point x="136" y="176" type="curve" smooth="yes"/>
      <point x="132" y="187"/>
      <point x="125" y="196"/>
      <point x="111" y="196" type="curve"/>
      <point x="62" y="196" type="line"/>
      <point x="50" y="196"/>
      <point x="41" y="187"/>
      <point x="41" y="176" type="curve" smooth="yes"/>
      <point x="44" y="89"/>
      <point x="122" y="5"/>
      <point x="267" y="-7" type="curve"/>
      <point x="267" y="-77" type="line"/>
      <point x="267" y="-91"/>
      <point x="276" y="-100"/>
      <point x="290" y="-100" type="curve"/>
    </contour>
  </outline>
</glyph>
<glyph name="percent" format="1">
  <advance width="759"/>
  <unicode hex="0025"/>
  <outline>
    <contour>
      <point x="140" y="0" type="line" smooth="yes"/>
      <point x="158" y="0"/>
      <point x="165" y="7"/>
      <point x="174" y="19" type="curve" smooth="yes"/>
      <point x="667" y="669" type="line" smooth="yes"/>
      <point x="670" y="673"/>
      <point x="671" y="678"/>
      <point x="671" y="680" type="curve" smooth="yes"/>
      <point x="671" y="692"/>
      <point x="663" y="700"/>
      <point x="650" y="700" type="curve" smooth="yes"/>
      <point x="619" y="700" type="line" smooth="yes"/>
      <point x="600" y="700"/>
      <point x="594" y="693"/>
      <point x="585" y="681" type="curve" smooth="yes"/>
      <point x="92" y="31" type="line" smooth="yes"/>
      <point x="89" y="27"/>
      <point x="88" y="22"/>
      <point x="88" y="20" type="curve" smooth="yes"/>
      <point x="88" y="8"/>
      <point x="96" y="0"/>
      <point x="109" y="0" type="curve" smooth="yes"/>
    </contour>
    <contour>
      <point x="576" y="52"/>
      <point x="627" y="107"/>
      <point x="632" y="187" type="curve" smooth="yes"/>
      <point x="634" y="221"/>
      <point x="634" y="240"/>
      <point x="632" y="277" type="curve" smooth="yes"/>
      <point x="627" y="357"/>
      <point x="581" y="413"/>
      <point x="488" y="413" type="curve" smooth="yes"/>
      <point x="395" y="413"/>
      <point x="348" y="357"/>
      <point x="344" y="277" type="curve" smooth="yes"/>
      <point x="342" y="240"/>
      <point x="342" y="221"/>
      <point x="344" y="187" type="curve" smooth="yes"/>
      <point x="349" y="107"/>
      <point x="400" y="52"/>
      <point x="488" y="52" type="curve" smooth="yes"/>
    </contour>
    <contour>
      <point x="435" y="117"/>
      <point x="418" y="156"/>
      <point x="415" y="191" type="curve" smooth="yes"/>
      <point x="413" y="226"/>
      <point x="413" y="240"/>
      <point x="415" y="274" type="curve" smooth="yes"/>
      <point x="417" y="310"/>
      <point x="435" y="348"/>
      <point x="488" y="348" type="curve" smooth="yes"/>
      <point x="540" y="348"/>
      <point x="558" y="310"/>
      <point x="560" y="274" type="curve" smooth="yes"/>
      <point x="562" y="240"/>
      <point x="562" y="226"/>
      <point x="560" y="191" type="curve" smooth="yes"/>
      <point x="557" y="156"/>
      <point x="540" y="117"/>
      <point x="488" y="117" type="curve" smooth="yes"/>
    </contour>
    <contour>
      <point x="359" y="291"/>
      <point x="410" y="341"/>
      <point x="415" y="421" type="curve" smooth="yes"/>
      <point x="417" y="455"/>
      <point x="417" y="474"/>
      <point x="415" y="511" type="curve" smooth="yes"/>
      <point x="410" y="592"/>
      <point x="364" y="647"/>
      <point x="271" y="647" type="curve" smooth="yes"/>
      <point x="178" y="647"/>
      <point x="131" y="592"/>
      <point x="127" y="511" type="curve" smooth="yes"/>
      <point x="125" y="474"/>
      <point x="125" y="455"/>
      <point x="127" y="421" type="curve" smooth="yes"/>
      <point x="132" y="341"/>
      <point x="183" y="291"/>
      <point x="271" y="291" type="curve" smooth="yes"/>
    </contour>
    <contour>
      <point x="218" y="351"/>
      <point x="201" y="390"/>
      <point x="198" y="425" type="curve" smooth="yes"/>
      <point x="196" y="460"/>
      <point x="196" y="474"/>
      <point x="198" y="508" type="curve" smooth="yes"/>
      <point x="200" y="544"/>
      <point x="218" y="582"/>
      <point x="271" y="582" type="curve" smooth="yes"/>
      <point x="323" y="582"/>
      <point x="341" y="544"/>
      <point x="343" y="508" type="curve" smooth="yes"/>
      <point x="345" y="474"/>
      <point x="345" y="460"/>
      <point x="343" y="425" type="curve" smooth="yes"/>
      <point x="340" y="390"/>
      <point x="323" y="351"/>
      <point x="271" y="351" type="curve" smooth="yes"/>
    </contour>
  </outline>
</glyph>
<glyph name="parenleft" format="1">
  <advance width="336"/>
  <unicode hex="0028"/>
  <outline>
    <contour>
      <point x="301" y="-159"/>
      <point x="312" y="-149"/>
      <point x="312" y="-136" type="curve" smooth="yes"/>
      <point x="312" y="-103" type="line" smooth="yes"/>
      <point x="312" y="-91"/>
      <point x="301" y="-81"/>
      <point x="291" y="-81" type="curve" smooth="yes"/>
      <point x="180" y="-79"/>
      <point x="142" y="21"/>
      <point x="142" y="309" type="curve" smooth="yes"/>
      <point x="142" y="597"/>
      <point x="180" y="696"/>
      <point x="291" y="698" type="curve" smooth="yes"/>
      <point x="301" y="698"/>
      <point x="312" y="708"/>
      <point x="312" y="720" type="curve" smooth="yes"/>
      <point x="312" y="753" type="line" smooth="yes"/>
      <point x="312" y="766"/>
      <point x="301" y="776"/>
      <point x="289" y="776" type="curve" smooth="yes"/>
      <point x="116" y="776"/>
      <point x="58" y="635"/>
      <point x="58" y="309" type="curve" smooth="yes"/>
      <point x="58" y="-17"/>
      <point x="116" y="-159"/>
      <point x="289" y="-159" type="curve" smooth="yes"/>
    </contour>
  </outline>
</glyph>
<glyph name="plus" format="1">
  <advance width="622"/>
  <unicode hex="002B"/>
  <outline>
    <contour>
      <point x="327" y="33" type="line" smooth="yes"/>
      <point x="341" y="33"/>
      <point x="350" y="43"/>
      <point x="350" y="56" type="curve" smooth="yes"/>
      <point x="350" y="265" type="line"/>
      <point x="557" y="265" type="line" smooth="yes"/>
      <point x="571" y="265"/>
      <point x="580" y="275"/>
      <point x="580" y="288" type="curve" smooth="yes"/>
      <point x="580" y="318" type="line" smooth="yes"/>
      <point x="580" y="331"/>
      <point x="571" y="341"/>
      <point x="557" y="341" type="curve" smooth="yes"/>
      <point x="350" y="341" type="line"/>
      <point x="350" y="544" type="line" smooth="yes"/>
      <point x="350" y="558"/>
      <point x="341" y="567"/>
      <point x="327" y="567" type="curve" smooth="yes"/>
      <point x="294" y="567" type="line" smooth="yes"/>
      <point x="281" y="567"/>
      <point x="272" y="558"/>
      <point x="272" y="544" type="curve" smooth="yes"/>
      <point x="272" y="341" type="line"/>
      <point x="65" y="341" type="line" smooth="yes"/>
      <point x="52" y="341"/>
      <point x="42" y="331"/>
      <point x="42" y="318" type="curve" smooth="yes"/>
      <point x="42" y="288" type="line" smooth="yes"/>
      <point x="42" y="275"/>
      <point x="52" y="265"/>
      <point x="65" y="265" type="curve" smooth="yes"/>
      <point x="272" y="265" type="line"/>
      <point x="272" y="56" type="line" smooth="yes"/>
      <point x="272" y="43"/>
      <point x="281" y="33"/>
      <point x="294" y="33" type="curve" smooth="yes"/>
    </contour>
  </outline>
</glyph>
<glyph name="four" format="1">
  <advance width="618"/>
  <unicode hex="0034"/>
  <outline>
    <contour>
      <point x="448" y="0" type="line" smooth="yes"/>
      <point x="462" y="0"/>
      <point x="471" y="10"/>
      <point x="471" y="23" type="curve" smooth="yes"/>
      <point x="471" y="169" type="line"/>
      <point x="562" y="169" type="line" smooth="yes"/>
      <point x="575" y="169"/>
      <point x="585" y="178"/>
      <point x="585" y="192" type="curve" smooth="yes"/>
      <point x="585" y="230" type="line" smooth="yes"/>
      <point x="585" y="243"/>
      <point x="575" y="253"/>
      <point x="562" y="253" type="curve" smooth="yes"/>
      <point x="471" y="253" type="line"/>
      <point x="471" y="677" type="line" smooth="yes"/>
      <point x="471" y="691"/>
      <point x="462" y="700"/>
      <point x="448" y="700" type="curve" smooth="yes"/>
      <point x="380" y="700" type="line" smooth="yes"/>
      <point x="364" y="700"/>
      <point x="350" y="693"/>
      <point x="343" y="683" type="curve" smooth="yes"/>
      <point x="42" y="259" type="line" smooth="yes"/>
      <point x="33" y="246"/>
      <point x="31" y="233"/>
      <point x="31" y="229" type="curve" smooth="yes"/>
      <point x="31" y="192" type="line" smooth="yes"/>
      <point x="31" y="178"/>
      <point x="41" y="169"/>
      <point x="54" y="169" type="curve" smooth="yes"/>
      <point x="379" y="169" type="line"/>
      <point x="379" y="23" type="line" smooth="yes"/>
      <point x="379" y="10"/>
      <point x="388" y="0"/>
      <point x="402" y="0" type="curve" smooth="yes"/>
    </contour>
    <contour>
      <point x="380" y="599" type="line"/>
      <point x="380" y="251" type="line"/>
      <point x="135" y="251" type="line"/>
    </contour>
  </outline>
</glyph>
<glyph name="colon" format="1">
  <advance width="255"/>
  <unicode hex="003A"/>
  <outline>
    <contour>
      <point x="161" y="350" type="line" smooth="yes"/>
      <point x="174" y="350"/>
      <point x="185" y="360"/>
      <point x="185" y="373" type="curve" smooth="yes"/>
      <point x="185" y="440" type="line" smooth="yes"/>
      <point x="185" y="454"/>
      <point x="174" y="464"/>
      <point x="161" y="464" type="curve" smooth="yes"/>
      <point x="92" y="464" type="line" smooth="yes"/>
      <point x="79" y="464"/>
      <point x="69" y="454"/>
      <point x="69" y="440" type="curve" smooth="yes"/>
      <point x="69" y="373" type="line" smooth="yes"/>
      <point x="69" y="360"/>
      <point x="79" y="350"/>
      <point x="92" y="350" type="curve" smooth="yes"/>
    </contour>
    <contour>
      <point x="161" y="0" type="line" smooth="yes"/>
      <point x="174" y="0"/>
      <point x="185" y="10"/>
      <point x="185" y="23" type="curve" smooth="yes"/>
      <point x="185" y="90" type="line" smooth="yes"/>
      <point x="185" y="104"/>
      <point x="174" y="114"/>
      <point x="161" y="114" type="curve" smooth="yes"/>
      <point x="92" y="114" type="line" smooth="yes"/>
      <point x="79" y="114"/>
      <point x="69" y="104"/>
      <point x="69" y="90" type="curve" smooth="yes"/>
      <point x="69" y="23" type="line" smooth="yes"/>
      <point x="69" y="10"/>
      <point x="79" y="0"/>
      <point x="92" y="0" type="curve" smooth="yes"/>
    </contour>
  </outline>
</glyph>
<glyph name="equal" format="1">
  <advance width="570"/>
  <unicode hex="003D"/>
  <outline>
    <contour>
      <point x="475" y="387" type="line" smooth="yes"/>
      <point x="488" y="387"/>
      <point x="498" y="396"/>
      <point x="498" y="410" type="curve" smooth="yes"/>
      <point x="498" y="441" type="line" smooth="yes"/>
      <point x="498" y="454"/>
      <point x="488" y="463"/>
      <point x="475" y="463" type="curve" smooth="yes"/>
      <point x="95" y="463" type="line" smooth="yes"/>
      <point x="82" y="463"/>
      <point x="72" y="454"/>
      <point x="72" y="441" type="curve" smooth="yes"/>
      <point x="72" y="410" type="line" smooth="yes"/>
      <point x="72" y="396"/>
      <point x="82" y="387"/>
      <point x="95" y="387" type="curve" smooth="yes"/>
    </contour>
    <contour>
      <point x="475" y="137" type="line" smooth="yes"/>
      <point x="488" y="137"/>
      <point x="498" y="146"/>
      <point x="498" y="160" type="curve" smooth="yes"/>
      <point x="498" y="191" type="line" smooth="yes"/>
      <point x="498" y="204"/>
      <point x="488" y="213"/>
      <point x="475" y="213" type="curve" smooth="yes"/>
      <point x="95" y="213" type="line" smooth="yes"/>
      <point x="82" y="213"/>
      <point x="72" y="204"/>
      <point x="72" y="191" type="curve" smooth="yes"/>
      <point x="72" y="160" type="line" smooth="yes"/>
      <point x="72" y="146"/>
      <point x="82" y="137"/>
      <point x="95" y="137" type="curve" smooth="yes"/>
    </contour>
  </outline>
</glyph>
<glyph name="greater" format="1">
  <advance width="490"/>
  <unicode hex="003E"/>
  <outline>
    <contour>
      <point x="96" y="72"/>
      <point x="107" y="79"/>
      <point x="113" y="83" type="curve" smooth="yes"/>
      <point x="425" y="298" type="line" smooth="yes"/>
      <point x="446" y="312"/>
      <point x="454" y="325"/>
      <point x="454" y="343" type="curve" smooth="yes"/>
      <point x="454" y="360" type="line"/>
      <point x="454" y="379"/>
      <point x="446" y="391"/>
      <point x="425" y="406" type="curve" smooth="yes"/>
      <point x="113" y="621" type="line" smooth="yes"/>
      <point x="107" y="624"/>
      <point x="96" y="631"/>
      <point x="88" y="631" type="curve" smooth="yes"/>
      <point x="77" y="631"/>
      <point x="68" y="624"/>
      <point x="68" y="611" type="curve" smooth="yes"/>
      <point x="68" y="570" type="line" smooth="yes"/>
      <point x="68" y="555"/>
      <point x="76" y="547"/>
      <point x="91" y="537" type="curve" smooth="yes"/>
      <point x="361" y="352" type="line"/>
      <point x="91" y="167" type="line" smooth="yes"/>
      <point x="76" y="156"/>
      <point x="68" y="149"/>
      <point x="68" y="134" type="curve" smooth="yes"/>
      <point x="68" y="93" type="line" smooth="yes"/>
      <point x="68" y="80"/>
      <point x="77" y="72"/>
      <point x="88" y="72" type="curve" smooth="yes"/>
    </contour>
  </outline>
</glyph>
<glyph name="B" format="1">
  <advance width="667"/>
  <unicode hex="0042"/>
  <outline>
    <contour>
      <point x="390" y="0" type="line" smooth="yes"/>
      <point x="534" y="0"/>
      <point x="611" y="93"/>
      <point x="611" y="202" type="curve" smooth="yes"/>
      <point x="611" y="283"/>
      <point x="562" y="342"/>
      <point x="510" y="368" type="curve"/>
      <point x="548" y="387"/>
      <point x="596" y="434"/>
      <point x="596" y="516" type="curve" smooth="yes"/>
      <point x="596" y="618"/>
      <point x="531" y="700"/>
      <point x="383" y="700" type="curve" smooth="yes"/>
      <point x="110" y="700" type="line" smooth="yes"/>
      <point x="97" y="700"/>
      <point x="87" y="691"/>
      <point x="87" y="676" type="curve" smooth="yes"/>
      <point x="87" y="23" type="line" smooth="yes"/>
      <point x="87" y="10"/>
      <point x="97" y="0"/>
      <point x="110" y="0" type="curve" smooth="yes"/>
    </contour>
    <contour>
      <point x="182" y="325" type="line"/>
      <point x="378" y="325" type="line" smooth="yes"/>
      <point x="466" y="325"/>
      <point x="515" y="273"/>
      <point x="515" y="202" type="curve" smooth="yes"/>
      <point x="515" y="132"/>
      <point x="466" y="79"/>
      <point x="378" y="79" type="curve" smooth="yes"/>
      <point x="182" y="79" type="line"/>
    </contour>
    <contour>
      <point x="182" y="621" type="line"/>
      <point x="369" y="621" type="line" smooth="yes"/>
      <point x="456" y="621"/>
      <point x="501" y="584"/>
      <point x="501" y="515" type="curve" smooth="yes"/>
      <point x="501" y="445"/>
      <point x="456" y="403"/>
      <point x="369" y="403" type="curve" smooth="yes"/>
      <point x="182" y="403" type="line"/>
    </contour>
  </outline>
</glyph>
<glyph name="C" format="1">
  <advance width="665"/>
  <unicode hex="0043"/>
  <outline>
    <contour>
      <point x="524" y="-10"/>
      <point x="612" y="103"/>
      <point x="616" y="213" type="curve" smooth="yes"/>
      <point x="617" y="225"/>
      <point x="607" y="233"/>
      <point x="595" y="233" type="curve"/>
      <point x="545" y="233" type="line"/>
      <point x="532" y="233"/>
      <point x="524" y="228"/>
      <point x="520" y="211" type="curve" smooth="yes"/>
      <point x="496" y="105"/>
      <point x="432" y="73"/>
      <point x="338" y="73" type="curve" smooth="yes"/>
      <point x="229" y="73"/>
      <point x="161" y="130"/>
      <point x="157" y="266" type="curve" smooth="yes"/>
      <point x="155" y="323"/>
      <point x="155" y="379"/>
      <point x="157" y="434" type="curve"/>
      <point x="161" y="570"/>
      <point x="229" y="628"/>
      <point x="338" y="628" type="curve" smooth="yes"/>
      <point x="432" y="628"/>
      <point x="496" y="596"/>
      <point x="520" y="489" type="curve" smooth="yes"/>
      <point x="524" y="472"/>
      <point x="532" y="467"/>
      <point x="545" y="467" type="curve"/>
      <point x="595" y="467" type="line"/>
      <point x="607" y="467"/>
      <point x="617" y="475"/>
      <point x="616" y="487" type="curve" smooth="yes"/>
      <point x="612" y="597"/>
      <point x="524" y="710"/>
      <point x="338" y="710" type="curve" smooth="yes"/>
      <point x="155" y="710"/>
      <point x="67" y="600"/>
      <point x="61" y="439" type="curve"/>
      <point x="59" y="382"/>
      <point x="59" y="315"/>
      <point x="61" y="261" type="curve"/>
      <point x="67" y="99"/>
      <point x="154" y="-10"/>
      <point x="338" y="-10" type="curve" smooth="yes"/>
    </contour>
  </outline>
</glyph>
<glyph name="D" format="1">
  <advance width="688"/>
  <unicode hex="0044"/>
  <outline>
    <contour>
      <point x="340" y="0" type="line" smooth="yes"/>
      <point x="544" y="0"/>
      <point x="618" y="87"/>
      <point x="623" y="272" type="curve" smooth="yes"/>
      <point x="624" y="331"/>
      <point x="624" y="370"/>
      <point x="623" y="429" type="curve" smooth="yes"/>
      <point x="619" y="604"/>
      <point x="543" y="700"/>
      <point x="335" y="700" type="curve"/>
      <point x="110" y="700" type="line" smooth="yes"/>
      <point x="97" y="700"/>
      <point x="87" y="691"/>
      <point x="87" y="676" type="curve" smooth="yes"/>
      <point x="87" y="23" type="line" smooth="yes"/>
      <point x="87" y="10"/>
      <point x="97" y="0"/>
      <point x="110" y="0" type="curve" smooth="yes"/>
    </contour>
    <contour>
      <point x="182" y="618" type="line"/>
      <point x="331" y="618" type="line" smooth="yes"/>
      <point x="472" y="618"/>
      <point x="526" y="556"/>
      <point x="529" y="425" type="curve" smooth="yes"/>
      <point x="530" y="366"/>
      <point x="530" y="336"/>
      <point x="529" y="276" type="curve" smooth="yes"/>
      <point x="526" y="137"/>
      <point x="476" y="83"/>
      <point x="336" y="83" type="curve" smooth="yes"/>
      <point x="182" y="83" type="line"/>
    </contour>
  </outline>
</glyph>
<glyph name="E" format="1">
  <advance width="605"/>
  <unicode hex="0045"/>
  <outline>
    <contour>
      <point x="528" y="0" type="line" smooth="yes"/>
      <point x="543" y="0"/>
      <point x="552" y="10"/>
      <point x="552" y="23" type="curve" smooth="yes"/>
      <point x="552" y="59" type="line" smooth="yes"/>
      <point x="552" y="73"/>
      <point x="543" y="83"/>
      <point x="528" y="83" type="curve" smooth="yes"/>
      <point x="180" y="83" type="line"/>
      <point x="180" y="314" type="line"/>
      <point x="498" y="314" type="line" smooth="yes"/>
      <point x="513" y="314"/>
      <point x="522" y="323"/>
      <point x="522" y="337" type="curve" smooth="yes"/>
      <point x="522" y="371" type="line" smooth="yes"/>
      <point x="522" y="385"/>
      <point x="513" y="395"/>
      <point x="498" y="395" type="curve" smooth="yes"/>
      <point x="180" y="395" type="line"/>
      <point x="180" y="618" type="line"/>
      <point x="520" y="618" type="line" smooth="yes"/>
      <point x="535" y="618"/>
      <point x="544" y="627"/>
      <point x="544" y="640" type="curve" smooth="yes"/>
      <point x="544" y="676" type="line" smooth="yes"/>
      <point x="544" y="691"/>
      <point x="535" y="700"/>
      <point x="520" y="700" type="curve" smooth="yes"/>
      <point x="110" y="700" type="line" smooth="yes"/>
      <point x="97" y="700"/>
      <point x="87" y="691"/>
      <point x="87" y="676" type="curve" smooth="yes"/>
      <point x="87" y="23" type="line" smooth="yes"/>
      <point x="87" y="10"/>
      <point x="97" y="0"/>
      <point x="110" y="0" type="curve" smooth="yes"/>
    </contour>
  </outline>
</glyph>
<glyph name="I" format="1">
  <advance width="271"/>
  <unicode hex="0049"/>
  <outline>
    <contour>
      <point x="160" y="0" type="line" smooth="yes"/>
      <point x="173" y="0"/>
      <point x="183" y="10"/>
      <point x="183" y="23" type="curve" smooth="yes"/>
      <point x="183" y="677" type="line" smooth="yes"/>
      <point x="183" y="691"/>
      <point x="173" y="700"/>
      <point x="160" y="700" type="curve" smooth="yes"/>
      <point x="110" y="700" type="line" smooth="yes"/>
      <point x="97" y="700"/>
      <point x="87" y="691"/>
      <point x="87" y="677" type="curve" smooth="yes"/>
      <point x="87" y="23" type="line" smooth="yes"/>
      <point x="87" y="10"/>
      <point x="97" y="0"/>
      <point x="110" y="0" type="curve" smooth="yes"/>
    </contour>
  </outline>
</glyph>
<glyph name="K" format="1">
  <advance width="598"/>
  <unicode hex="004B"/>
  <outline>
    <contour>
      <point x="157" y="0" type="line" smooth="yes"/>
      <point x="171" y="0"/>
      <point x="180" y="10"/>
      <point x="180" y="23" type="curve" smooth="yes"/>
      <point x="180" y="299" type="line"/>
      <point x="471" y="16" type="line" smooth="yes"/>
      <point x="475" y="12"/>
      <point x="487" y="0"/>
      <point x="509" y="0" type="curve" smooth="yes"/>
      <point x="561" y="0" type="line" smooth="yes"/>
      <point x="573" y="0"/>
      <point x="582" y="9"/>
      <point x="582" y="20" type="curve" smooth="yes"/>
      <point x="582" y="24"/>
      <point x="581" y="29"/>
      <point x="576" y="34" type="curve" smooth="yes"/>
      <point x="243" y="365" type="line"/>
      <point x="556" y="667" type="line" smooth="yes"/>
      <point x="560" y="671"/>
      <point x="561" y="676"/>
      <point x="561" y="680" type="curve" smooth="yes"/>
      <point x="561" y="691"/>
      <point x="551" y="700"/>
      <point x="540" y="700" type="curve" smooth="yes"/>
      <point x="490" y="700" type="line" smooth="yes"/>
      <point x="469" y="700"/>
      <point x="457" y="689"/>
      <point x="452" y="684" type="curve" smooth="yes"/>
      <point x="180" y="427" type="line"/>
      <point x="180" y="676" type="line" smooth="yes"/>
      <point x="180" y="691"/>
      <point x="171" y="700"/>
      <point x="157" y="700" type="curve" smooth="yes"/>
      <point x="110" y="700" type="line" smooth="yes"/>
      <point x="97" y="700"/>
      <point x="87" y="691"/>
      <point x="87" y="676" type="curve" smooth="yes"/>
      <point x="87" y="23" type="line" smooth="yes"/>
      <point x="87" y="10"/>
      <point x="97" y="0"/>
      <point x="110" y="0" type="curve" smooth="yes"/>
    </contour>
  </outline>
</glyph>
<glyph name="L" format="1">
  <advance width="561"/>
  <unicode hex="004C"/>
  <outline>
    <contour>
      <point x="516" y="0" type="line" smooth="yes"/>
      <point x="530" y="0"/>
      <point x="539" y="10"/>
      <point x="539" y="23" type="curve" smooth="yes"/>
      <point x="539" y="61" type="line" smooth="yes"/>
      <point x="539" y="75"/>
      <point x="530" y="84"/>
      <point x="516" y="84" type="curve" smooth="yes"/>
      <point x="182" y="84" type="line"/>
      <point x="182" y="677" type="line" smooth="yes"/>
      <point x="182" y="691"/>
      <point x="172" y="700"/>
      <point x="159" y="700" type="curve" smooth="yes"/>
      <point x="110" y="700" type="line" smooth="yes"/>
      <point x="97" y="700"/>
      <point x="87" y="691"/>
      <point x="87" y="677" type="curve" smooth="yes"/>
      <point x="87" y="23" type="line" smooth="yes"/>
      <point x="87" y="10"/>
      <point x="97" y="0"/>
      <point x="110" y="0" type="curve" smooth="yes"/>
    </contour>
  </outline>
</glyph>
<glyph name="M" format="1">
  <advance width="793"/>
  <unicode hex="004D"/>
  <outline>
    <contour>
      <point x="156" y="0" type="line" smooth="yes"/>
      <point x="169" y="0"/>
      <point x="179" y="10"/>
      <point x="179" y="23" type="curve" smooth="yes"/>
      <point x="179" y="520" type="line"/>
      <point x="349" y="189" type="line" smooth="yes"/>
      <point x="355" y="176"/>
      <point x="364" y="168"/>
      <point x="381" y="168" type="curve" smooth="yes"/>
      <point x="411" y="168" type="line" smooth="yes"/>
      <point x="428" y="168"/>
      <point x="437" y="176"/>
      <point x="443" y="189" type="curve" smooth="yes"/>
      <point x="613" y="520" type="line"/>
      <point x="613" y="23" type="line" smooth="yes"/>
      <point x="613" y="10"/>
      <point x="623" y="0"/>
      <point x="636" y="0" type="curve" smooth="yes"/>
      <point x="681" y="0" type="line" smooth="yes"/>
      <point x="695" y="0"/>
      <point x="705" y="10"/>
      <point x="705" y="23" type="curve" smooth="yes"/>
      <point x="705" y="676" type="line" smooth="yes"/>
      <point x="705" y="691"/>
      <point x="695" y="700"/>
      <point x="681" y="700" type="curve" smooth="yes"/>
      <point x="635" y="700" type="line" smooth="yes"/>
      <point x="619" y="700"/>
      <point x="612" y="689"/>
      <point x="610" y="685" type="curve" smooth="yes"/>
      <point x="396" y="276" type="line"/>
      <point x="183" y="685" type="line" smooth="yes"/>
      <point x="180" y="689"/>
      <point x="173" y="700"/>
      <point x="158" y="700" type="curve" smooth="yes"/>
      <point x="111" y="700" type="line" smooth="yes"/>
      <point x="97" y="700"/>
      <point x="87" y="691"/>
      <point x="87" y="676" type="curve" smooth="yes"/>
      <point x="87" y="23" type="line" smooth="yes"/>
      <point x="87" y="10"/>
      <point x="97" y="0"/>
      <point x="111" y="0" type="curve" smooth="yes"/>
    </contour>
  </outline>
</glyph>
<glyph name="O" format="1">
  <advance width="675"/>
  <unicode hex="004F"/>
  <outline>
    <contour>
      <point x="509" y="-10"/>
      <point x="608" y="78"/>
      <point x="613" y="265" type="curve" smooth="yes"/>
      <point x="615" y="324"/>
      <point x="615" y="375"/>
      <point x="613" y="434" type="curve" smooth="yes"/>
      <point x="608" y="619"/>
      <point x="500" y="710"/>
      <point x="338" y="710" type="curve" smooth="yes"/>
      <point x="175" y="710"/>
      <point x="67" y="619"/>
      <point x="62" y="434" type="curve" smooth="yes"/>
      <point x="60" y="375"/>
      <point x="60" y="324"/>
      <point x="62" y="265" type="curve" smooth="yes"/>
      <point x="68" y="78"/>
      <point x="167" y="-10"/>
      <point x="338" y="-10" type="curve" smooth="yes"/>
    </contour>
    <contour>
      <point x="236" y="73"/>
      <point x="163" y="131"/>
      <point x="158" y="270" type="curve" smooth="yes"/>
      <point x="156" y="330"/>
      <point x="156" y="371"/>
      <point x="158" y="430" type="curve" smooth="yes"/>
      <point x="163" y="569"/>
      <point x="237" y="628"/>
      <point x="338" y="628" type="curve" smooth="yes"/>
      <point x="439" y="628"/>
      <point x="513" y="569"/>
      <point x="518" y="430" type="curve" smooth="yes"/>
      <point x="520" y="371"/>
      <point x="520" y="330"/>
      <point x="518" y="270" type="curve" smooth="yes"/>
      <point x="513" y="131"/>
      <point x="440" y="73"/>
      <point x="338" y="73" type="curve" smooth="yes"/>
    </contour>
  </outline>
</glyph>
<glyph name="Q" format="1">
  <advance width="675"/>
  <unicode hex="0051"/>
  <outline>
    <contour>
      <point x="590" y="-65" type="line"/>
      <point x="601" y="-65"/>
      <point x="610" y="-56"/>
      <point x="610" y="-45" type="curve" smooth="yes"/>
      <point x="610" y="-39"/>
      <point x="608" y="-36"/>
      <point x="607" y="-34" type="curve"/>
      <point x="540" y="60" type="line"/>
      <point x="586" y="105"/>
      <point x="610" y="173"/>
      <point x="613" y="265" type="curve" smooth="yes"/>
      <point x="615" y="324"/>
      <point x="615" y="375"/>
      <point x="613" y="434" type="curve" smooth="yes"/>
      <point x="608" y="619"/>
      <point x="500" y="710"/>
      <point x="338" y="710" type="curve" smooth="yes"/>
      <point x="175" y="710"/>
      <point x="67" y="619"/>
      <point x="62" y="434" type="curve" smooth="yes"/>
      <point x="60" y="375"/>
      <point x="60" y="324"/>
      <point x="62" y="265" type="curve" smooth="yes"/>
      <point x="68" y="78"/>
      <point x="167" y="-10"/>
      <point x="338" y="-10" type="curve" smooth="yes"/>
      <point x="387" y="-10"/>
      <point x="429" y="-1"/>
      <point x="464" y="15" type="curve"/>
      <point x="505" y="-42" type="line"/>
      <point x="511" y="-50"/>
      <point x="522" y="-65"/>
      <point x="539" y="-65" type="curve"/>
    </contour>
    <contour>
      <point x="236" y="73"/>
      <point x="163" y="131"/>
      <point x="158" y="270" type="curve" smooth="yes"/>
      <point x="156" y="330"/>
      <point x="156" y="371"/>
      <point x="158" y="430" type="curve" smooth="yes"/>
      <point x="163" y="569"/>
      <point x="237" y="628"/>
      <point x="338" y="628" type="curve" smooth="yes"/>
      <point x="439" y="628"/>
      <point x="513" y="569"/>
      <point x="518" y="430" type="curve" smooth="yes"/>
      <point x="520" y="371"/>
      <point x="520" y="330"/>
      <point x="518" y="270" type="curve" smooth="yes"/>
      <point x="513" y="131"/>
      <point x="440" y="73"/>
      <point x="338" y="73" type="curve" smooth="yes"/>
    </contour>
  </outline>
</glyph>
<glyph name="V" format="1">
  <advance width="653"/>
  <unicode hex="0056"/>
  <outline>
    <contour>
      <point x="357" y="0" type="line" smooth="yes"/>
      <point x="376" y="0"/>
      <point x="387" y="10"/>
      <point x="393" y="26" type="curve" smooth="yes"/>
      <point x="617" y="669" type="line" smooth="yes"/>
      <point x="618" y="673"/>
      <point x="619" y="678"/>
      <point x="619" y="680" type="curve" smooth="yes"/>
      <point x="619" y="691"/>
      <point x="610" y="700"/>
      <point x="599" y="700" type="curve" smooth="yes"/>
      <point x="550" y="700" type="line" smooth="yes"/>
      <point x="535" y="700"/>
      <point x="527" y="689"/>
      <point x="524" y="682" type="curve" smooth="yes"/>
      <point x="326" y="110" type="line"/>
      <point x="128" y="682" type="line" smooth="yes"/>
      <point x="125" y="689"/>
      <point x="117" y="700"/>
      <point x="102" y="700" type="curve" smooth="yes"/>
      <point x="53" y="700" type="line" smooth="yes"/>
      <point x="42" y="700"/>
      <point x="33" y="691"/>
      <point x="33" y="680" type="curve" smooth="yes"/>
      <point x="33" y="678"/>
      <point x="34" y="673"/>
      <point x="35" y="669" type="curve" smooth="yes"/>
      <point x="260" y="26" type="line" smooth="yes"/>
      <point x="265" y="10"/>
      <point x="276" y="0"/>
      <point x="295" y="0" type="curve" smooth="yes"/>
    </contour>
  </outline>
</glyph>
<glyph name="X" format="1">
  <advance width="631"/>
  <unicode hex="0058"/>
  <outline>
    <contour>
      <point x="100" y="0" type="line" smooth="yes"/>
      <point x="112" y="0"/>
      <point x="120" y="7"/>
      <point x="126" y="16" type="curve" smooth="yes"/>
      <point x="314" y="280" type="line"/>
      <point x="503" y="16" type="line" smooth="yes"/>
      <point x="509" y="7"/>
      <point x="517" y="0"/>
      <point x="529" y="0" type="curve" smooth="yes"/>
      <point x="586" y="0" type="line" smooth="yes"/>
      <point x="597" y="0"/>
      <point x="607" y="9"/>
      <point x="607" y="20" type="curve" smooth="yes"/>
      <point x="607" y="25"/>
      <point x="605" y="30"/>
      <point x="603" y="33" type="curve" smooth="yes"/>
      <point x="374" y="355" type="line"/>
      <point x="590" y="667" type="line" smooth="yes"/>
      <point x="592" y="670"/>
      <point x="594" y="675"/>
      <point x="594" y="680" type="curve" smooth="yes"/>
      <point x="594" y="691"/>
      <point x="585" y="700"/>
      <point x="574" y="700" type="curve" smooth="yes"/>
      <point x="521" y="700" type="line" smooth="yes"/>
      <point x="509" y="700"/>
      <point x="501" y="693"/>
      <point x="495" y="683" type="curve" smooth="yes"/>
      <point x="318" y="430" type="line"/>
      <point x="139" y="683" type="line" smooth="yes"/>
      <point x="132" y="693"/>
      <point x="124" y="700"/>
      <point x="113" y="700" type="curve" smooth="yes"/>
      <point x="56" y="700" type="line" smooth="yes"/>
      <point x="45" y="700"/>
      <point x="36" y="691"/>
      <point x="36" y="680" type="curve" smooth="yes"/>
      <point x="36" y="675"/>
      <point x="38" y="670"/>
      <point x="40" y="667" type="curve" smooth="yes"/>
      <point x="258" y="356" type="line"/>
      <point x="29" y="33" type="line" smooth="yes"/>
      <point x="27" y="30"/>
      <point x="25" y="25"/>
      <point x="25" y="20" type="curve" smooth="yes"/>
      <point x="25" y="9"/>
      <point x="34" y="0"/>
      <point x="45" y="0" type="curve" smooth="yes"/>
    </contour>
  </outline>
</glyph>
<glyph name="Y" format="1">
  <advance width="645"/>
  <unicode hex="0059"/>
  <outline>
    <contour>
      <point x="346" y="0" type="line" smooth="yes"/>
      <point x="360" y="0"/>
      <point x="370" y="10"/>
      <point x="370" y="23" type="curve" smooth="yes"/>
      <point x="370" y="260" type="line"/>
      <point x="610" y="667" type="line" smooth="yes"/>
      <point x="612" y="671"/>
      <point x="614" y="675"/>
      <point x="614" y="680" type="curve" smooth="yes"/>
      <point x="614" y="691"/>
      <point x="605" y="700"/>
      <point x="594" y="700" type="curve" smooth="yes"/>
      <point x="546" y="700" type="line" smooth="yes"/>
      <point x="534" y="700"/>
      <point x="525" y="693"/>
      <point x="520" y="683" type="curve" smooth="yes"/>
      <point x="322" y="356" type="line"/>
      <point x="125" y="683" type="line" smooth="yes"/>
      <point x="119" y="693"/>
      <point x="110" y="700"/>
      <point x="98" y="700" type="curve" smooth="yes"/>
      <point x="50" y="700" type="line" smooth="yes"/>
      <point x="39" y="700"/>
      <point x="30" y="691"/>
      <point x="30" y="680" type="curve" smooth="yes"/>
      <point x="30" y="675"/>
      <point x="32" y="671"/>
      <point x="34" y="667" type="curve" smooth="yes"/>
      <point x="275" y="260" type="line"/>
      <point x="275" y="23" type="line" smooth="yes"/>
      <point x="275" y="10"/>
      <point x="284" y="0"/>
      <point x="297" y="0" type="curve" smooth="yes"/>
    </contour>
  </outline>
</glyph>
<glyph name="bracketleft" format="1">
  <advance width="323"/>
  <unicode hex="005B"/>
  <outline>
    <contour>
      <point x="272" y="-159" type="line" smooth="yes"/>
      <point x="286" y="-159"/>
      <point x="295" y="-150"/>
      <point x="295" y="-136" type="curve" smooth="yes"/>
      <point x="295" y="-100" type="line" smooth="yes"/>
      <point x="295" y="-87"/>
      <point x="286" y="-77"/>
      <point x="272" y="-77" type="curve" smooth="yes"/>
      <point x="159" y="-77" type="line"/>
      <point x="159" y="697" type="line"/>
      <point x="272" y="697" type="line" smooth="yes"/>
      <point x="286" y="697"/>
      <point x="295" y="707"/>
      <point x="295" y="720" type="curve" smooth="yes"/>
      <point x="295" y="753" type="line" smooth="yes"/>
      <point x="295" y="767"/>
      <point x="286" y="776"/>
      <point x="272" y="776" type="curve" smooth="yes"/>
      <point x="96" y="776" type="line" smooth="yes"/>
      <point x="83" y="776"/>
      <point x="73" y="767"/>
      <point x="73" y="753" type="curve" smooth="yes"/>
      <point x="73" y="-136" type="line" smooth="yes"/>
      <point x="73" y="-150"/>
      <point x="83" y="-159"/>
      <point x="96" y="-159" type="curve" smooth="yes"/>
    </contour>
  </outline>
</glyph>
<glyph name="underscore" format="1">
  <advance width="748"/>
  <unicode hex="005F"/>
  <outline>
    <contour>
      <point x="664" y="-40" type="line" smooth="yes"/>
      <point x="677" y="-40"/>
      <point x="687" y="-30"/>
      <point x="687" y="-17" type="curve" smooth="yes"/>
      <point x="687" y="18" type="line" smooth="yes"/>
      <point x="687" y="32"/>
      <point x="677" y="41"/>
      <point x="664" y="41" type="curve" smooth="yes"/>
      <point x="84" y="41" type="line" smooth="yes"/>
      <point x="71" y="41"/>
      <point x="61" y="32"/>
      <point x="61" y="18" type="curve" smooth="yes"/>
      <point x="61" y="-17" type="line" smooth="yes"/>
      <point x="61" y="-30"/>
      <point x="71" y="-40"/>
      <point x="84" y="-40" type="curve" smooth="yes"/>
    </contour>
  </outline>
</glyph>
<glyph name="b" format="1">
  <advance width="594"/>
  <unicode hex="0062"/>
  <outline>
    <contour>
      <point x="478" y="-10"/>
      <point x="538" y="105"/>
      <point x="542" y="230" type="curve" smooth="yes"/>
      <point x="544" y="252"/>
      <point x="544" y="268"/>
      <point x="542" y="290" type="curve" smooth="yes"/>
      <point x="538" y="414"/>
      <point x="478" y="530"/>
      <point x="329" y="530" type="curve" smooth="yes"/>
      <point x="250" y="530"/>
      <point x="200" y="498"/>
      <point x="167" y="456" type="curve"/>
      <point x="167" y="687" type="line" smooth="yes"/>
      <point x="167" y="701"/>
      <point x="157" y="710"/>
      <point x="144" y="710" type="curve" smooth="yes"/>
      <point x="99" y="710" type="line" smooth="yes"/>
      <point x="86" y="710"/>
      <point x="76" y="701"/>
      <point x="76" y="687" type="curve" smooth="yes"/>
      <point x="76" y="23" type="line" smooth="yes"/>
      <point x="76" y="10"/>
      <point x="86" y="0"/>
      <point x="99" y="0" type="curve" smooth="yes"/>
      <point x="141" y="0" type="line" smooth="yes"/>
      <point x="155" y="0"/>
      <point x="164" y="10"/>
      <point x="164" y="23" type="curve" smooth="yes"/>
      <point x="164" y="66" type="line"/>
      <point x="197" y="22"/>
      <point x="248" y="-10"/>
      <point x="329" y="-10" type="curve" smooth="yes"/>
    </contour>
    <contour>
      <point x="208" y="68"/>
      <point x="169" y="150"/>
      <point x="166" y="225" type="curve" smooth="yes"/>
      <point x="165" y="246"/>
      <point x="165" y="280"/>
      <point x="166" y="302" type="curve" smooth="yes"/>
      <point x="168" y="374"/>
      <point x="211" y="452"/>
      <point x="310" y="452" type="curve" smooth="yes"/>
      <point x="413" y="452"/>
      <point x="446" y="375"/>
      <point x="450" y="289" type="curve" smooth="yes"/>
      <point x="452" y="269"/>
      <point x="452" y="251"/>
      <point x="450" y="231" type="curve" smooth="yes"/>
      <point x="446" y="145"/>
      <point x="413" y="68"/>
      <point x="310" y="68" type="curve" smooth="yes"/>
    </contour>
  </outline>
</glyph>
<glyph name="d" format="1">
  <advance width="594"/>
  <unicode hex="0064"/>
  <outline>
    <contour>
      <point x="345" y="-10"/>
      <point x="397" y="22"/>
      <point x="429" y="66" type="curve"/>
      <point x="429" y="23" type="line" smooth="yes"/>
      <point x="429" y="10"/>
      <point x="439" y="0"/>
      <point x="452" y="0" type="curve" smooth="yes"/>
      <point x="495" y="0" type="line" smooth="yes"/>
      <point x="508" y="0"/>
      <point x="518" y="10"/>
      <point x="518" y="23" type="curve" smooth="yes"/>
      <point x="518" y="687" type="line" smooth="yes"/>
      <point x="518" y="701"/>
      <point x="508" y="710"/>
      <point x="495" y="710" type="curve" smooth="yes"/>
      <point x="450" y="710" type="line" smooth="yes"/>
      <point x="436" y="710"/>
      <point x="427" y="701"/>
      <point x="427" y="687" type="curve" smooth="yes"/>
      <point x="427" y="456" type="line"/>
      <point x="394" y="498"/>
      <point x="343" y="530"/>
      <point x="265" y="530" type="curve" smooth="yes"/>
      <point x="115" y="530"/>
      <point x="55" y="414"/>
      <point x="51" y="290" type="curve" smooth="yes"/>
      <point x="50" y="268"/>
      <point x="50" y="252"/>
      <point x="51" y="230" type="curve" smooth="yes"/>
      <point x="56" y="105"/>
      <point x="115" y="-10"/>
      <point x="265" y="-10" type="curve" smooth="yes"/>
    </contour>
    <contour>
      <point x="180" y="68"/>
      <point x="147" y="145"/>
      <point x="143" y="231" type="curve" smooth="yes"/>
      <point x="142" y="251"/>
      <point x="142" y="269"/>
      <point x="143" y="289" type="curve" smooth="yes"/>
      <point x="147" y="375"/>
      <point x="180" y="452"/>
      <point x="284" y="452" type="curve" smooth="yes"/>
      <point x="382" y="452"/>
      <point x="425" y="374"/>
      <point x="427" y="302" type="curve" smooth="yes"/>
      <point x="429" y="280"/>
      <point x="429" y="246"/>
      <point x="427" y="225" type="curve" smooth="yes"/>
      <point x="425" y="150"/>
      <point x="385" y="68"/>
      <point x="284" y="68" type="curve" smooth="yes"/>
    </contour>
  </outline>
</glyph>
<glyph name="i" format="1">
  <advance width="240"/>
  <unicode hex="0069"/>
  <outline>
    <contour>
      <point x="142" y="0" type="line" smooth="yes"/>
      <point x="155" y="0"/>
      <point x="165" y="10"/>
      <point x="165" y="23" type="curve" smooth="yes"/>
      <point x="165" y="497" type="line" smooth="yes"/>
      <point x="165" y="511"/>
      <point x="155" y="520"/>
      <point x="142" y="520" type="curve" smooth="yes"/>
      <point x="98" y="520" type="line" smooth="yes"/>
      <point x="85" y="520"/>
      <point x="75" y="511"/>
      <point x="75" y="497" type="curve" smooth="yes"/>
      <point x="75" y="23" type="line" smooth="yes"/>
      <point x="75" y="10"/>
      <point x="85" y="0"/>
      <point x="98" y="0" type="curve" smooth="yes"/>
    </contour>
    <contour>
      <point x="150" y="618" type="line" smooth="yes"/>
      <point x="163" y="618"/>
      <point x="173" y="628"/>
      <point x="173" y="641" type="curve" smooth="yes"/>
      <point x="173" y="693" type="line" smooth="yes"/>
      <point x="173" y="706"/>
      <point x="163" y="717"/>
      <point x="150" y="717" type="curve" smooth="yes"/>
      <point x="90" y="717" type="line" smooth="yes"/>
      <point x="77" y="717"/>
      <point x="67" y="706"/>
      <point x="67" y="693" type="curve" smooth="yes"/>
      <point x="67" y="641" type="line" smooth="yes"/>
      <point x="67" y="628"/>
      <point x="77" y="618"/>
      <point x="90" y="618" type="curve" smooth="yes"/>
    </contour>
  </outline>
</glyph>
<glyph name="m" format="1">
  <advance width="888"/>
  <unicode hex="006D"/>
  <outline>
    <contour>
      <point x="142" y="0" type="line" smooth="yes"/>
      <point x="155" y="0"/>
      <point x="165" y="10"/>
      <point x="165" y="23" type="curve" smooth="yes"/>
      <point x="165" y="304" type="line" smooth="yes"/>
      <point x="165" y="417"/>
      <point x="227" y="452"/>
      <point x="282" y="452" type="curve" smooth="yes"/>
      <point x="342" y="452"/>
      <point x="402" y="417"/>
      <point x="402" y="303" type="curve" smooth="yes"/>
      <point x="402" y="23" type="line" smooth="yes"/>
      <point x="402" y="10"/>
      <point x="412" y="0"/>
      <point x="425" y="0" type="curve" smooth="yes"/>
      <point x="469" y="0" type="line" smooth="yes"/>
      <point x="482" y="0"/>
      <point x="492" y="10"/>
      <point x="492" y="23" type="curve" smooth="yes"/>
      <point x="492" y="303" type="line" smooth="yes"/>
      <point x="492" y="417"/>
      <point x="554" y="452"/>
      <point x="609" y="452" type="curve" smooth="yes"/>
      <point x="673" y="452"/>
      <point x="729" y="417"/>
      <point x="729" y="303" type="curve" smooth="yes"/>
      <point x="729" y="23" type="line" smooth="yes"/>
      <point x="729" y="10"/>
      <point x="738" y="0"/>
      <point x="752" y="0" type="curve" smooth="yes"/>
      <point x="795" y="0" type="line" smooth="yes"/>
      <point x="809" y="0"/>
      <point x="818" y="10"/>
      <point x="818" y="23" type="curve" smooth="yes"/>
      <point x="818" y="312" type="line" smooth="yes"/>
      <point x="818" y="458"/>
      <point x="737" y="530"/>
      <point x="632" y="530" type="curve" smooth="yes"/>
      <point x="557" y="530"/>
      <point x="495" y="493"/>
      <point x="464" y="438" type="curve"/>
      <point x="434" y="499"/>
      <point x="380" y="531"/>
      <point x="305" y="530" type="curve" smooth="yes"/>
      <point x="239" y="530"/>
      <point x="194" y="503"/>
      <point x="162" y="463" type="curve"/>
      <point x="162" y="497" type="line" smooth="yes"/>
      <point x="162" y="511"/>
      <point x="153" y="520"/>
      <point x="140" y="520" type="curve" smooth="yes"/>
      <point x="98" y="520" type="line" smooth="yes"/>
      <point x="85" y="520"/>
      <point x="75" y="511"/>
      <point x="75" y="497" type="curve" smooth="yes"/>
      <point x="75" y="23" type="line" smooth="yes"/>
      <point x="75" y="10"/>
      <point x="85" y="0"/>
      <point x="98" y="0" type="curve" smooth="yes"/>
    </contour>
  </outline>
</glyph>
<glyph name="o" format="1">
  <advance width="572"/>
  <unicode hex="006F"/>
  <outline>
    <contour>
      <point x="436" y="-10"/>
      <point x="514" y="85"/>
      <point x="519" y="217" type="curve" smooth="yes"/>
      <point x="520" y="239"/>
      <point x="520" y="281"/>
      <point x="519" y="303" type="curve" smooth="yes"/>
      <point x="514" y="435"/>
      <point x="434" y="530"/>
      <point x="286" y="530" type="curve" smooth="yes"/>
      <point x="137" y="530"/>
      <point x="57" y="435"/>
      <point x="52" y="303" type="curve" smooth="yes"/>
      <point x="51" y="281"/>
      <point x="51" y="239"/>
      <point x="52" y="217" type="curve" smooth="yes"/>
      <point x="57" y="85"/>
      <point x="135" y="-10"/>
      <point x="286" y="-10" type="curve" smooth="yes"/>
    </contour>
    <contour>
      <point x="202" y="65"/>
      <point x="148" y="119"/>
      <point x="144" y="222" type="curve" smooth="yes"/>
      <point x="143" y="242"/>
      <point x="143" y="278"/>
      <point x="144" y="298" type="curve" smooth="yes"/>
      <point x="148" y="400"/>
      <point x="202" y="455"/>
      <point x="286" y="455" type="curve" smooth="yes"/>
      <point x="370" y="455"/>
      <point x="424" y="400"/>
      <point x="427" y="298" type="curve" smooth="yes"/>
      <point x="428" y="278"/>
      <point x="428" y="242"/>
      <point x="427" y="222" type="curve" smooth="yes"/>
      <point x="424" y="119"/>
      <point x="370" y="65"/>
      <point x="286" y="65" type="curve" smooth="yes"/>
    </contour>
  </outline>
</glyph>
<glyph name="q" format="1">
  <advance width="594"/>
  <unicode hex="0071"/>
  <outline>
    <contour>
      <point x="496" y="-190" type="line" smooth="yes"/>
      <point x="509" y="-190"/>
      <point x="519" y="-181"/>
      <point x="519" y="-167" type="curve" smooth="yes"/>
      <point x="519" y="497" type="line" smooth="yes"/>
      <point x="519" y="511"/>
      <point x="509" y="520"/>
      <point x="496" y="520" type="curve" smooth="yes"/>
      <point x="453" y="520" type="line" smooth="yes"/>
      <point x="440" y="520"/>
      <point x="430" y="511"/>
      <point x="430" y="497" type="curve" smooth="yes"/>
      <point x="430" y="453" type="line"/>
      <point x="398" y="497"/>
      <point x="346" y="530"/>
      <point x="266" y="530" type="curve" smooth="yes"/>
      <point x="116" y="530"/>
      <point x="57" y="419"/>
      <point x="52" y="294" type="curve" smooth="yes"/>
      <point x="51" y="272"/>
      <point x="51" y="248"/>
      <point x="52" y="226" type="curve" smooth="yes"/>
      <point x="56" y="102"/>
      <point x="116" y="-10"/>
      <point x="266" y="-10" type="curve" smooth="yes"/>
      <point x="344" y="-10"/>
      <point x="395" y="22"/>
      <point x="428" y="66" type="curve"/>
      <point x="428" y="-167" type="line" smooth="yes"/>
      <point x="428" y="-181"/>
      <point x="437" y="-190"/>
      <point x="451" y="-190" type="curve" smooth="yes"/>
    </contour>
    <contour>
      <point x="180" y="68"/>
      <point x="147" y="145"/>
      <point x="143" y="231" type="curve" smooth="yes"/>
      <point x="142" y="251"/>
      <point x="142" y="269"/>
      <point x="143" y="289" type="curve" smooth="yes"/>
      <point x="147" y="375"/>
      <point x="180" y="452"/>
      <point x="284" y="452" type="curve" smooth="yes"/>
      <point x="385" y="452"/>
      <point x="425" y="370"/>
      <point x="427" y="296" type="curve" smooth="yes"/>
      <point x="429" y="274"/>
      <point x="429" y="240"/>
      <point x="427" y="218" type="curve" smooth="yes"/>
      <point x="425" y="146"/>
      <point x="382" y="68"/>
      <point x="284" y="68" type="curve" smooth="yes"/>
    </contour>
  </outline>
</glyph>
<glyph name="t" format="1">
  <advance width="388"/>
  <unicode hex="0074"/>
  <outline>
    <contour>
      <point x="342" y="0" type="line" smooth="yes"/>
      <point x="355" y="0"/>
      <point x="365" y="10"/>
      <point x="365" y="23" type="curve" smooth="yes"/>
      <point x="365" y="56" type="line" smooth="yes"/>
      <point x="365" y="70"/>
      <point x="355" y="79"/>
      <point x="342" y="79" type="curve" smooth="yes"/>
      <point x="282" y="79" type="line" smooth="yes"/>
      <point x="227" y="79"/>
      <point x="208" y="117"/>
      <point x="208" y="182" type="curve" smooth="yes"/>
      <point x="208" y="443" type="line"/>
      <point x="332" y="443" type="line" smooth="yes"/>
      <point x="346" y="443"/>
      <point x="355" y="452"/>
      <point x="355" y="465" type="curve" smooth="yes"/>
      <point x="355" y="497" type="line" smooth="yes"/>
      <point x="355" y="511"/>
      <point x="346" y="520"/>
      <point x="332" y="520" type="curve" smooth="yes"/>
      <point x="208" y="520" type="line"/>
      <point x="208" y="687" type="line" smooth="yes"/>
      <point x="208" y="701"/>
      <point x="199" y="710"/>
      <point x="185" y="710" type="curve" smooth="yes"/>
      <point x="142" y="710" type="line" smooth="yes"/>
      <point x="129" y="710"/>
      <point x="119" y="701"/>
      <point x="119" y="687" type="curve" smooth="yes"/>
      <point x="119" y="520" type="line"/>
      <point x="41" y="520" type="line" smooth="yes"/>
      <point x="28" y="520"/>
      <point x="18" y="511"/>
      <point x="18" y="497" type="curve" smooth="yes"/>
      <point x="18" y="465" type="line" smooth="yes"/>
      <point x="18" y="452"/>
      <point x="28" y="443"/>
      <point x="41" y="443" type="curve" smooth="yes"/>
      <point x="119" y="443" type="line"/>
      <point x="119" y="175" type="line" smooth="yes"/>
      <point x="119" y="69"/>
      <point x="162" y="0"/>
      <point x="274" y="0" type="curve" smooth="yes"/>
    </contour>
  </outline>
</glyph>
<glyph name="x" format="1">
  <advance width="537"/>
  <unicode hex="0078"/>
  <outline>
    <contour>
      <point x="99" y="0" type="line" smooth="yes"/>
      <point x="112" y="0"/>
      <point x="119" y="9"/>
      <point x="124" y="15" type="curve" smooth="yes"/>
      <point x="268" y="200" type="line"/>
      <point x="410" y="15" type="line" smooth="yes"/>
      <point x="415" y="8"/>
      <point x="422" y="0"/>
      <point x="436" y="0" type="curve" smooth="yes"/>
      <point x="486" y="0" type="line" smooth="yes"/>
      <point x="497" y="0"/>
      <point x="506" y="9"/>
      <point x="506" y="21" type="curve" smooth="yes"/>
      <point x="506" y="26"/>
      <point x="505" y="31"/>
      <point x="499" y="40" type="curve" smooth="yes"/>
      <point x="325" y="264" type="line"/>
      <point x="490" y="481" type="line" smooth="yes"/>
      <point x="496" y="489"/>
      <point x="497" y="494"/>
      <point x="497" y="500" type="curve" smooth="yes"/>
      <point x="497" y="511"/>
      <point x="488" y="520"/>
      <point x="477" y="520" type="curve" smooth="yes"/>
      <point x="431" y="520" type="line" smooth="yes"/>
      <point x="417" y="520"/>
      <point x="410" y="510"/>
      <point x="405" y="504" type="curve" smooth="yes"/>
      <point x="270" y="329" type="line"/>
      <point x="135" y="504" type="line" smooth="yes"/>
      <point x="130" y="511"/>
      <point x="123" y="520"/>
      <point x="109" y="520" type="curve" smooth="yes"/>
      <point x="61" y="520" type="line" smooth="yes"/>
      <point x="50" y="520"/>
      <point x="41" y="511"/>
      <point x="41" y="499" type="curve" smooth="yes"/>
      <point x="41" y="494"/>
      <point x="42" y="489"/>
      <point x="48" y="481" type="curve" smooth="yes"/>
      <point x="211" y="266" type="line"/>
      <point x="37" y="40" type="line" smooth="yes"/>
      <point x="31" y="31"/>
      <point x="30" y="25"/>
      <point x="30" y="21" type="curve" smooth="yes"/>
      <point x="30" y="9"/>
      <point x="39" y="0"/>
      <point x="51" y="0" type="curve" smooth="yes"/>
    </contour>
  </outline>
</glyph>
<glyph name="y" format="1">
  <advance width="549"/>
  <unicode hex="0079"/>
  <outline>
    <contour>
      <point x="209" y="-190" type="line" smooth="yes"/>
      <point x="223" y="-190"/>
      <point x="230" y="-182"/>
      <point x="234" y="-174" type="curve" smooth="yes"/>
      <point x="518" y="482" type="line"/>
      <point x="521" y="491"/>
      <point x="523" y="495"/>
      <point x="523" y="500" type="curve" smooth="yes"/>
      <point x="523" y="511"/>
      <point x="514" y="520"/>
      <point x="503" y="520" type="curve" smooth="yes"/>
      <point x="458" y="520" type="line" smooth="yes"/>
      <point x="444" y="520"/>
      <point x="437" y="512"/>
      <point x="433" y="504" type="curve" smooth="yes"/>
      <point x="276" y="136" type="line"/>
      <point x="122" y="504" type="line" smooth="yes"/>
      <point x="118" y="512"/>
      <point x="112" y="520"/>
      <point x="98" y="520" type="curve" smooth="yes"/>
      <point x="52" y="520" type="line" smooth="yes"/>
      <point x="41" y="520"/>
      <point x="31" y="511"/>
      <point x="31" y="499" type="curve" smooth="yes"/>
      <point x="31" y="495"/>
      <point x="33" y="490"/>
      <point x="36" y="482" type="curve" smooth="yes"/>
      <point x="228" y="31" type="line"/>
      <point x="150" y="-152" type="line" smooth="yes"/>
      <point x="146" y="-161"/>
      <point x="145" y="-165"/>
      <point x="145" y="-170" type="curve" smooth="yes"/>
      <point x="145" y="-181"/>
      <point x="154" y="-190"/>
      <point x="165" y="-190" type="curve" smooth="yes"/>
    </contour>
  </outline>
</glyph>
<glyph name="z" format="1">
  <advance width="507"/>
  <unicode hex="007A"/>
  <outline>
    <contour>
      <point x="447" y="0" type="line" smooth="yes"/>
      <point x="461" y="0"/>
      <point x="470" y="10"/>
      <point x="470" y="23" type="curve" smooth="yes"/>
      <point x="470" y="54" type="line" smooth="yes"/>
      <point x="470" y="68"/>
      <point x="461" y="77"/>
      <point x="447" y="77" type="curve" smooth="yes"/>
      <point x="161" y="77" type="line"/>
      <point x="436" y="431" type="line" smooth="yes"/>
      <point x="443" y="441"/>
      <point x="450" y="451"/>
      <point x="450" y="462" type="curve" smooth="yes"/>
      <point x="450" y="497" type="line" smooth="yes"/>
      <point x="450" y="511"/>
      <point x="440" y="520"/>
      <point x="427" y="520" type="curve" smooth="yes"/>
      <point x="73" y="520" type="line" smooth="yes"/>
      <point x="60" y="520"/>
      <point x="51" y="511"/>
      <point x="51" y="497" type="curve" smooth="yes"/>
      <point x="51" y="466" type="line" smooth="yes"/>
      <point x="51" y="453"/>
      <point x="60" y="443"/>
      <point x="73" y="443" type="curve" smooth="yes"/>
      <point x="334" y="443" type="line"/>
      <point x="55" y="88" type="line" smooth="yes"/>
      <point x="48" y="78"/>
      <point x="41" y="68"/>
      <point x="41" y="56" type="curve" smooth="yes"/>
      <point x="41" y="23" type="line" smooth="yes"/>
      <point x="41" y="10"/>
      <point x="51" y="0"/>
      <point x="64" y="0" type="curve" smooth="yes"/>
    </contour>
  </outline>
</glyph>
<glyph name="currency" format="1">
  <advance width="587"/>
  <unicode hex="00A4"/>
  <outline>
    <contour>
      <point x="104" y="70"/>
      <point x="118" y="70"/>
      <point x="127" y="79" type="curve" smooth="yes"/>
      <point x="170" y="123" type="line"/>
      <point x="204" y="97"/>
      <point x="247" y="83"/>
      <point x="293" y="83" type="curve" smooth="yes"/>
      <point x="339" y="83"/>
      <point x="382" y="97"/>
      <point x="417" y="123" type="curve"/>
      <point x="460" y="79" type="line" smooth="yes"/>
      <point x="469" y="70"/>
      <point x="482" y="70"/>
      <point x="492" y="79" type="curve" smooth="yes"/>
      <point x="514" y="102" type="line" smooth="yes"/>
      <point x="523" y="111"/>
      <point x="523" y="125"/>
      <point x="514" y="134" type="curve" smooth="yes"/>
      <point x="471" y="177" type="line"/>
      <point x="495" y="211"/>
      <point x="510" y="253"/>
      <point x="510" y="300" type="curve" smooth="yes"/>
      <point x="510" y="346"/>
      <point x="495" y="389"/>
      <point x="471" y="424" type="curve"/>
      <point x="514" y="466" type="line" smooth="yes"/>
      <point x="523" y="476"/>
      <point x="523" y="489"/>
      <point x="514" y="499" type="curve" smooth="yes"/>
      <point x="492" y="521" type="line" smooth="yes"/>
      <point x="482" y="530"/>
      <point x="469" y="530"/>
      <point x="460" y="521" type="curve" smooth="yes"/>
      <point x="417" y="477" type="line"/>
      <point x="382" y="502"/>
      <point x="339" y="517"/>
      <point x="293" y="517" type="curve" smooth="yes"/>
      <point x="247" y="517"/>
      <point x="204" y="502"/>
      <point x="170" y="477" type="curve"/>
      <point x="127" y="521" type="line" smooth="yes"/>
      <point x="118" y="530"/>
      <point x="104" y="530"/>
      <point x="95" y="521" type="curve" smooth="yes"/>
      <point x="72" y="499" type="line" smooth="yes"/>
      <point x="63" y="489"/>
      <point x="63" y="476"/>
      <point x="72" y="466" type="curve" smooth="yes"/>
      <point x="116" y="424" type="line"/>
      <point x="91" y="389"/>
      <point x="77" y="346"/>
      <point x="77" y="300" type="curve" smooth="yes"/>
      <point x="77" y="253"/>
      <point x="91" y="211"/>
      <point x="116" y="177" type="curve"/>
      <point x="72" y="134" type="line" smooth="yes"/>
      <point x="63" y="125"/>
      <point x="63" y="111"/>
      <point x="72" y="102" type="curve" smooth="yes"/>
      <point x="95" y="79" type="line" smooth="yes"/>
    </contour>
    <contour>
      <point x="217" y="160"/>
      <point x="154" y="223"/>
      <point x="154" y="300" type="curve" smooth="yes"/>
      <point x="154" y="378"/>
      <point x="217" y="440"/>
      <point x="294" y="440" type="curve" smooth="yes"/>
      <point x="372" y="440"/>
      <point x="434" y="378"/>
      <point x="434" y="300" type="curve" smooth="yes"/>
      <point x="434" y="223"/>
      <point x="372" y="160"/>
      <point x="294" y="160" type="curve" smooth="yes"/>
    </contour>
  </outline>
</glyph>
<glyph name="guillemetleft" format="1">
  <advance width="608"/>
  <unicode hex="00AB"/>
  <outline>
    <contour>
      <point x="542" y="85"/>
      <point x="550" y="94"/>
      <point x="550" y="106" type="curve" smooth="yes"/>
      <point x="550" y="143" type="line" smooth="yes"/>
      <point x="550" y="161"/>
      <point x="545" y="168"/>
      <point x="532" y="181" type="curve" smooth="yes"/>
      <point x="380" y="329" type="line"/>
      <point x="532" y="477" type="line" smooth="yes"/>
      <point x="545" y="490"/>
      <point x="550" y="498"/>
      <point x="550" y="515" type="curve" smooth="yes"/>
      <point x="550" y="552" type="line" smooth="yes"/>
      <point x="550" y="564"/>
      <point x="542" y="573"/>
      <point x="530" y="573" type="curve" smooth="yes"/>
      <point x="523" y="573"/>
      <point x="515" y="569"/>
      <point x="507" y="562" type="curve" smooth="yes"/>
      <point x="315" y="375" type="line" smooth="yes"/>
      <point x="302" y="363"/>
      <point x="299" y="352"/>
      <point x="298" y="341" type="curve" smooth="yes"/>
      <point x="298" y="317" type="line" smooth="yes"/>
      <point x="299" y="306"/>
      <point x="302" y="295"/>
      <point x="315" y="283" type="curve" smooth="yes"/>
      <point x="507" y="96" type="line" smooth="yes"/>
      <point x="515" y="90"/>
      <point x="523" y="85"/>
      <point x="530" y="85" type="curve" smooth="yes"/>
    </contour>
    <contour>
      <point x="287" y="85"/>
      <point x="295" y="94"/>
      <point x="295" y="106" type="curve" smooth="yes"/>
      <point x="295" y="143" type="line" smooth="yes"/>
      <point x="295" y="161"/>
      <point x="290" y="168"/>
      <point x="277" y="181" type="curve" smooth="yes"/>
      <point x="125" y="329" type="line"/>
      <point x="277" y="477" type="line" smooth="yes"/>
      <point x="290" y="490"/>
      <point x="295" y="498"/>
      <point x="295" y="515" type="curve" smooth="yes"/>
      <point x="295" y="552" type="line" smooth="yes"/>
      <point x="295" y="564"/>
      <point x="287" y="573"/>
      <point x="275" y="573" type="curve" smooth="yes"/>
      <point x="268" y="573"/>
      <point x="260" y="569"/>
      <point x="252" y="562" type="curve" smooth="yes"/>
      <point x="60" y="375" type="line" smooth="yes"/>
      <point x="47" y="363"/>
      <point x="44" y="352"/>
      <point x="43" y="341" type="curve"/>
      <point x="43" y="317" type="line" smooth="yes"/>
      <point x="44" y="306"/>
      <point x="47" y="295"/>
      <point x="60" y="283" type="curve" smooth="yes"/>
      <point x="252" y="96" type="line" smooth="yes"/>
      <point x="260" y="90"/>
      <point x="268" y="85"/>
      <point x="275" y="85" type="curve" smooth="yes"/>
    </contour>
  </outline>
</glyph>
<glyph name="macron" format="1">
  <advance width="398"/>
  <unicode hex="00AF"/>
  <outline>
    <contour>
      <point x="309" y="618" type="line" smooth="yes"/>
      <point x="322" y="618"/>
      <point x="332" y="627"/>
      <point x="332" y="640" type="curve" smooth="yes"/>
      <point x="332" y="669" type="line" smooth="yes"/>
      <point x="332" y="682"/>
      <point x="322" y="691"/>
      <point x="309" y="691" type="curve" smooth="yes"/>
      <point x="89" y="691" type="line" smooth="yes"/>
      <point x="76" y="691"/>
      <point x="67" y="682"/>
      <point x="67" y="669" type="curve" smooth="yes"/>
      <point x="67" y="640" type="line" smooth="yes"/>
      <point x="67" y="627"/>
      <point x="76" y="618"/>
      <point x="89" y="618" type="curve" smooth="yes"/>
    </contour>
  </outline>
</glyph>
<glyph name="degree" format="1">
  <advance width="387"/>
  <unicode hex="00B0"/>
  <outline>
    <contour>
      <point x="274" y="428"/>
      <point x="339" y="489"/>
      <point x="339" y="569" type="curve" smooth="yes"/>
      <point x="339" y="650"/>
      <point x="274" y="710"/>
      <point x="193" y="710" type="curve" smooth="yes"/>
      <point x="113" y="710"/>
      <point x="47" y="650"/>
      <point x="47" y="569" type="curve" smooth="yes"/>
      <point x="47" y="489"/>
      <point x="113" y="428"/>
      <point x="193" y="428" type="curve" smooth="yes"/>
    </contour>
    <contour>
      <point x="148" y="493"/>
      <point x="117" y="524"/>
      <point x="117" y="569" type="curve" smooth="yes"/>
      <point x="117" y="614"/>
      <point x="148" y="645"/>
      <point x="193" y="645" type="curve" smooth="yes"/>
      <point x="238" y="645"/>
      <point x="269" y="614"/>
      <point x="269" y="569" type="curve" smooth="yes"/>
      <point x="269" y="524"/>
      <point x="238" y="493"/>
      <point x="193" y="493" type="curve" smooth="yes"/>
    </contour>
  </outline>
</glyph>
<glyph name="acute" format="1">
  <advance width="334"/>
  <unicode hex="00B4"/>
  <outline>
    <contour>
      <point x="114" y="595" type="line" smooth="yes"/>
      <point x="129" y="595"/>
      <point x="136" y="597"/>
      <point x="147" y="606" type="curve" smooth="yes"/>
      <point x="262" y="701" type="line" smooth="yes"/>
      <point x="265" y="704"/>
      <point x="267" y="708"/>
      <point x="267" y="713" type="curve" smooth="yes"/>
      <point x="267" y="725"/>
      <point x="260" y="732"/>
      <point x="248" y="732" type="curve" smooth="yes"/>
      <point x="183" y="732" type="line" smooth="yes"/>
      <point x="164" y="732"/>
      <point x="158" y="727"/>
      <point x="146" y="714" type="curve"/>
      <point x="72" y="624" type="line" smooth="yes"/>
      <point x="69" y="621"/>
      <point x="67" y="616"/>
      <point x="67" y="611" type="curve" smooth="yes"/>
      <point x="67" y="601"/>
      <point x="73" y="595"/>
      <point x="83" y="595" type="curve" smooth="yes"/>
    </contour>
  </outline>
</glyph>
<glyph name="Thorn" format="1">
  <advance width="645"/>
  <unicode hex="00DE"/>
  <outline>
    <contour>
      <point x="159" y="0" type="line" smooth="yes"/>
      <point x="173" y="0"/>
      <point x="183" y="10"/>
      <point x="183" y="23" type="curve" smooth="yes"/>
      <point x="183" y="139" type="line"/>
      <point x="362" y="139" type="line" smooth="yes"/>
      <point x="510" y="139"/>
      <point x="605" y="210"/>
      <point x="605" y="351" type="curve" smooth="yes"/>
      <point x="605" y="492"/>
      <point x="510" y="564"/>
      <point x="362" y="564" type="curve"/>
      <point x="183" y="564" type="line"/>
      <point x="183" y="677" type="line" smooth="yes"/>
      <point x="183" y="691"/>
      <point x="173" y="700"/>
      <point x="160" y="700" type="curve" smooth="yes"/>
      <point x="110" y="700" type="line"/>
      <point x="97" y="700"/>
      <point x="87" y="691"/>
      <point x="87" y="677" type="curve" smooth="yes"/>
      <point x="87" y="23" type="line" smooth="yes"/>
      <point x="87" y="10"/>
      <point x="97" y="0"/>
      <point x="110" y="0" type="curve" smooth="yes"/>
    </contour>
    <contour>
      <point x="182" y="483" type="line"/>
      <point x="358" y="483" type="line" smooth="yes"/>
      <point x="461" y="483"/>
      <point x="509" y="435"/>
      <point x="509" y="351" type="curve" smooth="yes"/>
      <point x="509" y="266"/>
      <point x="458" y="220"/>
      <point x="358" y="220" type="curve" smooth="yes"/>
      <point x="182" y="220" type="line"/>
    </contour>
  </outline>
</glyph>
<glyph name="ccedilla" format="1">
  <advance width="550"/>
  <unicode hex="00E7"/>
  <outline>
    <contour>
      <point x="343" y="-221"/>
      <point x="375" y="-181"/>
      <point x="375" y="-132" type="curve" smooth="yes"/>
      <point x="375" y="-83"/>
      <point x="344" y="-48"/>
      <point x="299" y="-48" type="curve" smooth="yes"/>
      <point x="285" y="-48"/>
      <point x="270" y="-51"/>
      <point x="262" y="-56" type="curve"/>
      <point x="284" y="-10" type="line"/>
      <point x="437" y="-10"/>
      <point x="501" y="88"/>
      <point x="504" y="155" type="curve" smooth="yes"/>
      <point x="505" y="168"/>
      <point x="494" y="178"/>
      <point x="481" y="178" type="curve"/>
      <point x="437" y="178" type="line"/>
      <point x="423" y="178"/>
      <point x="418" y="172"/>
      <point x="412" y="157" type="curve" smooth="yes"/>
      <point x="388" y="90"/>
      <point x="346" y="67"/>
      <point x="284" y="67" type="curve" smooth="yes"/>
      <point x="203" y="67"/>
      <point x="147" y="114"/>
      <point x="144" y="225" type="curve" smooth="yes"/>
      <point x="143" y="245"/>
      <point x="143" y="274"/>
      <point x="144" y="295" type="curve" smooth="yes"/>
      <point x="147" y="406"/>
      <point x="203" y="453"/>
      <point x="284" y="453" type="curve" smooth="yes"/>
      <point x="345" y="453"/>
      <point x="388" y="430"/>
      <point x="412" y="363" type="curve" smooth="yes"/>
      <point x="418" y="348"/>
      <point x="423" y="342"/>
      <point x="437" y="342" type="curve"/>
      <point x="481" y="342" type="line"/>
      <point x="494" y="342"/>
      <point x="505" y="352"/>
      <point x="504" y="365" type="curve" smooth="yes"/>
      <point x="501" y="434"/>
      <point x="436" y="530"/>
      <point x="283" y="530" type="curve" smooth="yes"/>
      <point x="140" y="530"/>
      <point x="57" y="444"/>
      <point x="52" y="300" type="curve" smooth="yes"/>
      <point x="51" y="280"/>
      <point x="51" y="240"/>
      <point x="52" y="220" type="curve" smooth="yes"/>
      <point x="56" y="95"/>
      <point x="119" y="14"/>
      <point x="229" y="-5" type="curve"/>
      <point x="209" y="-53" type="line"/>
      <point x="204" y="-64"/>
      <point x="197" y="-75"/>
      <point x="205" y="-83" type="curve"/>
      <point x="222" y="-101" type="line"/>
      <point x="236" y="-117"/>
      <point x="251" y="-98"/>
      <point x="281" y="-98" type="curve" smooth="yes"/>
      <point x="303" y="-98"/>
      <point x="321" y="-111"/>
      <point x="321" y="-133" type="curve" smooth="yes"/>
      <point x="321" y="-156"/>
      <point x="303" y="-171"/>
      <point x="281" y="-171" type="curve" smooth="yes"/>
      <point x="238" y="-171"/>
      <point x="232" y="-139"/>
      <point x="215" y="-155" type="curve"/>
      <point x="199" y="-169" type="line"/>
      <point x="182" y="-185"/>
      <point x="224" y="-219"/>
      <point x="281" y="-220" type="curve" smooth="yes"/>
    </contour>
  </outline>
</glyph>
<glyph name="divide" format="1">
  <advance width="557"/>
  <unicode hex="00F7"/>
  <outline>
    <contour>
      <point x="469" y="263" type="line" smooth="yes"/>
      <point x="482" y="263"/>
      <point x="492" y="272"/>
      <point x="492" y="285" type="curve" smooth="yes"/>
      <point x="492" y="316" type="line" smooth="yes"/>
      <point x="492" y="330"/>
      <point x="482" y="339"/>
      <point x="469" y="339" type="curve" smooth="yes"/>
      <point x="89" y="339" type="line" smooth="yes"/>
      <point x="76" y="339"/>
      <point x="66" y="330"/>
      <point x="66" y="316" type="curve" smooth="yes"/>
      <point x="66" y="285" type="line" smooth="yes"/>
      <point x="66" y="272"/>
      <point x="76" y="263"/>
      <point x="89" y="263" type="curve" smooth="yes"/>
    </contour>
    <contour>
      <point x="309" y="71" type="line" smooth="yes"/>
      <point x="322" y="71"/>
      <point x="332" y="80"/>
      <point x="332" y="94" type="curve" smooth="yes"/>
      <point x="332" y="153" type="line" smooth="yes"/>
      <point x="332" y="166"/>
      <point x="322" y="176"/>
      <point x="309" y="176" type="curve" smooth="yes"/>
      <point x="248" y="176" type="line" smooth="yes"/>
      <point x="235" y="176"/>
      <point x="225" y="166"/>
      <point x="225" y="153" type="curve" smooth="yes"/>
      <point x="225" y="94" type="line" smooth="yes"/>
      <point x="225" y="80"/>
      <point x="235" y="71"/>
      <point x="248" y="71" type="curve" smooth="yes"/>
    </contour>
    <contour>
      <point x="309" y="426" type="line" smooth="yes"/>
      <point x="322" y="426"/>
      <point x="332" y="436"/>
      <point x="332" y="449" type="curve" smooth="yes"/>
      <point x="332" y="508" type="line" smooth="yes"/>
      <point x="332" y="522"/>
      <point x="322" y="532"/>
      <point x="309" y="532" type="curve" smooth="yes"/>
      <point x="248" y="532" type="line" smooth="yes"/>
      <point x="235" y="532"/>
      <point x="225" y="522"/>
      <point x="225" y="508" type="curve" smooth="yes"/>
      <point x="225" y="449" type="line" smooth="yes"/>
      <point x="225" y="436"/>
      <point x="235" y="426"/>
      <point x="248" y="426" type="curve" smooth="yes"/>
    </contour>
  </outline>
</glyph>
<glyph name="dcroat" format="1">
  <advance width="594"/>
  <unicode hex="0111"/>
  <outline>
    <contour>
      <point x="346" y="-10"/>
      <point x="398" y="23"/>
      <point x="430" y="67" type="curve"/>
      <point x="430" y="23" type="line" smooth="yes"/>
      <point x="430" y="10"/>
      <point x="440" y="0"/>
      <point x="453" y="0" type="curve" smooth="yes"/>
      <point x="496" y="0" type="line" smooth="yes"/>
      <point x="509" y="0"/>
      <point x="519" y="10"/>
      <point x="519" y="23" type="curve" smooth="yes"/>
      <point x="519" y="567" type="line"/>
      <point x="572" y="567" type="line" smooth="yes"/>
      <point x="585" y="567"/>
      <point x="595" y="577"/>
      <point x="595" y="590" type="curve" smooth="yes"/>
      <point x="595" y="610" type="line" smooth="yes"/>
      <point x="595" y="624"/>
      <point x="585" y="633"/>
      <point x="572" y="633" type="curve" smooth="yes"/>
      <point x="519" y="633" type="line"/>
      <point x="519" y="687" type="line" smooth="yes"/>
      <point x="519" y="701"/>
      <point x="509" y="710"/>
      <point x="496" y="710" type="curve" smooth="yes"/>
      <point x="451" y="710" type="line" smooth="yes"/>
      <point x="437" y="710"/>
      <point x="428" y="701"/>
      <point x="428" y="687" type="curve" smooth="yes"/>
      <point x="428" y="633" type="line"/>
      <point x="375" y="633" type="line" smooth="yes"/>
      <point x="361" y="633"/>
      <point x="352" y="624"/>
      <point x="352" y="610" type="curve" smooth="yes"/>
      <point x="352" y="590" type="line" smooth="yes"/>
      <point x="352" y="577"/>
      <point x="361" y="567"/>
      <point x="375" y="567" type="curve" smooth="yes"/>
      <point x="428" y="567" type="line"/>
      <point x="428" y="456" type="line"/>
      <point x="395" y="498"/>
      <point x="344" y="530"/>
      <point x="266" y="530" type="curve" smooth="yes"/>
      <point x="100" y="530"/>
      <point x="56" y="397"/>
      <point x="52" y="290" type="curve" smooth="yes"/>
      <point x="51" y="268"/>
      <point x="51" y="252"/>
      <point x="52" y="230" type="curve" smooth="yes"/>
      <point x="56" y="122"/>
      <point x="100" y="-10"/>
      <point x="266" y="-10" type="curve" smooth="yes"/>
    </contour>
    <contour>
      <point x="180" y="68"/>
      <point x="146" y="145"/>
      <point x="143" y="231" type="curve" smooth="yes"/>
      <point x="142" y="251"/>
      <point x="142" y="269"/>
      <point x="143" y="289" type="curve" smooth="yes"/>
      <point x="146" y="375"/>
      <point x="180" y="452"/>
      <point x="284" y="452" type="curve" smooth="yes"/>
      <point x="382" y="452"/>
      <point x="425" y="374"/>
      <point x="427" y="302" type="curve" smooth="yes"/>
      <point x="429" y="280"/>
      <point x="429" y="246"/>
      <point x="427" y="225" type="curve" smooth="yes"/>
      <point x="425" y="150"/>
      <point x="385" y="68"/>
      <point x="284" y="68" type="curve" smooth="yes"/>
    </contour>
  </outline>
</glyph>
<glyph name="Eogonek" format="1">
  <advance width="605"/>
  <unicode hex="0118"/>
  <outline>
    <contour>
      <point x="529" y="-220" type="line" smooth="yes"/>
      <point x="543" y="-220"/>
      <point x="552" y="-211"/>
      <point x="552" y="-197" type="curve" smooth="yes"/>
      <point x="552" y="-175" type="line" smooth="yes"/>
      <point x="552" y="-162"/>
      <point x="543" y="-152"/>
      <point x="529" y="-152" type="curve" smooth="yes"/>
      <point x="515" y="-152" type="line" smooth="yes"/>
      <point x="472" y="-152"/>
      <point x="443" y="-123"/>
      <point x="443" y="-77" type="curve" smooth="yes"/>
      <point x="443" y="-32"/>
      <point x="469" y="-3"/>
      <point x="509" y="0" type="curve" smooth="yes"/>
      <point x="528" y="0" type="line" smooth="yes"/>
      <point x="543" y="0"/>
      <point x="552" y="10"/>
      <point x="552" y="23" type="curve" smooth="yes"/>
      <point x="552" y="59" type="line" smooth="yes"/>
      <point x="552" y="73"/>
      <point x="543" y="83"/>
      <point x="528" y="83" type="curve" smooth="yes"/>
      <point x="180" y="83" type="line"/>
      <point x="180" y="314" type="line"/>
      <point x="498" y="314" type="line" smooth="yes"/>
      <point x="513" y="314"/>
      <point x="522" y="323"/>
      <point x="522" y="337" type="curve" smooth="yes"/>
      <point x="522" y="371" type="line" smooth="yes"/>
      <point x="522" y="385"/>
      <point x="513" y="395"/>
      <point x="498" y="395" type="curve" smooth="yes"/>
      <point x="180" y="395" type="line"/>
      <point x="180" y="618" type="line"/>
      <point x="520" y="618" type="line" smooth="yes"/>
      <point x="535" y="618"/>
      <point x="544" y="627"/>
      <point x="544" y="640" type="curve" smooth="yes"/>
      <point x="544" y="676" type="line" smooth="yes"/>
      <point x="544" y="691"/>
      <point x="535" y="700"/>
      <point x="520" y="700" type="curve" smooth="yes"/>
      <point x="110" y="700" type="line" smooth="yes"/>
      <point x="97" y="700"/>
      <point x="87" y="691"/>
      <point x="87" y="676" type="curve" smooth="yes"/>
      <point x="87" y="23" type="line" smooth="yes"/>
      <point x="87" y="10"/>
      <point x="97" y="0"/>
      <point x="110" y="0" type="curve" smooth="yes"/>
      <point x="391" y="0" type="line"/>
      <point x="379" y="-21"/>
      <point x="372" y="-47"/>
      <point x="372" y="-77" type="curve" smooth="yes"/>
      <point x="372" y="-163"/>
      <point x="423" y="-220"/>
      <point x="511" y="-220" type="curve" smooth="yes"/>
    </contour>
  </outline>
</glyph>
<glyph name="IJ" format="1">
  <advance width="625"/>
  <unicode hex="0132"/>
  <outline>
    <contour>
      <point x="451" y="-10"/>
      <point x="544" y="90"/>
      <point x="544" y="256" type="curve" smooth="yes"/>
      <point x="544" y="676" type="line" smooth="yes"/>
      <point x="544" y="691"/>
      <point x="534" y="700"/>
      <point x="520" y="700" type="curve" smooth="yes"/>
      <point x="471" y="700" type="line" smooth="yes"/>
      <point x="458" y="700"/>
      <point x="448" y="691"/>
      <point x="448" y="677" type="curve"/>
      <point x="448" y="263" type="line" smooth="yes"/>
      <point x="448" y="150"/>
      <point x="393" y="76"/>
      <point x="286" y="76" type="curve" smooth="yes"/>
      <point x="273" y="76"/>
      <point x="263" y="66"/>
      <point x="263" y="52" type="curve" smooth="yes"/>
      <point x="263" y="13" type="line" smooth="yes"/>
      <point x="263" y="-1"/>
      <point x="273" y="-10"/>
      <point x="286" y="-10" type="curve" smooth="yes"/>
    </contour>
    <contour>
      <point x="160" y="0" type="line" smooth="yes"/>
      <point x="173" y="0"/>
      <point x="183" y="10"/>
      <point x="183" y="23" type="curve" smooth="yes"/>
      <point x="183" y="677" type="line" smooth="yes"/>
      <point x="183" y="691"/>
      <point x="173" y="700"/>
      <point x="160" y="700" type="curve" smooth="yes"/>
      <point x="110" y="700" type="line" smooth="yes"/>
      <point x="97" y="700"/>
      <point x="87" y="691"/>
      <point x="87" y="677" type="curve" smooth="yes"/>
      <point x="87" y="23" type="line" smooth="yes"/>
      <point x="87" y="10"/>
      <point x="97" y="0"/>
      <point x="110" y="0" type="curve" smooth="yes"/>
    </contour>
  </outline>
</glyph>
<glyph name="Lslash" format="1">
  <advance width="569"/>
  <unicode hex="0141"/>
  <outline>
    <contour>
      <point x="525" y="0" type="line" smooth="yes"/>
      <point x="538" y="0"/>
      <point x="548" y="10"/>
      <point x="548" y="23" type="curve" smooth="yes"/>
      <point x="548" y="61" type="line" smooth="yes"/>
      <point x="548" y="75"/>
      <point x="538" y="84"/>
      <point x="525" y="84" type="curve" smooth="yes"/>
      <point x="190" y="84" type="line"/>
      <point x="190" y="318" type="line"/>
      <point x="345" y="379" type="line" smooth="yes"/>
      <point x="361" y="385"/>
      <point x="367" y="389"/>
      <point x="367" y="405" type="curve" smooth="yes"/>
      <point x="367" y="439" type="line" smooth="yes"/>
      <point x="367" y="451"/>
      <point x="359" y="457"/>
      <point x="348" y="457" type="curve" smooth="yes"/>
      <point x="344" y="457"/>
      <point x="340" y="456"/>
      <point x="335" y="454" type="curve" smooth="yes"/>
      <point x="190" y="398" type="line"/>
      <point x="190" y="677" type="line" smooth="yes"/>
      <point x="190" y="691"/>
      <point x="181" y="700"/>
      <point x="167" y="700" type="curve" smooth="yes"/>
      <point x="118" y="700" type="line" smooth="yes"/>
      <point x="105" y="700"/>
      <point x="95" y="691"/>
      <point x="95" y="677" type="curve" smooth="yes"/>
      <point x="95" y="361" type="line"/>
      <point x="34" y="337" type="line" smooth="yes"/>
      <point x="18" y="331"/>
      <point x="12" y="326"/>
      <point x="12" y="311" type="curve" smooth="yes"/>
      <point x="12" y="277" type="line" smooth="yes"/>
      <point x="12" y="265"/>
      <point x="20" y="258"/>
      <point x="31" y="258" type="curve" smooth="yes"/>
      <point x="35" y="258"/>
      <point x="39" y="259"/>
      <point x="44" y="261" type="curve" smooth="yes"/>
      <point x="95" y="281" type="line"/>
      <point x="95" y="23" type="line" smooth="yes"/>
      <point x="95" y="10"/>
      <point x="105" y="0"/>
      <point x="118" y="0" type="curve" smooth="yes"/>
    </contour>
  </outline>
</glyph>
<glyph name="lslash" format="1">
  <advance width="273"/>
  <unicode hex="0142"/>
  <outline>
    <contour>
      <point x="159" y="0" type="line" smooth="yes"/>
      <point x="173" y="0"/>
      <point x="182" y="10"/>
      <point x="182" y="23" type="curve" smooth="yes"/>
      <point x="182" y="337" type="line"/>
      <point x="228" y="356" type="line" smooth="yes"/>
      <point x="244" y="362"/>
      <point x="250" y="367"/>
      <point x="250" y="382" type="curve" smooth="yes"/>
      <point x="250" y="416" type="line" smooth="yes"/>
      <point x="250" y="428"/>
      <point x="242" y="434"/>
      <point x="231" y="434" type="curve" smooth="yes"/>
      <point x="227" y="434"/>
      <point x="223" y="433"/>
      <point x="218" y="431" type="curve" smooth="yes"/>
      <point x="182" y="417" type="line"/>
      <point x="182" y="687" type="line" smooth="yes"/>
      <point x="182" y="701"/>
      <point x="173" y="710"/>
      <point x="159" y="710" type="curve" smooth="yes"/>
      <point x="115" y="710" type="line" smooth="yes"/>
      <point x="102" y="710"/>
      <point x="92" y="701"/>
      <point x="92" y="687" type="curve" smooth="yes"/>
      <point x="92" y="383" type="line"/>
      <point x="46" y="365" type="line" smooth="yes"/>
      <point x="30" y="359"/>
      <point x="24" y="355"/>
      <point x="24" y="339" type="curve" smooth="yes"/>
      <point x="24" y="305" type="line" smooth="yes"/>
      <point x="24" y="293"/>
      <point x="32" y="287"/>
      <point x="43" y="287" type="curve" smooth="yes"/>
      <point x="47" y="287"/>
      <point x="51" y="288"/>
      <point x="56" y="290" type="curve" smooth="yes"/>
      <point x="92" y="303" type="line"/>
      <point x="92" y="23" type="line" smooth="yes"/>
      <point x="92" y="10"/>
      <point x="102" y="0"/>
      <point x="115" y="0" type="curve" smooth="yes"/>
    </contour>
  </outline>
</glyph>
<glyph name="eng" format="1">
  <advance width="604"/>
  <unicode hex="014B"/>
  <outline>
    <contour>
      <point x="355" y="-225" type="line" smooth="yes"/>
      <point x="487" y="-225"/>
      <point x="534" y="-150"/>
      <point x="534" y="-40" type="curve" smooth="yes"/>
      <point x="534" y="306" type="line" smooth="yes"/>
      <point x="534" y="438"/>
      <point x="462" y="530"/>
      <point x="332" y="530" type="curve" smooth="yes"/>
      <point x="248" y="530"/>
      <point x="200" y="498"/>
      <point x="164" y="453" type="curve"/>
      <point x="164" y="497" type="line" smooth="yes"/>
      <point x="164" y="511"/>
      <point x="155" y="520"/>
      <point x="141" y="520" type="curve" smooth="yes"/>
      <point x="98" y="520" type="line" smooth="yes"/>
      <point x="85" y="520"/>
      <point x="75" y="511"/>
      <point x="75" y="497" type="curve" smooth="yes"/>
      <point x="75" y="23" type="line" smooth="yes"/>
      <point x="75" y="10"/>
      <point x="85" y="0"/>
      <point x="98" y="0" type="curve" smooth="yes"/>
      <point x="144" y="0" type="line" smooth="yes"/>
      <point x="157" y="0"/>
      <point x="167" y="10"/>
      <point x="167" y="23" type="curve" smooth="yes"/>
      <point x="167" y="300" type="line" smooth="yes"/>
      <point x="167" y="395"/>
      <point x="222" y="452"/>
      <point x="307" y="452" type="curve" smooth="yes"/>
      <point x="395" y="452"/>
      <point x="442" y="395"/>
      <point x="442" y="300" type="curve" smooth="yes"/>
      <point x="442" y="-38" type="line" smooth="yes"/>
      <point x="442" y="-99"/>
      <point x="431" y="-143"/>
      <point x="356" y="-143" type="curve" smooth="yes"/>
      <point x="346" y="-143" type="line" smooth="yes"/>
      <point x="333" y="-143"/>
      <point x="324" y="-152"/>
      <point x="324" y="-166" type="curve"/>
      <point x="324" y="-202" type="line" smooth="yes"/>
      <point x="324" y="-216"/>
      <point x="333" y="-225"/>
      <point x="346" y="-225" type="curve" smooth="yes"/>
    </contour>
  </outline>
</glyph>
<glyph name="Uogonek" format="1">
  <advance width="700"/>
  <unicode hex="0172"/>
  <outline>
    <contour>
      <point x="435" y="-220" type="line"/>
      <point x="448" y="-220"/>
      <point x="458" y="-211"/>
      <point x="458" y="-197" type="curve"/>
      <point x="458" y="-175" type="line"/>
      <point x="458" y="-162"/>
      <point x="448" y="-152"/>
      <point x="435" y="-152" type="curve"/>
      <point x="421" y="-152" type="line"/>
      <point x="377" y="-152"/>
      <point x="349" y="-123"/>
      <point x="349" y="-77" type="curve" smooth="yes"/>
      <point x="349" y="-31"/>
      <point x="376" y="-14"/>
      <point x="418" y="-5" type="curve" smooth="yes"/>
      <point x="544" y="17"/>
      <point x="618" y="104"/>
      <point x="618" y="270" type="curve"/>
      <point x="618" y="676" type="line"/>
      <point x="618" y="691"/>
      <point x="609" y="700"/>
      <point x="595" y="700" type="curve"/>
      <point x="548" y="700" type="line"/>
      <point x="534" y="700"/>
      <point x="524" y="691"/>
      <point x="524" y="676" type="curve"/>
      <point x="524" y="268" type="line"/>
      <point x="524" y="135"/>
      <point x="457" y="74"/>
      <point x="350" y="74" type="curve" smooth="yes"/>
      <point x="242" y="74"/>
      <point x="175" y="135"/>
      <point x="175" y="268" type="curve"/>
      <point x="175" y="676" type="line"/>
      <point x="175" y="691"/>
      <point x="166" y="700"/>
      <point x="152" y="700" type="curve"/>
      <point x="104" y="700" type="line"/>
      <point x="91" y="700"/>
      <point x="81" y="691"/>
      <point x="81" y="676" type="curve"/>
      <point x="81" y="270" type="line"/>
      <point x="81" y="100"/>
      <point x="159" y="12"/>
      <point x="291" y="-6" type="curve"/>
      <point x="282" y="-23"/>
      <point x="278" y="-45"/>
      <point x="278" y="-77" type="curve" smooth="yes"/>
      <point x="278" y="-163"/>
      <point x="329" y="-220"/>
      <point x="417" y="-220" type="curve"/>
    </contour>
  </outline>
</glyph>
<glyph name="florin" format="1">
  <advance width="416"/>
  <unicode hex="0192"/>
  <outline>
    <contour>
      <point x="55" y="-225" type="line" smooth="yes"/>
      <point x="189" y="-225"/>
      <point x="230" y="-150"/>
      <point x="230" y="-40" type="curve" smooth="yes"/>
      <point x="230" y="443" type="line"/>
      <point x="359" y="443" type="line" smooth="yes"/>
      <point x="372" y="443"/>
      <point x="382" y="452"/>
      <point x="382" y="465" type="curve" smooth="yes"/>
      <point x="382" y="497" type="line" smooth="yes"/>
      <point x="382" y="511"/>
      <point x="372" y="520"/>
      <point x="359" y="520" type="curve" smooth="yes"/>
      <point x="230" y="520" type="line"/>
      <point x="230" y="565" type="line" smooth="yes"/>
      <point x="230" y="628"/>
      <point x="248" y="663"/>
      <point x="312" y="663" type="curve" smooth="yes"/>
      <point x="369" y="663" type="line" smooth="yes"/>
      <point x="383" y="663"/>
      <point x="392" y="672"/>
      <point x="392" y="685" type="curve" smooth="yes"/>
      <point x="392" y="717" type="line" smooth="yes"/>
      <point x="392" y="731"/>
      <point x="383" y="740"/>
      <point x="369" y="740" type="curve" smooth="yes"/>
      <point x="310" y="740" type="line" smooth="yes"/>
      <point x="185" y="740"/>
      <point x="141" y="672"/>
      <point x="141" y="570" type="curve" smooth="yes"/>
      <point x="141" y="520" type="line"/>
      <point x="56" y="520" type="line" smooth="yes"/>
      <point x="42" y="520"/>
      <point x="33" y="511"/>
      <point x="33" y="497" type="curve" smooth="yes"/>
      <point x="33" y="465" type="line" smooth="yes"/>
      <point x="33" y="452"/>
      <point x="42" y="443"/>
      <point x="56" y="443" type="curve" smooth="yes"/>
      <point x="141" y="443" type="line"/>
      <point x="141" y="-38" type="line" smooth="yes"/>
      <point x="141" y="-99"/>
      <point x="130" y="-143"/>
      <point x="55" y="-143" type="curve" smooth="yes"/>
      <point x="42" y="-143" type="line" smooth="yes"/>
      <point x="29" y="-143"/>
      <point x="19" y="-152"/>
      <point x="19" y="-166" type="curve" smooth="yes"/>
      <point x="19" y="-202" type="line"/>
      <point x="19" y="-216"/>
      <point x="29" y="-225"/>
      <point x="42" y="-225" type="curve" smooth="yes"/>
    </contour>
  </outline>
</glyph>
<glyph name="circumflex" format="1">
  <advance width="431"/>
  <unicode hex="02C6"/>
  <outline>
    <contour>
      <point x="107" y="595" type="line" smooth="yes"/>
      <point x="115" y="595"/>
      <point x="128" y="598"/>
      <point x="134" y="602" type="curve" smooth="yes"/>
      <point x="216" y="659" type="line"/>
      <point x="298" y="602" type="line" smooth="yes"/>
      <point x="304" y="598"/>
      <point x="317" y="595"/>
      <point x="326" y="595" type="curve" smooth="yes"/>
      <point x="351" y="595" type="line" smooth="yes"/>
      <point x="361" y="595"/>
      <point x="365" y="599"/>
      <point x="365" y="607" type="curve" smooth="yes"/>
      <point x="365" y="613"/>
      <point x="361" y="619"/>
      <point x="354" y="626" type="curve" smooth="yes"/>
      <point x="263" y="717" type="line" smooth="yes"/>
      <point x="249" y="731"/>
      <point x="241" y="732"/>
      <point x="230" y="732" type="curve" smooth="yes"/>
      <point x="202" y="732" type="line" smooth="yes"/>
      <point x="191" y="732"/>
      <point x="183" y="731"/>
      <point x="169" y="717" type="curve" smooth="yes"/>
      <point x="78" y="626" type="line" smooth="yes"/>
      <point x="71" y="619"/>
      <point x="67" y="613"/>
      <point x="67" y="607" type="curve" smooth="yes"/>
      <point x="67" y="599"/>
      <point x="71" y="595"/>
      <point x="81" y="595" type="curve" smooth="yes"/>
    </contour>
  </outline>
</glyph>
<glyph name="breve" format="1">
  <advance width="383"/>
  <unicode hex="02D8"/>
  <outline>
    <contour>
      <point x="283" y="590"/>
      <point x="312" y="650"/>
      <point x="312" y="713" type="curve" smooth="yes"/>
      <point x="312" y="723"/>
      <point x="305" y="732"/>
      <point x="293" y="732" type="curve" smooth="yes"/>
      <point x="265" y="732" type="line" smooth="yes"/>
      <point x="253" y="732"/>
      <point x="246" y="723"/>
      <point x="246" y="713" type="curve" smooth="yes"/>
      <point x="246" y="681"/>
      <point x="235" y="649"/>
      <point x="191" y="649" type="curve" smooth="yes"/>
      <point x="148" y="649"/>
      <point x="137" y="681"/>
      <point x="137" y="713" type="curve" smooth="yes"/>
      <point x="137" y="723"/>
      <point x="130" y="732"/>
      <point x="118" y="732" type="curve" smooth="yes"/>
      <point x="90" y="732" type="line" smooth="yes"/>
      <point x="78" y="732"/>
      <point x="71" y="723"/>
      <point x="71" y="713" type="curve" smooth="yes"/>
      <point x="71" y="650"/>
      <point x="100" y="590"/>
      <point x="191" y="590" type="curve" smooth="yes"/>
    </contour>
  </outline>
</glyph>
<glyph name="dotaccent" format="1">
  <advance width="240"/>
  <unicode hex="02D9"/>
  <outline>
    <contour>
      <point x="151" y="613" type="line" smooth="yes"/>
      <point x="164" y="613"/>
      <point x="174" y="623"/>
      <point x="174" y="636" type="curve" smooth="yes"/>
      <point x="174" y="697" type="line" smooth="yes"/>
      <point x="174" y="710"/>
      <point x="164" y="720"/>
      <point x="151" y="720" type="curve" smooth="yes"/>
      <point x="89" y="720" type="line" smooth="yes"/>
      <point x="76" y="720"/>
      <point x="67" y="710"/>
      <point x="67" y="697" type="curve" smooth="yes"/>
      <point x="67" y="636" type="line" smooth="yes"/>
      <point x="67" y="623"/>
      <point x="76" y="613"/>
      <point x="89" y="613" type="curve" smooth="yes"/>
    </contour>
  </outline>
</glyph>
<glyph name="ring" format="1">
  <advance width="300"/>
  <unicode hex="02DA"/>
  <outline>
    <contour>
      <point x="196" y="590"/>
      <point x="234" y="623"/>
      <point x="234" y="668" type="curve" smooth="yes"/>
      <point x="234" y="714"/>
      <point x="196" y="747"/>
      <point x="150" y="747" type="curve" smooth="yes"/>
      <point x="105" y="747"/>
      <point x="67" y="714"/>
      <point x="67" y="668" type="curve" smooth="yes"/>
      <point x="67" y="623"/>
      <point x="105" y="590"/>
      <point x="150" y="590" type="curve" smooth="yes"/>
    </contour>
    <contour>
      <point x="133" y="638"/>
      <point x="120" y="651"/>
      <point x="120" y="668" type="curve" smooth="yes"/>
      <point x="120" y="685"/>
      <point x="133" y="698"/>
      <point x="150" y="698" type="curve" smooth="yes"/>
      <point x="167" y="698"/>
      <point x="180" y="685"/>
      <point x="180" y="668" type="curve" smooth="yes"/>
      <point x="180" y="651"/>
      <point x="167" y="638"/>
      <point x="150" y="638" type="curve" smooth="yes"/>
    </contour>
  </outline>
</glyph>
<glyph name="hungarumlaut" format="1">
  <advance width="450"/>
  <unicode hex="02DD"/>
  <outline>
    <contour>
      <point x="269" y="595" type="line" smooth="yes"/>
      <point x="282" y="595"/>
      <point x="292" y="600"/>
      <point x="300" y="609" type="curve" smooth="yes"/>
      <point x="378" y="700" type="line" smooth="yes"/>
      <point x="382" y="704"/>
      <point x="384" y="708"/>
      <point x="384" y="713" type="curve" smooth="yes"/>
      <point x="384" y="725"/>
      <point x="376" y="732"/>
      <point x="364" y="732" type="curve" smooth="yes"/>
      <point x="310" y="732" type="line" smooth="yes"/>
      <point x="289" y="732"/>
      <point x="279" y="726"/>
      <point x="273" y="713" type="curve" smooth="yes"/>
      <point x="234" y="626" type="line" smooth="yes"/>
      <point x="232" y="622"/>
      <point x="229" y="616"/>
      <point x="229" y="611" type="curve" smooth="yes"/>
      <point x="229" y="601"/>
      <point x="235" y="595"/>
      <point x="245" y="595" type="curve" smooth="yes"/>
    </contour>
    <contour>
      <point x="107" y="595" type="line" smooth="yes"/>
      <point x="120" y="595"/>
      <point x="130" y="600"/>
      <point x="138" y="609" type="curve" smooth="yes"/>
      <point x="216" y="700" type="line" smooth="yes"/>
      <point x="220" y="704"/>
      <point x="222" y="708"/>
      <point x="222" y="713" type="curve" smooth="yes"/>
      <point x="222" y="725"/>
      <point x="214" y="732"/>
      <point x="202" y="732" type="curve" smooth="yes"/>
      <point x="148" y="732" type="line" smooth="yes"/>
      <point x="127" y="732"/>
      <point x="117" y="726"/>
      <point x="111" y="713" type="curve" smooth="yes"/>
      <point x="72" y="626" type="line" smooth="yes"/>
      <point x="70" y="622"/>
      <point x="67" y="616"/>
      <point x="67" y="611" type="curve" smooth="yes"/>
      <point x="67" y="601"/>
      <point x="73" y="595"/>
      <point x="83" y="595" type="curve" smooth="yes"/>
    </contour>
  </outline>
</glyph>
<glyph name="Dje-cy" format="1">
  <advance width="710"/>
  <unicode hex="0402"/>
  <outline>
    <contour>
      <point x="488" y="-225" type="line"/>
      <point x="606" y="-225"/>
      <point x="654" y="-146"/>
      <point x="654" y="-45" type="curve"/>
      <point x="654" y="300" type="line"/>
      <point x="654" y="446"/>
      <point x="585" y="511"/>
      <point x="436" y="511" type="curve"/>
      <point x="263" y="511" type="line"/>
      <point x="263" y="621" type="line"/>
      <point x="393" y="621" type="line"/>
      <point x="407" y="621"/>
      <point x="416" y="630"/>
      <point x="416" y="643" type="curve"/>
      <point x="416" y="677" type="line"/>
      <point x="416" y="691"/>
      <point x="407" y="700"/>
      <point x="393" y="700" type="curve"/>
      <point x="43" y="700" type="line"/>
      <point x="30" y="700"/>
      <point x="21" y="691"/>
      <point x="21" y="677" type="curve"/>
      <point x="21" y="643" type="line"/>
      <point x="21" y="630"/>
      <point x="30" y="621"/>
      <point x="43" y="621" type="curve"/>
      <point x="170" y="621" type="line"/>
      <point x="170" y="23" type="line"/>
      <point x="170" y="10"/>
      <point x="180" y="0"/>
      <point x="193" y="0" type="curve"/>
      <point x="239" y="0" type="line"/>
      <point x="253" y="0"/>
      <point x="263" y="10"/>
      <point x="263" y="23" type="curve"/>
      <point x="263" y="428" type="line"/>
      <point x="429" y="428" type="line"/>
      <point x="527" y="428"/>
      <point x="561" y="394"/>
      <point x="561" y="294" type="curve"/>
      <point x="561" y="-39" type="line"/>
      <point x="561" y="-100"/>
      <point x="545" y="-145"/>
      <point x="480" y="-145" type="curve"/>
      <point x="472" y="-145" type="line"/>
      <point x="459" y="-145"/>
      <point x="449" y="-155"/>
      <point x="449" y="-169" type="curve"/>
      <point x="449" y="-202" type="line"/>
      <point x="449" y="-216"/>
      <point x="459" y="-225"/>
      <point x="472" y="-225" type="curve"/>
    </contour>
  </outline>
</glyph>
<glyph name="Nje-cy" format="1">
  <advance width="932"/>
  <unicode hex="040A"/>
  <outline>
    <contour>
      <point x="158" y="0" type="line" smooth="yes"/>
      <point x="172" y="0"/>
      <point x="181" y="10"/>
      <point x="181" y="23" type="curve" smooth="yes"/>
      <point x="181" y="311" type="line"/>
      <point x="411" y="311" type="line"/>
      <point x="411" y="23" type="line" smooth="yes"/>
      <point x="411" y="10"/>
      <point x="421" y="0"/>
      <point x="434" y="0" type="curve" smooth="yes"/>
      <point x="670" y="0" type="line" smooth="yes"/>
      <point x="823" y="0"/>
      <point x="896" y="109"/>
      <point x="896" y="211" type="curve" smooth="yes"/>
      <point x="896" y="339"/>
      <point x="813" y="416"/>
      <point x="670" y="416" type="curve" smooth="yes"/>
      <point x="507" y="416" type="line"/>
      <point x="507" y="676" type="line" smooth="yes"/>
      <point x="507" y="691"/>
      <point x="498" y="700"/>
      <point x="483" y="700" type="curve" smooth="yes"/>
      <point x="434" y="700" type="line" smooth="yes"/>
      <point x="421" y="700"/>
      <point x="411" y="691"/>
      <point x="411" y="676" type="curve" smooth="yes"/>
      <point x="411" y="398" type="line"/>
      <point x="181" y="398" type="line"/>
      <point x="181" y="676" type="line" smooth="yes"/>
      <point x="181" y="691"/>
      <point x="172" y="700"/>
      <point x="158" y="700" type="curve" smooth="yes"/>
      <point x="110" y="700" type="line" smooth="yes"/>
      <point x="97" y="700"/>
      <point x="87" y="691"/>
      <point x="87" y="676" type="curve" smooth="yes"/>
      <point x="87" y="23" type="line" smooth="yes"/>
      <point x="87" y="9"/>
      <point x="97" y="0"/>
      <point x="110" y="0" type="curve" smooth="yes"/>
    </contour>
    <contour>
      <point x="507" y="335" type="line"/>
      <point x="663" y="335" type="line" smooth="yes"/>
      <point x="756" y="335"/>
      <point x="801" y="287"/>
      <point x="801" y="213" type="curve" smooth="yes"/>
      <point x="801" y="142"/>
      <point x="751" y="81"/>
      <point x="663" y="81" type="curve" smooth="yes"/>
      <point x="507" y="81" type="line"/>
    </contour>
  </outline>
</glyph>
<glyph name="Tshe-cy" format="1">
  <advance width="710"/>
  <unicode hex="040B"/>
  <outline>
    <contour>
      <point x="239" y="0" type="line" smooth="yes"/>
      <point x="253" y="0"/>
      <point x="263" y="10"/>
      <point x="263" y="23" type="curve" smooth="yes"/>
      <point x="263" y="428" type="line"/>
      <point x="429" y="428" type="line" smooth="yes"/>
      <point x="527" y="428"/>
      <point x="561" y="394"/>
      <point x="561" y="294" type="curve" smooth="yes"/>
      <point x="561" y="23" type="line" smooth="yes"/>
      <point x="561" y="10"/>
      <point x="571" y="0"/>
      <point x="584" y="0" type="curve" smooth="yes"/>
      <point x="630" y="0" type="line" smooth="yes"/>
      <point x="644" y="0"/>
      <point x="654" y="10"/>
      <point x="654" y="23" type="curve" smooth="yes"/>
      <point x="654" y="300" type="line" smooth="yes"/>
      <point x="654" y="446"/>
      <point x="585" y="511"/>
      <point x="436" y="511" type="curve" smooth="yes"/>
      <point x="263" y="511" type="line"/>
      <point x="263" y="621" type="line"/>
      <point x="393" y="621" type="line" smooth="yes"/>
      <point x="407" y="621"/>
      <point x="416" y="630"/>
      <point x="416" y="643" type="curve" smooth="yes"/>
      <point x="416" y="677" type="line" smooth="yes"/>
      <point x="416" y="691"/>
      <point x="407" y="700"/>
      <point x="393" y="700" type="curve" smooth="yes"/>
      <point x="43" y="700" type="line" smooth="yes"/>
      <point x="30" y="700"/>
      <point x="21" y="691"/>
      <point x="21" y="677" type="curve" smooth="yes"/>
      <point x="21" y="643" type="line" smooth="yes"/>
      <point x="21" y="630"/>
      <point x="30" y="621"/>
      <point x="43" y="621" type="curve" smooth="yes"/>
      <point x="170" y="621" type="line"/>
      <point x="170" y="23" type="line" smooth="yes"/>
      <point x="170" y="10"/>
      <point x="180" y="0"/>
      <point x="193" y="0" type="curve" smooth="yes"/>
    </contour>
  </outline>
</glyph>
<glyph name="Dzhe-cy" format="1">
  <advance width="656"/>
  <unicode hex="040F"/>
  <outline>
    <contour>
      <point x="347" y="-112" type="line" smooth="yes"/>
      <point x="361" y="-112"/>
      <point x="370" y="-103"/>
      <point x="370" y="-89" type="curve" smooth="yes"/>
      <point x="370" y="0" type="line"/>
      <point x="544" y="0" type="line" smooth="yes"/>
      <point x="558" y="0"/>
      <point x="568" y="10"/>
      <point x="568" y="23" type="curve" smooth="yes"/>
      <point x="568" y="677" type="line" smooth="yes"/>
      <point x="568" y="691"/>
      <point x="558" y="700"/>
      <point x="544" y="700" type="curve" smooth="yes"/>
      <point x="497" y="700" type="line" smooth="yes"/>
      <point x="484" y="700"/>
      <point x="474" y="691"/>
      <point x="474" y="677" type="curve" smooth="yes"/>
      <point x="474" y="87" type="line"/>
      <point x="181" y="87" type="line"/>
      <point x="181" y="677" type="line" smooth="yes"/>
      <point x="181" y="691"/>
      <point x="172" y="700"/>
      <point x="158" y="700" type="curve" smooth="yes"/>
      <point x="110" y="700" type="line" smooth="yes"/>
      <point x="97" y="700"/>
      <point x="87" y="691"/>
      <point x="87" y="677" type="curve" smooth="yes"/>
      <point x="87" y="23" type="line" smooth="yes"/>
      <point x="87" y="10"/>
      <point x="97" y="0"/>
      <point x="110" y="0" type="curve" smooth="yes"/>
      <point x="284" y="0" type="line"/>
      <point x="284" y="-89" type="line" smooth="yes"/>
      <point x="284" y="-103"/>
      <point x="294" y="-112"/>
      <point x="307" y="-112" type="curve" smooth="yes"/>
    </contour>
  </outline>
</glyph>
<glyph name="Be-cy" format="1">
  <advance width="639"/>
  <unicode hex="0411"/>
  <outline>
    <contour>
      <point x="378" y="0" type="line" smooth="yes"/>
      <point x="530" y="0"/>
      <point x="601" y="110"/>
      <point x="601" y="208" type="curve" smooth="yes"/>
      <point x="601" y="332"/>
      <point x="518" y="410"/>
      <point x="378" y="410" type="curve" smooth="yes"/>
      <point x="181" y="410" type="line"/>
      <point x="181" y="618" type="line"/>
      <point x="511" y="618" type="line" smooth="yes"/>
      <point x="526" y="618"/>
      <point x="535" y="627"/>
      <point x="535" y="640" type="curve" smooth="yes"/>
      <point x="535" y="676" type="line" smooth="yes"/>
      <point x="535" y="691"/>
      <point x="526" y="700"/>
      <point x="511" y="700" type="curve" smooth="yes"/>
      <point x="110" y="700" type="line"/>
      <point x="97" y="700"/>
      <point x="87" y="691"/>
      <point x="87" y="676" type="curve" smooth="yes"/>
      <point x="87" y="23" type="line" smooth="yes"/>
      <point x="87" y="10"/>
      <point x="97" y="0"/>
      <point x="110" y="0" type="curve" smooth="yes"/>
    </contour>
    <contour>
      <point x="182" y="333" type="line"/>
      <point x="370" y="333" type="line" smooth="yes"/>
      <point x="464" y="333"/>
      <point x="509" y="282"/>
      <point x="509" y="211" type="curve" smooth="yes"/>
      <point x="509" y="140"/>
      <point x="458" y="79"/>
      <point x="370" y="79" type="curve" smooth="yes"/>
      <point x="182" y="79" type="line"/>
    </contour>
  </outline>
</glyph>
<glyph name="Pe-cy" format="1">
  <advance width="712"/>
  <unicode hex="041F"/>
  <outline>
    <contour>
      <point x="158" y="0" type="line" smooth="yes"/>
      <point x="172" y="0"/>
      <point x="181" y="10"/>
      <point x="181" y="23" type="curve" smooth="yes"/>
      <point x="181" y="613" type="line"/>
      <point x="530" y="613" type="line"/>
      <point x="530" y="23" type="line" smooth="yes"/>
      <point x="530" y="10"/>
      <point x="539" y="0"/>
      <point x="553" y="0" type="curve" smooth="yes"/>
      <point x="600" y="0" type="line" smooth="yes"/>
      <point x="615" y="0"/>
      <point x="624" y="10"/>
      <point x="624" y="23" type="curve" smooth="yes"/>
      <point x="624" y="676" type="line" smooth="yes"/>
      <point x="624" y="691"/>
      <point x="615" y="700"/>
      <point x="600" y="700" type="curve" smooth="yes"/>
      <point x="110" y="700" type="line" smooth="yes"/>
      <point x="97" y="700"/>
      <point x="87" y="691"/>
      <point x="87" y="676" type="curve" smooth="yes"/>
      <point x="87" y="23" type="line" smooth="yes"/>
      <point x="87" y="9"/>
      <point x="97" y="0"/>
      <point x="110" y="0" type="curve" smooth="yes"/>
    </contour>
  </outline>
</glyph>
<glyph name="Ef-cy" format="1">
  <advance width="743"/>
  <unicode hex="0424"/>
  <outline>
    <contour>
      <point x="393" y="-20" type="line" smooth="yes"/>
      <point x="407" y="-20"/>
      <point x="416" y="-11"/>
      <point x="416" y="3" type="curve" smooth="yes"/>
      <point x="416" y="99" type="line"/>
      <point x="554" y="108"/>
      <point x="711" y="185"/>
      <point x="711" y="351" type="curve" smooth="yes"/>
      <point x="711" y="516"/>
      <point x="553" y="592"/>
      <point x="416" y="601" type="curve"/>
      <point x="416" y="697" type="line" smooth="yes"/>
      <point x="416" y="711"/>
      <point x="407" y="720"/>
      <point x="393" y="720" type="curve" smooth="yes"/>
      <point x="349" y="720" type="line" smooth="yes"/>
      <point x="335" y="720"/>
      <point x="326" y="711"/>
      <point x="326" y="697" type="curve" smooth="yes"/>
      <point x="326" y="601" type="line"/>
      <point x="190" y="592"/>
      <point x="32" y="516"/>
      <point x="32" y="351" type="curve" smooth="yes"/>
      <point x="32" y="187"/>
      <point x="189" y="109"/>
      <point x="326" y="99" type="curve"/>
      <point x="326" y="3" type="line" smooth="yes"/>
      <point x="326" y="-11"/>
      <point x="335" y="-20"/>
      <point x="349" y="-20" type="curve" smooth="yes"/>
    </contour>
    <contour>
      <point x="223" y="187"/>
      <point x="121" y="244"/>
      <point x="121" y="351" type="curve" smooth="yes"/>
      <point x="121" y="457"/>
      <point x="223" y="513"/>
      <point x="326" y="519" type="curve"/>
      <point x="326" y="181" type="line"/>
    </contour>
    <contour>
      <point x="416" y="519" type="line"/>
      <point x="519" y="514"/>
      <point x="621" y="457"/>
      <point x="621" y="351" type="curve" smooth="yes"/>
      <point x="621" y="244"/>
      <point x="519" y="187"/>
      <point x="416" y="181" type="curve"/>
    </contour>
  </outline>
</glyph>
<glyph name="Tse-cy" format="1">
  <advance width="718"/>
  <unicode hex="0426"/>
  <outline>
    <contour>
      <point x="643" y="-110" type="line" smooth="yes"/>
      <point x="657" y="-110"/>
      <point x="667" y="-101"/>
      <point x="667" y="-87" type="curve" smooth="yes"/>
      <point x="667" y="64" type="line" smooth="yes"/>
      <point x="667" y="77"/>
      <point x="657" y="87"/>
      <point x="643" y="87" type="curve" smooth="yes"/>
      <point x="614" y="87" type="line"/>
      <point x="614" y="677" type="line" smooth="yes"/>
      <point x="614" y="691"/>
      <point x="605" y="700"/>
      <point x="590" y="700" type="curve" smooth="yes"/>
      <point x="543" y="700" type="line" smooth="yes"/>
      <point x="529" y="700"/>
      <point x="520" y="691"/>
      <point x="520" y="677" type="curve" smooth="yes"/>
      <point x="520" y="87" type="line"/>
      <point x="181" y="87" type="line"/>
      <point x="181" y="677" type="line" smooth="yes"/>
      <point x="181" y="691"/>
      <point x="172" y="700"/>
      <point x="158" y="700" type="curve" smooth="yes"/>
      <point x="110" y="700" type="line" smooth="yes"/>
      <point x="97" y="700"/>
      <point x="87" y="691"/>
      <point x="87" y="677" type="curve" smooth="yes"/>
      <point x="87" y="24" type="line" smooth="yes"/>
      <point x="87" y="10"/>
      <point x="97" y="0"/>
      <point x="110" y="0" type="curve" smooth="yes"/>
      <point x="580" y="0" type="line"/>
      <point x="580" y="-87" type="line" smooth="yes"/>
      <point x="580" y="-101"/>
      <point x="590" y="-110"/>
      <point x="603" y="-110" type="curve" smooth="yes"/>
    </contour>
  </outline>
</glyph>
<glyph name="Che-cy" format="1">
  <advance width="628"/>
  <unicode hex="0427"/>
  <outline>
    <contour>
      <point x="517" y="0" type="line" smooth="yes"/>
      <point x="531" y="0"/>
      <point x="541" y="10"/>
      <point x="541" y="23" type="curve" smooth="yes"/>
      <point x="541" y="677" type="line" smooth="yes"/>
      <point x="541" y="691"/>
      <point x="531" y="700"/>
      <point x="517" y="700" type="curve" smooth="yes"/>
      <point x="468" y="700" type="line" smooth="yes"/>
      <point x="454" y="700"/>
      <point x="445" y="691"/>
      <point x="445" y="677" type="curve" smooth="yes"/>
      <point x="445" y="357" type="line"/>
      <point x="277" y="357" type="line" smooth="yes"/>
      <point x="177" y="357"/>
      <point x="143" y="392"/>
      <point x="143" y="491" type="curve" smooth="yes"/>
      <point x="143" y="677" type="line" smooth="yes"/>
      <point x="143" y="691"/>
      <point x="134" y="700"/>
      <point x="119" y="700" type="curve" smooth="yes"/>
      <point x="70" y="700" type="line" smooth="yes"/>
      <point x="57" y="700"/>
      <point x="47" y="691"/>
      <point x="47" y="677" type="curve" smooth="yes"/>
      <point x="47" y="485" type="line" smooth="yes"/>
      <point x="47" y="335"/>
      <point x="118" y="269"/>
      <point x="268" y="269" type="curve" smooth="yes"/>
      <point x="445" y="269" type="line"/>
      <point x="445" y="23" type="line" smooth="yes"/>
      <point x="445" y="10"/>
      <point x="454" y="0"/>
      <point x="468" y="0" type="curve" smooth="yes"/>
    </contour>
  </outline>
</glyph>
<glyph name="Shcha-cy" format="1">
  <advance width="897"/>
  <unicode hex="0429"/>
  <outline>
    <contour>
      <point x="822" y="-110" type="line" smooth="yes"/>
      <point x="837" y="-110"/>
      <point x="846" y="-101"/>
      <point x="846" y="-87" type="curve" smooth="yes"/>
      <point x="846" y="64" type="line" smooth="yes"/>
      <point x="846" y="77"/>
      <point x="837" y="87"/>
      <point x="822" y="87" type="curve" smooth="yes"/>
      <point x="793" y="87" type="line"/>
      <point x="793" y="677" type="line" smooth="yes"/>
      <point x="793" y="691"/>
      <point x="784" y="700"/>
      <point x="770" y="700" type="curve" smooth="yes"/>
      <point x="724" y="700" type="line" smooth="yes"/>
      <point x="710" y="700"/>
      <point x="701" y="691"/>
      <point x="701" y="677" type="curve" smooth="yes"/>
      <point x="701" y="87" type="line"/>
      <point x="485" y="87" type="line"/>
      <point x="485" y="677" type="line" smooth="yes"/>
      <point x="485" y="691"/>
      <point x="475" y="700"/>
      <point x="461" y="700" type="curve" smooth="yes"/>
      <point x="419" y="700" type="line" smooth="yes"/>
      <point x="405" y="700"/>
      <point x="396" y="691"/>
      <point x="396" y="677" type="curve" smooth="yes"/>
      <point x="396" y="87" type="line"/>
      <point x="180" y="87" type="line"/>
      <point x="180" y="677" type="line" smooth="yes"/>
      <point x="180" y="691"/>
      <point x="170" y="700"/>
      <point x="156" y="700" type="curve" smooth="yes"/>
      <point x="110" y="700" type="line" smooth="yes"/>
      <point x="97" y="700"/>
      <point x="87" y="691"/>
      <point x="87" y="677" type="curve" smooth="yes"/>
      <point x="87" y="23" type="line" smooth="yes"/>
      <point x="87" y="10"/>
      <point x="97" y="0"/>
      <point x="110" y="0" type="curve" smooth="yes"/>
      <point x="759" y="0" type="line"/>
      <point x="759" y="-87" type="line" smooth="yes"/>
      <point x="759" y="-101"/>
      <point x="769" y="-110"/>
      <point x="782" y="-110" type="curve" smooth="yes"/>
    </contour>
  </outline>
</glyph>
<glyph name="Hardsign-cy" format="1">
  <advance width="696"/>
  <unicode hex="042A"/>
  <outline>
    <contour>
      <point x="435" y="0" type="line" smooth="yes"/>
      <point x="588" y="0"/>
      <point x="661" y="109"/>
      <point x="661" y="211" type="curve" smooth="yes"/>
      <point x="661" y="339"/>
      <point x="578" y="416"/>
      <point x="435" y="416" type="curve" smooth="yes"/>
      <point x="238" y="416" type="line"/>
      <point x="238" y="676" type="line" smooth="yes"/>
      <point x="238" y="691"/>
      <point x="229" y="700"/>
      <point x="215" y="700" type="curve" smooth="yes"/>
      <point x="42" y="700" type="line" smooth="yes"/>
      <point x="29" y="700"/>
      <point x="19" y="691"/>
      <point x="19" y="676" type="curve" smooth="yes"/>
      <point x="19" y="640" type="line" smooth="yes"/>
      <point x="19" y="627"/>
      <point x="29" y="618"/>
      <point x="42" y="618" type="curve" smooth="yes"/>
      <point x="142" y="618" type="line"/>
      <point x="142" y="23" type="line" smooth="yes"/>
      <point x="142" y="10"/>
      <point x="152" y="0"/>
      <point x="165" y="0" type="curve" smooth="yes"/>
    </contour>
    <contour>
      <point x="237" y="335" type="line"/>
      <point x="426" y="335" type="line" smooth="yes"/>
      <point x="519" y="335"/>
      <point x="565" y="287"/>
      <point x="565" y="213" type="curve" smooth="yes"/>
      <point x="565" y="142"/>
      <point x="515" y="81"/>
      <point x="426" y="81" type="curve" smooth="yes"/>
      <point x="237" y="81" type="line"/>
    </contour>
  </outline>
</glyph>
<glyph name="zhe-cy" format="1">
  <advance width="612"/>
  <unicode hex="0436"/>
  <outline>
    <contour>
      <point x="98" y="0" type="line" smooth="yes"/>
      <point x="113" y="0"/>
      <point x="119" y="9"/>
      <point x="124" y="15" type="curve" smooth="yes"/>
      <point x="263" y="204" type="line"/>
      <point x="263" y="23" type="line" smooth="yes"/>
      <point x="263" y="10"/>
      <point x="272" y="0"/>
      <point x="286" y="0" type="curve" smooth="yes"/>
      <point x="326" y="0" type="line" smooth="yes"/>
      <point x="339" y="0"/>
      <point x="349" y="10"/>
      <point x="349" y="23" type="curve" smooth="yes"/>
      <point x="349" y="205" type="line"/>
      <point x="487" y="15" type="line" smooth="yes"/>
      <point x="493" y="9"/>
      <point x="499" y="0"/>
      <point x="513" y="0" type="curve" smooth="yes"/>
      <point x="560" y="0" type="line" smooth="yes"/>
      <point x="571" y="0"/>
      <point x="580" y="9"/>
      <point x="580" y="21" type="curve" smooth="yes"/>
      <point x="580" y="26"/>
      <point x="579" y="32"/>
      <point x="573" y="40" type="curve" smooth="yes"/>
      <point x="405" y="269" type="line"/>
      <point x="562" y="480" type="line" smooth="yes"/>
      <point x="568" y="488"/>
      <point x="569" y="494"/>
      <point x="569" y="499" type="curve" smooth="yes"/>
      <point x="569" y="511"/>
      <point x="560" y="520"/>
      <point x="548" y="520" type="curve" smooth="yes"/>
      <point x="502" y="520" type="line" smooth="yes"/>
      <point x="488" y="520"/>
      <point x="482" y="511"/>
      <point x="477" y="505" type="curve" smooth="yes"/>
      <point x="349" y="329" type="line"/>
      <point x="349" y="497" type="line" smooth="yes"/>
      <point x="349" y="511"/>
      <point x="339" y="520"/>
      <point x="326" y="520" type="curve" smooth="yes"/>
      <point x="286" y="520" type="line" smooth="yes"/>
      <point x="272" y="520"/>
      <point x="263" y="511"/>
      <point x="263" y="497" type="curve" smooth="yes"/>
      <point x="263" y="329" type="line"/>
      <point x="135" y="505" type="line" smooth="yes"/>
      <point x="129" y="511"/>
      <point x="123" y="520"/>
      <point x="109" y="520" type="curve" smooth="yes"/>
      <point x="63" y="520" type="line" smooth="yes"/>
      <point x="52" y="520"/>
      <point x="42" y="511"/>
      <point x="42" y="499" type="curve" smooth="yes"/>
      <point x="42" y="494"/>
      <point x="43" y="488"/>
      <point x="50" y="480" type="curve" smooth="yes"/>
      <point x="207" y="269" type="line"/>
      <point x="38" y="40" type="line" smooth="yes"/>
      <point x="32" y="32"/>
      <point x="31" y="26"/>
      <point x="31" y="21" type="curve" smooth="yes"/>
      <point x="31" y="9"/>
      <point x="40" y="0"/>
      <point x="52" y="0" type="curve" smooth="yes"/>
    </contour>
  </outline>
</glyph>
<glyph name="ii-cy" format="1">
  <advance width="607"/>
  <unicode hex="0438"/>
  <outline>
    <contour>
      <point x="142" y="0" type="line" smooth="yes"/>
      <point x="154" y="0"/>
      <point x="162" y="7"/>
      <point x="167" y="14" type="curve" smooth="yes"/>
      <point x="443" y="377" type="line"/>
      <point x="443" y="23" type="line" smooth="yes"/>
      <point x="443" y="10"/>
      <point x="452" y="0"/>
      <point x="465" y="0" type="curve" smooth="yes"/>
      <point x="509" y="0" type="line" smooth="yes"/>
      <point x="523" y="0"/>
      <point x="532" y="10"/>
      <point x="532" y="23" type="curve" smooth="yes"/>
      <point x="532" y="500" type="line" smooth="yes"/>
      <point x="532" y="511"/>
      <point x="522" y="520"/>
      <point x="511" y="520" type="curve" smooth="yes"/>
      <point x="465" y="520" type="line" smooth="yes"/>
      <point x="453" y="520"/>
      <point x="446" y="513"/>
      <point x="440" y="505" type="curve" smooth="yes"/>
      <point x="165" y="143" type="line"/>
      <point x="165" y="497" type="line" smooth="yes"/>
      <point x="165" y="511"/>
      <point x="155" y="520"/>
      <point x="142" y="520" type="curve" smooth="yes"/>
      <point x="98" y="520" type="line" smooth="yes"/>
      <point x="85" y="520"/>
      <point x="75" y="511"/>
      <point x="75" y="497" type="curve" smooth="yes"/>
      <point x="75" y="21" type="line" smooth="yes"/>
      <point x="75" y="10"/>
      <point x="84" y="0"/>
      <point x="96" y="0" type="curve" smooth="yes"/>
    </contour>
  </outline>
</glyph>
<glyph name="ka-cy" format="1">
  <advance width="514"/>
  <unicode hex="043A"/>
  <outline>
    <contour>
      <point x="141" y="0" type="line" smooth="yes"/>
      <point x="155" y="0"/>
      <point x="164" y="10"/>
      <point x="164" y="23" type="curve" smooth="yes"/>
      <point x="164" y="208" type="line"/>
      <point x="389" y="17" type="line" smooth="yes"/>
      <point x="403" y="6"/>
      <point x="409" y="0"/>
      <point x="429" y="0" type="curve" smooth="yes"/>
      <point x="479" y="0" type="line" smooth="yes"/>
      <point x="491" y="0"/>
      <point x="499" y="9"/>
      <point x="499" y="21" type="curve" smooth="yes"/>
      <point x="499" y="26"/>
      <point x="496" y="33"/>
      <point x="488" y="40" type="curve" smooth="yes"/>
      <point x="229" y="261" type="line"/>
      <point x="467" y="480" type="line" smooth="yes"/>
      <point x="476" y="487"/>
      <point x="479" y="494"/>
      <point x="479" y="499" type="curve" smooth="yes"/>
      <point x="479" y="512"/>
      <point x="470" y="520"/>
      <point x="458" y="520" type="curve" smooth="yes"/>
      <point x="413" y="520" type="line" smooth="yes"/>
      <point x="393" y="520"/>
      <point x="389" y="516"/>
      <point x="373" y="503" type="curve" smooth="yes"/>
      <point x="164" y="312" type="line"/>
      <point x="164" y="497" type="line" smooth="yes"/>
      <point x="164" y="511"/>
      <point x="155" y="520"/>
      <point x="141" y="520" type="curve" smooth="yes"/>
      <point x="98" y="520" type="line" smooth="yes"/>
      <point x="85" y="520"/>
      <point x="75" y="511"/>
      <point x="75" y="497" type="curve" smooth="yes"/>
      <point x="75" y="23" type="line" smooth="yes"/>
      <point x="75" y="10"/>
      <point x="85" y="0"/>
      <point x="98" y="0" type="curve" smooth="yes"/>
    </contour>
  </outline>
</glyph>
<glyph name="el-cy" format="1">
  <advance width="605"/>
  <unicode hex="043B"/>
  <outline>
    <contour>
      <point x="63" y="-10" type="line" smooth="yes"/>
      <point x="183" y="-10"/>
      <point x="219" y="64"/>
      <point x="219" y="169" type="curve" smooth="yes"/>
      <point x="219" y="443" type="line"/>
      <point x="441" y="443" type="line"/>
      <point x="441" y="23" type="line" smooth="yes"/>
      <point x="441" y="10"/>
      <point x="450" y="0"/>
      <point x="463" y="0" type="curve" smooth="yes"/>
      <point x="507" y="0" type="line" smooth="yes"/>
      <point x="521" y="0"/>
      <point x="530" y="10"/>
      <point x="530" y="23" type="curve" smooth="yes"/>
      <point x="530" y="497" type="line" smooth="yes"/>
      <point x="530" y="511"/>
      <point x="521" y="520"/>
      <point x="507" y="520" type="curve" smooth="yes"/>
      <point x="152" y="520" type="line" smooth="yes"/>
      <point x="139" y="520"/>
      <point x="129" y="511"/>
      <point x="129" y="497" type="curve" smooth="yes"/>
      <point x="129" y="169" type="line" smooth="yes"/>
      <point x="129" y="113"/>
      <point x="119" y="69"/>
      <point x="56" y="69" type="curve" smooth="yes"/>
      <point x="42" y="69" type="line" smooth="yes"/>
      <point x="29" y="69"/>
      <point x="19" y="60"/>
      <point x="19" y="46" type="curve" smooth="yes"/>
      <point x="19" y="13" type="line" smooth="yes"/>
      <point x="19" y="-1"/>
      <point x="29" y="-10"/>
      <point x="42" y="-10" type="curve" smooth="yes"/>
    </contour>
  </outline>
</glyph>
<glyph name="em-cy" format="1">
  <advance width="662"/>
  <unicode hex="043C"/>
  <outline>
    <contour>
      <point x="142" y="0" type="line" smooth="yes"/>
      <point x="155" y="0"/>
      <point x="164" y="9"/>
      <point x="164" y="22" type="curve" smooth="yes"/>
      <point x="164" y="352" type="line"/>
      <point x="285" y="112" type="line" smooth="yes"/>
      <point x="292" y="99"/>
      <point x="299" y="85"/>
      <point x="318" y="85" type="curve" smooth="yes"/>
      <point x="344" y="85" type="line" smooth="yes"/>
      <point x="363" y="85"/>
      <point x="370" y="99"/>
      <point x="377" y="112" type="curve" smooth="yes"/>
      <point x="498" y="352" type="line"/>
      <point x="498" y="22" type="line" smooth="yes"/>
      <point x="498" y="9"/>
      <point x="507" y="0"/>
      <point x="520" y="0" type="curve" smooth="yes"/>
      <point x="565" y="0" type="line" smooth="yes"/>
      <point x="578" y="0"/>
      <point x="587" y="9"/>
      <point x="587" y="22" type="curve" smooth="yes"/>
      <point x="587" y="501" type="line" smooth="yes"/>
      <point x="587" y="511"/>
      <point x="577" y="520"/>
      <point x="567" y="520" type="curve" smooth="yes"/>
      <point x="519" y="520" type="line" smooth="yes"/>
      <point x="507" y="520"/>
      <point x="500" y="513"/>
      <point x="495" y="504" type="curve" smooth="yes"/>
      <point x="331" y="183" type="line"/>
      <point x="167" y="504" type="line" smooth="yes"/>
      <point x="163" y="513"/>
      <point x="155" y="520"/>
      <point x="143" y="520" type="curve" smooth="yes"/>
      <point x="95" y="520" type="line" smooth="yes"/>
      <point x="85" y="520"/>
      <point x="75" y="511"/>
      <point x="75" y="501" type="curve" smooth="yes"/>
      <point x="75" y="22" type="line" smooth="yes"/>
      <point x="75" y="9"/>
      <point x="84" y="0"/>
      <point x="97" y="0" type="curve" smooth="yes"/>
    </contour>
  </outline>
</glyph>
<glyph name="te-cy" format="1">
  <advance width="511"/>
  <unicode hex="0442"/>
  <outline>
    <contour>
      <point x="277" y="0" type="line" smooth="yes"/>
      <point x="290" y="0"/>
      <point x="300" y="10"/>
      <point x="300" y="23" type="curve" smooth="yes"/>
      <point x="300" y="443" type="line"/>
      <point x="474" y="443" type="line" smooth="yes"/>
      <point x="488" y="443"/>
      <point x="497" y="452"/>
      <point x="497" y="465" type="curve" smooth="yes"/>
      <point x="497" y="497" type="line" smooth="yes"/>
      <point x="497" y="511"/>
      <point x="488" y="520"/>
      <point x="474" y="520" type="curve" smooth="yes"/>
      <point x="36" y="520" type="line"/>
      <point x="23" y="520"/>
      <point x="13" y="511"/>
      <point x="13" y="497" type="curve" smooth="yes"/>
      <point x="13" y="465" type="line" smooth="yes"/>
      <point x="13" y="452"/>
      <point x="23" y="443"/>
      <point x="36" y="443" type="curve" smooth="yes"/>
      <point x="211" y="443" type="line"/>
      <point x="211" y="23" type="line" smooth="yes"/>
      <point x="211" y="10"/>
      <point x="220" y="0"/>
      <point x="233" y="0" type="curve" smooth="yes"/>
    </contour>
  </outline>
</glyph>
<glyph name="tse-cy" format="1">
  <advance width="620"/>
  <unicode hex="0446"/>
  <outline>
    <contour>
      <point x="553" y="-110" type="line" smooth="yes"/>
      <point x="566" y="-110"/>
      <point x="576" y="-101"/>
      <point x="576" y="-87" type="curve" smooth="yes"/>
      <point x="576" y="55" type="line" smooth="yes"/>
      <point x="576" y="68"/>
      <point x="566" y="78"/>
      <point x="553" y="78" type="curve" smooth="yes"/>
      <point x="526" y="78" type="line"/>
      <point x="526" y="497" type="line" smooth="yes"/>
      <point x="526" y="511"/>
      <point x="516" y="520"/>
      <point x="503" y="520" type="curve" smooth="yes"/>
      <point x="460" y="520" type="line" smooth="yes"/>
      <point x="447" y="520"/>
      <point x="438" y="511"/>
      <point x="438" y="497" type="curve" smooth="yes"/>
      <point x="438" y="78" type="line"/>
      <point x="163" y="78" type="line"/>
      <point x="163" y="497" type="line" smooth="yes"/>
      <point x="163" y="511"/>
      <point x="154" y="520"/>
      <point x="140" y="520" type="curve" smooth="yes"/>
      <point x="98" y="520" type="line" smooth="yes"/>
      <point x="85" y="520"/>
      <point x="75" y="511"/>
      <point x="75" y="497" type="curve" smooth="yes"/>
      <point x="75" y="23" type="line" smooth="yes"/>
      <point x="75" y="10"/>
      <point x="85" y="0"/>
      <point x="98" y="0" type="curve" smooth="yes"/>
      <point x="494" y="0" type="line"/>
      <point x="494" y="-87" type="line" smooth="yes"/>
      <point x="494" y="-101"/>
      <point x="504" y="-110"/>
      <point x="517" y="-110" type="curve" smooth="yes"/>
    </contour>
  </outline>
</glyph>
<glyph name="che-cy" format="1">
  <advance width="572"/>
  <unicode hex="0447"/>
  <outline>
    <contour>
      <point x="474" y="0" type="line" smooth="yes"/>
      <point x="487" y="0"/>
      <point x="497" y="10"/>
      <point x="497" y="23" type="curve" smooth="yes"/>
      <point x="497" y="497" type="line" smooth="yes"/>
      <point x="497" y="511"/>
      <point x="487" y="520"/>
      <point x="474" y="520" type="curve" smooth="yes"/>
      <point x="427" y="520" type="line" smooth="yes"/>
      <point x="414" y="520"/>
      <point x="404" y="511"/>
      <point x="404" y="497" type="curve" smooth="yes"/>
      <point x="404" y="262" type="line"/>
      <point x="259" y="262" type="line" smooth="yes"/>
      <point x="170" y="262"/>
      <point x="130" y="302"/>
      <point x="130" y="392" type="curve" smooth="yes"/>
      <point x="130" y="497" type="line" smooth="yes"/>
      <point x="130" y="511"/>
      <point x="120" y="520"/>
      <point x="107" y="520" type="curve" smooth="yes"/>
      <point x="62" y="520" type="line" smooth="yes"/>
      <point x="49" y="520"/>
      <point x="39" y="511"/>
      <point x="39" y="497" type="curve" smooth="yes"/>
      <point x="39" y="386" type="line" smooth="yes"/>
      <point x="39" y="241"/>
      <point x="117" y="181"/>
      <point x="254" y="181" type="curve" smooth="yes"/>
      <point x="404" y="181" type="line"/>
      <point x="404" y="23" type="line" smooth="yes"/>
      <point x="404" y="10"/>
      <point x="414" y="0"/>
      <point x="427" y="0" type="curve" smooth="yes"/>
    </contour>
  </outline>
</glyph>
<glyph name="sha-cy" format="1">
  <advance width="767"/>
  <unicode hex="0448"/>
  <outline>
    <contour>
      <point x="669" y="0" type="line" smooth="yes"/>
      <point x="682" y="0"/>
      <point x="692" y="10"/>
      <point x="692" y="23" type="curve" smooth="yes"/>
      <point x="692" y="497" type="line" smooth="yes"/>
      <point x="692" y="511"/>
      <point x="682" y="520"/>
      <point x="669" y="520" type="curve" smooth="yes"/>
      <point x="627" y="520" type="line" smooth="yes"/>
      <point x="613" y="520"/>
      <point x="604" y="511"/>
      <point x="604" y="497" type="curve" smooth="yes"/>
      <point x="604" y="78" type="line"/>
      <point x="426" y="78" type="line"/>
      <point x="426" y="497" type="line" smooth="yes"/>
      <point x="426" y="511"/>
      <point x="416" y="520"/>
      <point x="403" y="520" type="curve" smooth="yes"/>
      <point x="363" y="520" type="line" smooth="yes"/>
      <point x="350" y="520"/>
      <point x="340" y="511"/>
      <point x="340" y="497" type="curve" smooth="yes"/>
      <point x="340" y="78" type="line"/>
      <point x="162" y="78" type="line"/>
      <point x="162" y="497" type="line" smooth="yes"/>
      <point x="162" y="511"/>
      <point x="153" y="520"/>
      <point x="139" y="520" type="curve" smooth="yes"/>
      <point x="98" y="520" type="line"/>
      <point x="85" y="520"/>
      <point x="75" y="511"/>
      <point x="75" y="497" type="curve" smooth="yes"/>
      <point x="75" y="23" type="line" smooth="yes"/>
      <point x="75" y="10"/>
      <point x="85" y="0"/>
      <point x="98" y="0" type="curve" smooth="yes"/>
    </contour>
  </outline>
</glyph>
<glyph name="shcha-cy" format="1">
  <advance width="786"/>
  <unicode hex="0449"/>
  <outline>
    <contour>
      <point x="719" y="-110" type="line" smooth="yes"/>
      <point x="733" y="-110"/>
      <point x="742" y="-101"/>
      <point x="742" y="-87" type="curve" smooth="yes"/>
      <point x="742" y="56" type="line" smooth="yes"/>
      <point x="742" y="70"/>
      <point x="733" y="79"/>
      <point x="719" y="79" type="curve" smooth="yes"/>
      <point x="692" y="79" type="line"/>
      <point x="692" y="497" type="line" smooth="yes"/>
      <point x="692" y="511"/>
      <point x="682" y="520"/>
      <point x="669" y="520" type="curve" smooth="yes"/>
      <point x="627" y="520" type="line" smooth="yes"/>
      <point x="613" y="520"/>
      <point x="604" y="511"/>
      <point x="604" y="497" type="curve" smooth="yes"/>
      <point x="604" y="79" type="line"/>
      <point x="426" y="79" type="line"/>
      <point x="426" y="497" type="line" smooth="yes"/>
      <point x="426" y="511"/>
      <point x="416" y="520"/>
      <point x="403" y="520" type="curve" smooth="yes"/>
      <point x="363" y="520" type="line" smooth="yes"/>
      <point x="350" y="520"/>
      <point x="340" y="511"/>
      <point x="340" y="497" type="curve" smooth="yes"/>
      <point x="340" y="79" type="line"/>
      <point x="162" y="79" type="line"/>
      <point x="162" y="497" type="line" smooth="yes"/>
      <point x="162" y="511"/>
      <point x="153" y="520"/>
      <point x="139" y="520" type="curve" smooth="yes"/>
      <point x="98" y="520" type="line" smooth="yes"/>
      <point x="85" y="520"/>
      <point x="75" y="511"/>
      <point x="75" y="497" type="curve" smooth="yes"/>
      <point x="75" y="23" type="line" smooth="yes"/>
      <point x="75" y="10"/>
      <point x="85" y="0"/>
      <point x="98" y="0" type="curve" smooth="yes"/>
      <point x="661" y="0" type="line"/>
      <point x="661" y="-87" type="line" smooth="yes"/>
      <point x="661" y="-101"/>
      <point x="670" y="-110"/>
      <point x="684" y="-110" type="curve" smooth="yes"/>
    </contour>
  </outline>
</glyph>
<glyph name="hardsign-cy" format="1">
  <advance width="586"/>
  <unicode hex="044A"/>
  <outline>
    <contour>
      <point x="323" y="0" type="line"/>
      <point x="476" y="0"/>
      <point x="551" y="74"/>
      <point x="551" y="191" type="curve" smooth="yes"/>
      <point x="551" y="305"/>
      <point x="471" y="386"/>
      <point x="336" y="386" type="curve" smooth="yes"/>
      <point x="226" y="386" type="line"/>
      <point x="226" y="493" type="line" smooth="yes"/>
      <point x="226" y="508"/>
      <point x="214" y="520"/>
      <point x="199" y="520" type="curve" smooth="yes"/>
      <point x="41" y="520" type="line" smooth="yes"/>
      <point x="28" y="520"/>
      <point x="18" y="511"/>
      <point x="18" y="497" type="curve" smooth="yes"/>
      <point x="18" y="465" type="line" smooth="yes"/>
      <point x="18" y="452"/>
      <point x="28" y="443"/>
      <point x="41" y="443" type="curve" smooth="yes"/>
      <point x="136" y="443" type="line"/>
      <point x="136" y="23" type="line" smooth="yes"/>
      <point x="136" y="10"/>
      <point x="145" y="0"/>
      <point x="159" y="0" type="curve" smooth="yes"/>
    </contour>
    <contour>
      <point x="226" y="309" type="line"/>
      <point x="332" y="309" type="line" smooth="yes"/>
      <point x="426" y="309"/>
      <point x="465" y="263"/>
      <point x="465" y="192" type="curve" smooth="yes"/>
      <point x="465" y="122"/>
      <point x="425" y="78"/>
      <point x="332" y="78" type="curve" smooth="yes"/>
      <point x="226" y="78" type="line"/>
    </contour>
  </outline>
</glyph>
<glyph name="lje-cy" format="1">
  <advance width="817"/>
  <unicode hex="0459"/>
  <outline>
    <contour>
      <point x="61" y="-10" type="line" smooth="yes"/>
      <point x="173" y="-10"/>
      <point x="217" y="67"/>
      <point x="217" y="164" type="curve" smooth="yes"/>
      <point x="217" y="443" type="line"/>
      <point x="367" y="443" type="line"/>
      <point x="367" y="23" type="line" smooth="yes"/>
      <point x="367" y="10"/>
      <point x="377" y="0"/>
      <point x="390" y="0" type="curve" smooth="yes"/>
      <point x="554" y="0" type="line"/>
      <point x="706" y="0"/>
      <point x="781" y="74"/>
      <point x="781" y="191" type="curve" smooth="yes"/>
      <point x="781" y="305"/>
      <point x="701" y="386"/>
      <point x="567" y="386" type="curve" smooth="yes"/>
      <point x="457" y="386" type="line"/>
      <point x="457" y="497" type="line" smooth="yes"/>
      <point x="457" y="511"/>
      <point x="447" y="520"/>
      <point x="434" y="520" type="curve" smooth="yes"/>
      <point x="151" y="520" type="line" smooth="yes"/>
      <point x="138" y="520"/>
      <point x="128" y="511"/>
      <point x="128" y="497" type="curve" smooth="yes"/>
      <point x="128" y="163" type="line" smooth="yes"/>
      <point x="128" y="107"/>
      <point x="110" y="69"/>
      <point x="47" y="69" type="curve" smooth="yes"/>
      <point x="41" y="69" type="line" smooth="yes"/>
      <point x="27" y="69"/>
      <point x="18" y="60"/>
      <point x="18" y="46" type="curve" smooth="yes"/>
      <point x="18" y="13" type="line" smooth="yes"/>
      <point x="18" y="-1"/>
      <point x="27" y="-10"/>
      <point x="41" y="-10" type="curve" smooth="yes"/>
    </contour>
    <contour>
      <point x="456" y="309" type="line"/>
      <point x="562" y="309" type="line" smooth="yes"/>
      <point x="656" y="309"/>
      <point x="695" y="263"/>
      <point x="695" y="192" type="curve" smooth="yes"/>
      <point x="695" y="122"/>
      <point x="655" y="78"/>
      <point x="562" y="78" type="curve" smooth="yes"/>
      <point x="456" y="78" type="line"/>
    </contour>
  </outline>
</glyph>
<glyph name="nje-cy" format="1">
  <advance width="800"/>
  <unicode hex="045A"/>
  <outline>
    <contour>
      <point x="141" y="0" type="line" smooth="yes"/>
      <point x="154" y="0"/>
      <point x="164" y="10"/>
      <point x="164" y="23" type="curve" smooth="yes"/>
      <point x="164" y="227" type="line"/>
      <point x="351" y="227" type="line"/>
      <point x="351" y="23" type="line" smooth="yes"/>
      <point x="351" y="10"/>
      <point x="360" y="0"/>
      <point x="374" y="0" type="curve" smooth="yes"/>
      <point x="537" y="0" type="line" smooth="yes"/>
      <point x="690" y="0"/>
      <point x="765" y="74"/>
      <point x="765" y="191" type="curve" smooth="yes"/>
      <point x="765" y="305"/>
      <point x="685" y="386"/>
      <point x="551" y="386" type="curve" smooth="yes"/>
      <point x="441" y="386" type="line"/>
      <point x="441" y="497" type="line" smooth="yes"/>
      <point x="441" y="511"/>
      <point x="431" y="520"/>
      <point x="418" y="520" type="curve" smooth="yes"/>
      <point x="373" y="520" type="line" smooth="yes"/>
      <point x="360" y="520"/>
      <point x="351" y="511"/>
      <point x="351" y="497" type="curve" smooth="yes"/>
      <point x="351" y="304" type="line"/>
      <point x="164" y="304" type="line"/>
      <point x="164" y="497" type="line" smooth="yes"/>
      <point x="164" y="511"/>
      <point x="154" y="520"/>
      <point x="141" y="520" type="curve" smooth="yes"/>
      <point x="98" y="520" type="line" smooth="yes"/>
      <point x="85" y="520"/>
      <point x="75" y="511"/>
      <point x="75" y="497" type="curve" smooth="yes"/>
      <point x="75" y="23" type="line" smooth="yes"/>
      <point x="75" y="10"/>
      <point x="85" y="0"/>
      <point x="98" y="0" type="curve" smooth="yes"/>
    </contour>
    <contour>
      <point x="440" y="309" type="line"/>
      <point x="546" y="309" type="line" smooth="yes"/>
      <point x="640" y="309"/>
      <point x="679" y="263"/>
      <point x="679" y="192" type="curve" smooth="yes"/>
      <point x="679" y="122"/>
      <point x="639" y="78"/>
      <point x="546" y="78" type="curve" smooth="yes"/>
      <point x="440" y="78" type="line"/>
    </contour>
  </outline>
</glyph>
<glyph name="dzhe-cy" format="1">
  <advance width="546"/>
  <unicode hex="045F"/>
  <outline>
    <contour>
      <point x="291" y="-110" type="line" smooth="yes"/>
      <point x="305" y="-110"/>
      <point x="314" y="-101"/>
      <point x="314" y="-88" type="curve" smooth="yes"/>
      <point x="314" y="0" type="line"/>
      <point x="449" y="0" type="line" smooth="yes"/>
      <point x="462" y="0"/>
      <point x="471" y="10"/>
      <point x="471" y="23" type="curve" smooth="yes"/>
      <point x="471" y="497" type="line" smooth="yes"/>
      <point x="471" y="511"/>
      <point x="462" y="520"/>
      <point x="449" y="520" type="curve" smooth="yes"/>
      <point x="408" y="520" type="line" smooth="yes"/>
      <point x="395" y="520"/>
      <point x="385" y="511"/>
      <point x="385" y="497" type="curve" smooth="yes"/>
      <point x="385" y="79" type="line"/>
      <point x="161" y="79" type="line"/>
      <point x="161" y="497" type="line" smooth="yes"/>
      <point x="161" y="511"/>
      <point x="152" y="520"/>
      <point x="139" y="520" type="curve" smooth="yes"/>
      <point x="98" y="520" type="line" smooth="yes"/>
      <point x="85" y="520"/>
      <point x="75" y="511"/>
      <point x="75" y="497" type="curve" smooth="yes"/>
      <point x="75" y="23" type="line" smooth="yes"/>
      <point x="75" y="10"/>
      <point x="85" y="0"/>
      <point x="98" y="0" type="curve" smooth="yes"/>
      <point x="233" y="0" type="line"/>
      <point x="233" y="-87" type="line" smooth="yes"/>
      <point x="233" y="-101"/>
      <point x="242" y="-110"/>
      <point x="256" y="-110" type="curve" smooth="yes"/>
    </contour>
  </outline>
</glyph>
<glyph name="sindot-hb" format="1">
  <advance width="600"/>
  <unicode hex="05C2"/>
  <outline>
    <contour>
      <point x="39" y="526" type="line" smooth="yes"/>
      <point x="52" y="526"/>
      <point x="61" y="535"/>
      <point x="61" y="548" type="curve" smooth="yes"/>
      <point x="61" y="578" type="line" smooth="yes"/>
      <point x="61" y="591"/>
      <point x="52" y="600"/>
      <point x="39" y="600" type="curve" smooth="yes"/>
      <point x="9" y="600" type="line" smooth="yes"/>
      <point x="-4" y="600"/>
      <point x="-13" y="591"/>
      <point x="-13" y="578" type="curve" smooth="yes"/>
      <point x="-13" y="548" type="line" smooth="yes"/>
      <point x="-13" y="535"/>
      <point x="-4" y="526"/>
      <point x="9" y="526" type="curve" smooth="yes"/>
    </contour>
    <contour>
      <point x="-70" y="415" type="move" name="_topleft"/>
    </contour>
  </outline>
</glyph>
<glyph name="vav-hb" format="1">
  <advance width="245"/>
  <unicode hex="05D5"/>
  <outline>
    <contour>
      <point x="145" y="0" type="line" smooth="yes"/>
      <point x="158" y="0"/>
      <point x="168" y="10"/>
      <point x="168" y="23" type="curve"/>
      <point x="168" y="548" type="line" smooth="yes"/>
      <point x="168" y="562"/>
      <point x="158" y="571"/>
      <point x="145" y="571" type="curve" smooth="yes"/>
      <point x="101" y="571" type="line" smooth="yes"/>
      <point x="88" y="571"/>
      <point x="78" y="562"/>
      <point x="78" y="548" type="curve" smooth="yes"/>
      <point x="78" y="23" type="line" smooth="yes"/>
      <point x="78" y="10"/>
      <point x="88" y="0"/>
      <point x="101" y="0" type="curve" smooth="yes"/>
    </contour>
    <contour>
      <point x="123" y="0" type="move" name="bottom"/>
    </contour>
    <contour>
      <point x="123" y="520" type="move" name="top"/>
    </contour>
    <contour>
      <point x="20" y="0" type="move" name="bottomleft"/>
    </contour>
    <contour>
      <point x="146" y="520" type="move" name="topleft"/>
    </contour>
    <contour>
      <point x="10" y="260" type="move" name="center"/>
    </contour>
  </outline>
</glyph>
<glyph name="mem-hb" format="1">
  <advance width="621"/>
  <unicode hex="05DE"/>
  <outline>
    <contour>
      <point x="526" y="0" type="line" smooth="yes"/>
      <point x="540" y="0"/>
      <point x="549" y="10"/>
      <point x="549" y="23" type="curve" smooth="yes"/>
      <point x="549" y="327" type="line" smooth="yes"/>
      <point x="549" y="486"/>
      <point x="459" y="578"/>
      <point x="335" y="578" type="curve" smooth="yes"/>
      <point x="222" y="579"/>
      <point x="148" y="485"/>
      <point x="121" y="398" type="curve"/>
      <point x="133" y="326" type="line"/>
      <point x="161" y="411"/>
      <point x="223" y="500"/>
      <point x="325" y="499" type="curve" smooth="yes"/>
      <point x="403" y="499"/>
      <point x="461" y="430"/>
      <point x="461" y="322" type="curve" smooth="yes"/>
      <point x="461" y="78" type="line"/>
      <point x="268" y="78" type="line" smooth="yes"/>
      <point x="255" y="78"/>
      <point x="246" y="68"/>
      <point x="246" y="55" type="curve" smooth="yes"/>
      <point x="246" y="23" type="line" smooth="yes"/>
      <point x="246" y="10"/>
      <point x="255" y="0"/>
      <point x="268" y="0" type="curve" smooth="yes"/>
    </contour>
    <contour>
      <point x="108" y="0" type="line" smooth="yes"/>
      <point x="121" y="0"/>
      <point x="132" y="10"/>
      <point x="133" y="24" type="curve"/>
      <point x="206" y="453" type="line" smooth="yes"/>
      <point x="210" y="466"/>
      <point x="200" y="477"/>
      <point x="187" y="478" type="curve" smooth="yes"/>
      <point x="146" y="480" type="line" smooth="yes"/>
      <point x="133" y="482"/>
      <point x="123" y="474"/>
      <point x="120" y="461" type="curve" smooth="yes"/>
      <point x="46" y="24" type="line" smooth="yes"/>
      <point x="44" y="10"/>
      <point x="53" y="0"/>
      <point x="66" y="0" type="curve" smooth="yes"/>
    </contour>
    <contour>
      <point x="70" y="571"/>
      <point x="57" y="560"/>
      <point x="63" y="547" type="curve" smooth="yes"/>
      <point x="112" y="428" type="line" smooth="yes"/>
      <point x="117" y="414"/>
      <point x="125" y="406"/>
      <point x="137" y="408" type="curve" smooth="yes"/>
      <point x="181" y="411" type="line" smooth="yes"/>
      <point x="194" y="412"/>
      <point x="203" y="423"/>
      <point x="200" y="435" type="curve" smooth="yes"/>
      <point x="155" y="547" type="line" smooth="yes"/>
      <point x="149" y="560"/>
      <point x="142" y="571"/>
      <point x="129" y="571" type="curve" smooth="yes"/>
      <point x="82" y="571" type="line" smooth="yes"/>
    </contour>
    <contour>
      <point x="318" y="0" type="move" name="bottom"/>
    </contour>
    <contour>
      <point x="305" y="520" type="move" name="top"/>
    </contour>
    <contour>
      <point x="9" y="0" type="move" name="bottomleft"/>
    </contour>
    <contour>
      <point x="9" y="520" type="move" name="topleft"/>
    </contour>
    <contour>
      <point x="309" y="260" type="move" name="center"/>
    </contour>
  </outline>
</glyph>
<glyph name="perthousand" format="1">
  <advance width="1080"/>
  <unicode hex="2030"/>
  <outline>
    <contour>
      <point x="140" y="0" type="line" smooth="yes"/>
      <point x="158" y="0"/>
      <point x="165" y="7"/>
      <point x="174" y="19" type="curve" smooth="yes"/>
      <point x="667" y="669" type="line" smooth="yes"/>
      <point x="670" y="673"/>
      <point x="671" y="678"/>
      <point x="671" y="680" type="curve" smooth="yes"/>
      <point x="671" y="692"/>
      <point x="663" y="700"/>
      <point x="650" y="700" type="curve" smooth="yes"/>
      <point x="619" y="700" type="line" smooth="yes"/>
      <point x="600" y="700"/>
      <point x="594" y="693"/>
      <point x="585" y="681" type="curve" smooth="yes"/>
      <point x="92" y="31" type="line" smooth="yes"/>
      <point x="89" y="27"/>
      <point x="88" y="22"/>
      <point x="88" y="20" type="curve" smooth="yes"/>
      <point x="88" y="8"/>
      <point x="96" y="0"/>
      <point x="109" y="0" type="curve" smooth="yes"/>
    </contour>
    <contour>
      <point x="281" y="349"/>
      <point x="332" y="399"/>
      <point x="337" y="479" type="curve" smooth="yes"/>
      <point x="339" y="513"/>
      <point x="339" y="533"/>
      <point x="337" y="570" type="curve" smooth="yes"/>
      <point x="332" y="650"/>
      <point x="286" y="705"/>
      <point x="193" y="705" type="curve" smooth="yes"/>
      <point x="100" y="705"/>
      <point x="53" y="650"/>
      <point x="49" y="570" type="curve" smooth="yes"/>
      <point x="47" y="533"/>
      <point x="47" y="513"/>
      <point x="49" y="479" type="curve" smooth="yes"/>
      <point x="54" y="399"/>
      <point x="105" y="349"/>
      <point x="193" y="349" type="curve" smooth="yes"/>
    </contour>
    <contour>
      <point x="141" y="410"/>
      <point x="124" y="449"/>
      <point x="121" y="483" type="curve" smooth="yes"/>
      <point x="119" y="518"/>
      <point x="119" y="533"/>
      <point x="121" y="566" type="curve" smooth="yes"/>
      <point x="123" y="602"/>
      <point x="142" y="640"/>
      <point x="194" y="640" type="curve" smooth="yes"/>
      <point x="246" y="640"/>
      <point x="264" y="602"/>
      <point x="266" y="566" type="curve" smooth="yes"/>
      <point x="268" y="533"/>
      <point x="268" y="518"/>
      <point x="266" y="483" type="curve" smooth="yes"/>
      <point x="263" y="449"/>
      <point x="246" y="410"/>
      <point x="194" y="410" type="curve" smooth="yes"/>
    </contour>
    <contour>
      <point x="653" y="-6"/>
      <point x="704" y="49"/>
      <point x="709" y="129" type="curve" smooth="yes"/>
      <point x="711" y="163"/>
      <point x="711" y="182"/>
      <point x="709" y="219" type="curve" smooth="yes"/>
      <point x="704" y="299"/>
      <point x="658" y="354"/>
      <point x="565" y="354" type="curve" smooth="yes"/>
      <point x="472" y="354"/>
      <point x="425" y="299"/>
      <point x="421" y="219" type="curve" smooth="yes"/>
      <point x="419" y="182"/>
      <point x="419" y="163"/>
      <point x="421" y="129" type="curve" smooth="yes"/>
      <point x="426" y="49"/>
      <point x="477" y="-6"/>
      <point x="565" y="-6" type="curve" smooth="yes"/>
    </contour>
    <contour>
      <point x="513" y="59"/>
      <point x="496" y="98"/>
      <point x="493" y="132" type="curve" smooth="yes"/>
      <point x="491" y="168"/>
      <point x="491" y="182"/>
      <point x="493" y="215" type="curve" smooth="yes"/>
      <point x="495" y="251"/>
      <point x="514" y="289"/>
      <point x="566" y="289" type="curve" smooth="yes"/>
      <point x="618" y="289"/>
      <point x="636" y="251"/>
      <point x="638" y="215" type="curve" smooth="yes"/>
      <point x="640" y="182"/>
      <point x="640" y="168"/>
      <point x="638" y="132" type="curve" smooth="yes"/>
      <point x="635" y="98"/>
      <point x="618" y="59"/>
      <point x="566" y="59" type="curve" smooth="yes"/>
    </contour>
    <contour>
      <point x="983" y="-6"/>
      <point x="1034" y="49"/>
      <point x="1039" y="129" type="curve" smooth="yes"/>
      <point x="1041" y="163"/>
      <point x="1041" y="182"/>
      <point x="1039" y="219" type="curve" smooth="yes"/>
      <point x="1034" y="299"/>
      <point x="988" y="354"/>
      <point x="895" y="354" type="curve" smooth="yes"/>
      <point x="802" y="354"/>
      <point x="755" y="299"/>
      <point x="751" y="219" type="curve" smooth="yes"/>
      <point x="749" y="182"/>
      <point x="749" y="163"/>
      <point x="751" y="129" type="curve" smooth="yes"/>
      <point x="756" y="49"/>
      <point x="807" y="-6"/>
      <point x="895" y="-6" type="curve" smooth="yes"/>
    </contour>
    <contour>
      <point x="842" y="59"/>
      <point x="825" y="98"/>
      <point x="822" y="132" type="curve" smooth="yes"/>
      <point x="820" y="168"/>
      <point x="820" y="182"/>
      <point x="822" y="215" type="curve" smooth="yes"/>
      <point x="824" y="251"/>
      <point x="842" y="289"/>
      <point x="895" y="289" type="curve" smooth="yes"/>
      <point x="947" y="289"/>
      <point x="965" y="251"/>
      <point x="967" y="215" type="curve" smooth="yes"/>
      <point x="969" y="182"/>
      <point x="969" y="168"/>
      <point x="967" y="132" type="curve" smooth="yes"/>
      <point x="964" y="98"/>
      <point x="947" y="59"/>
      <point x="895" y="59" type="curve" smooth="yes"/>
    </contour>
  </outline>
</glyph>
<glyph name="guilsinglright" format="1">
  <advance width="352"/>
  <unicode hex="203A"/>
  <outline>
    <contour>
      <point x="84" y="85"/>
      <point x="92" y="90"/>
      <point x="100" y="96" type="curve" smooth="yes"/>
      <point x="293" y="283" type="line" smooth="yes"/>
      <point x="305" y="295"/>
      <point x="308" y="306"/>
      <point x="309" y="317" type="curve" smooth="yes"/>
      <point x="309" y="341" type="line" smooth="yes"/>
      <point x="308" y="352"/>
      <point x="305" y="363"/>
      <point x="293" y="375" type="curve" smooth="yes"/>
      <point x="100" y="562" type="line" smooth="yes"/>
      <point x="92" y="569"/>
      <point x="84" y="573"/>
      <point x="77" y="573" type="curve" smooth="yes"/>
      <point x="65" y="573"/>
      <point x="57" y="564"/>
      <point x="57" y="552" type="curve" smooth="yes"/>
      <point x="57" y="515" type="line" smooth="yes"/>
      <point x="57" y="498"/>
      <point x="62" y="490"/>
      <point x="75" y="477" type="curve" smooth="yes"/>
      <point x="227" y="329" type="line"/>
      <point x="75" y="181" type="line" smooth="yes"/>
      <point x="62" y="168"/>
      <point x="57" y="161"/>
      <point x="57" y="143" type="curve" smooth="yes"/>
      <point x="57" y="106" type="line" smooth="yes"/>
      <point x="57" y="94"/>
      <point x="65" y="85"/>
      <point x="77" y="85" type="curve" smooth="yes"/>
    </contour>
  </outline>
</glyph>
<glyph name="fraction" format="1">
  <advance width="160"/>
  <unicode hex="2044"/>
  <outline>
    <contour>
      <point x="-163" y="0" type="line" smooth="yes"/>
      <point x="-144" y="0"/>
      <point x="-138" y="7"/>
      <point x="-129" y="19" type="curve" smooth="yes"/>
      <point x="364" y="669" type="line" smooth="yes"/>
      <point x="367" y="673"/>
      <point x="368" y="678"/>
      <point x="368" y="680" type="curve" smooth="yes"/>
      <point x="368" y="692"/>
      <point x="360" y="700"/>
      <point x="348" y="700" type="curve" smooth="yes"/>
      <point x="321" y="700" type="line" smooth="yes"/>
      <point x="303" y="700"/>
      <point x="297" y="693"/>
      <point x="288" y="681" type="curve" smooth="yes"/>
      <point x="-206" y="31" type="line" smooth="yes"/>
      <point x="-209" y="27"/>
      <point x="-210" y="22"/>
      <point x="-210" y="20" type="curve" smooth="yes"/>
      <point x="-210" y="8"/>
      <point x="-201" y="0"/>
      <point x="-189" y="0" type="curve" smooth="yes"/>
    </contour>
  </outline>
</glyph>
<glyph name="zeroinferior" format="1">
  <advance width="365"/>
  <unicode hex="2080"/>
  <outline>
    <contour>
      <point x="271" y="-175"/>
      <point x="322" y="-121"/>
      <point x="327" y="-41" type="curve" smooth="yes"/>
      <point x="329" y="-7"/>
      <point x="329" y="13"/>
      <point x="327" y="50" type="curve" smooth="yes"/>
      <point x="322" y="130"/>
      <point x="276" y="185"/>
      <point x="183" y="185" type="curve" smooth="yes"/>
      <point x="90" y="185"/>
      <point x="43" y="130"/>
      <point x="39" y="50" type="curve" smooth="yes"/>
      <point x="37" y="13"/>
      <point x="37" y="-7"/>
      <point x="39" y="-41" type="curve" smooth="yes"/>
      <point x="44" y="-121"/>
      <point x="95" y="-175"/>
      <point x="183" y="-175" type="curve" smooth="yes"/>
    </contour>
    <contour>
      <point x="130" y="-110"/>
      <point x="113" y="-72"/>
      <point x="110" y="-37" type="curve" smooth="yes"/>
      <point x="108" y="-2"/>
      <point x="108" y="13"/>
      <point x="110" y="46" type="curve" smooth="yes"/>
      <point x="112" y="82"/>
      <point x="131" y="120"/>
      <point x="183" y="120" type="curve" smooth="yes"/>
      <point x="235" y="120"/>
      <point x="253" y="82"/>
      <point x="255" y="46" type="curve" smooth="yes"/>
      <point x="257" y="13"/>
      <point x="257" y="-2"/>
      <point x="255" y="-37" type="curve" smooth="yes"/>
      <point x="252" y="-72"/>
      <point x="235" y="-110"/>
      <point x="183" y="-110" type="curve" smooth="yes"/>
    </contour>
  </outline>
</glyph>
<glyph name="twoinferior" format="1">
  <advance width="341"/>
  <unicode hex="2082"/>
  <outline>
    <contour>
      <point x="289" y="-170" type="line" smooth="yes"/>
      <point x="302" y="-170"/>
      <point x="311" y="-161"/>
      <point x="311" y="-148" type="curve" smooth="yes"/>
      <point x="311" y="-128" type="line" smooth="yes"/>
      <point x="311" y="-115"/>
      <point x="302" y="-106"/>
      <point x="289" y="-106" type="curve" smooth="yes"/>
      <point x="145" y="-106" type="line"/>
      <point x="250" y="-34"/>
      <point x="296" y="3"/>
      <point x="296" y="74" type="curve" smooth="yes"/>
      <point x="296" y="134"/>
      <point x="247" y="185"/>
      <point x="169" y="185" type="curve" smooth="yes"/>
      <point x="99" y="185"/>
      <point x="43" y="136"/>
      <point x="39" y="85" type="curve"/>
      <point x="39" y="73"/>
      <point x="45" y="66"/>
      <point x="57" y="66" type="curve"/>
      <point x="84" y="66" type="line" smooth="yes"/>
      <point x="94" y="66"/>
      <point x="100" y="69"/>
      <point x="108" y="84" type="curve" smooth="yes"/>
      <point x="114" y="94"/>
      <point x="121" y="123"/>
      <point x="169" y="123" type="curve" smooth="yes"/>
      <point x="200" y="123"/>
      <point x="226" y="104"/>
      <point x="226" y="73" type="curve" smooth="yes"/>
      <point x="226" y="22"/>
      <point x="178" y="-4"/>
      <point x="54" y="-93" type="curve" smooth="yes"/>
      <point x="35" y="-108"/>
      <point x="30" y="-117"/>
      <point x="30" y="-127" type="curve" smooth="yes"/>
      <point x="30" y="-148" type="line" smooth="yes"/>
      <point x="30" y="-161"/>
      <point x="39" y="-170"/>
      <point x="52" y="-170" type="curve" smooth="yes"/>
    </contour>
  </outline>
</glyph>
<glyph name="threeinferior" format="1">
  <advance width="341"/>
  <unicode hex="2083"/>
  <outline>
    <contour>
      <point x="254" y="-175"/>
      <point x="306" y="-134"/>
      <point x="306" y="-67" type="curve" smooth="yes"/>
      <point x="306" y="-10"/>
      <point x="275" y="33"/>
      <point x="203" y="38" type="curve"/>
      <point x="276" y="103" type="line" smooth="yes"/>
      <point x="289" y="116"/>
      <point x="291" y="125"/>
      <point x="291" y="139" type="curve" smooth="yes"/>
      <point x="291" y="158" type="line" smooth="yes"/>
      <point x="291" y="171"/>
      <point x="282" y="180"/>
      <point x="269" y="180" type="curve" smooth="yes"/>
      <point x="64" y="180" type="line" smooth="yes"/>
      <point x="52" y="180"/>
      <point x="43" y="171"/>
      <point x="43" y="158" type="curve"/>
      <point x="43" y="137" type="line" smooth="yes"/>
      <point x="43" y="124"/>
      <point x="52" y="115"/>
      <point x="64" y="115" type="curve" smooth="yes"/>
      <point x="199" y="115" type="line"/>
      <point x="118" y="41" type="line" smooth="yes"/>
      <point x="111" y="34"/>
      <point x="106" y="28"/>
      <point x="106" y="19" type="curve" smooth="yes"/>
      <point x="106" y="0" type="line" smooth="yes"/>
      <point x="106" y="-13"/>
      <point x="115" y="-22"/>
      <point x="128" y="-22" type="curve" smooth="yes"/>
      <point x="169" y="-22" type="line" smooth="yes"/>
      <point x="208" y="-22"/>
      <point x="234" y="-33"/>
      <point x="234" y="-67" type="curve" smooth="yes"/>
      <point x="234" y="-95"/>
      <point x="205" y="-112"/>
      <point x="164" y="-112" type="curve" smooth="yes"/>
      <point x="112" y="-112"/>
      <point x="106" y="-97"/>
      <point x="94" y="-85" type="curve" smooth="yes"/>
      <point x="88" y="-79"/>
      <point x="79" y="-73"/>
      <point x="69" y="-73" type="curve"/>
      <point x="44" y="-73" type="line" smooth="yes"/>
      <point x="38" y="-73"/>
      <point x="26" y="-79"/>
      <point x="27" y="-92" type="curve" smooth="yes"/>
      <point x="30" y="-133"/>
      <point x="71" y="-175"/>
      <point x="165" y="-175" type="curve" smooth="yes"/>
    </contour>
  </outline>
</glyph>
<glyph name="seveninferior" format="1">
  <advance width="292"/>
  <unicode hex="2087"/>
  <outline>
    <contour>
      <point x="128" y="-170" type="line" smooth="yes"/>
      <point x="142" y="-170"/>
      <point x="148" y="-158"/>
      <point x="154" y="-146" type="curve" smooth="yes"/>
      <point x="262" y="108" type="line" smooth="yes"/>
      <point x="265" y="119"/>
      <point x="269" y="128"/>
      <point x="269" y="138" type="curve" smooth="yes"/>
      <point x="269" y="158" type="line" smooth="yes"/>
      <point x="269" y="171"/>
      <point x="260" y="180"/>
      <point x="247" y="180" type="curve" smooth="yes"/>
      <point x="42" y="180" type="line" smooth="yes"/>
      <point x="29" y="180"/>
      <point x="20" y="171"/>
      <point x="20" y="158" type="curve" smooth="yes"/>
      <point x="20" y="137" type="line" smooth="yes"/>
      <point x="20" y="124"/>
      <point x="29" y="115"/>
      <point x="42" y="115" type="curve" smooth="yes"/>
      <point x="189" y="115" type="line"/>
      <point x="83" y="-134" type="line" smooth="yes"/>
      <point x="81" y="-138"/>
      <point x="79" y="-146"/>
      <point x="79" y="-149" type="curve" smooth="yes"/>
      <point x="79" y="-161"/>
      <point x="86" y="-170"/>
      <point x="99" y="-170" type="curve" smooth="yes"/>
    </contour>
  </outline>
</glyph>
<glyph name="eightinferior" format="1">
  <advance width="347"/>
  <unicode hex="2088"/>
  <outline>
    <contour>
      <point x="259" y="-175"/>
      <point x="312" y="-128"/>
      <point x="312" y="-67" type="curve" smooth="yes"/>
      <point x="312" y="-32"/>
      <point x="298" y="-5"/>
      <point x="268" y="13" type="curve"/>
      <point x="289" y="26"/>
      <point x="303" y="51"/>
      <point x="303" y="83" type="curve" smooth="yes"/>
      <point x="303" y="136"/>
      <point x="259" y="185"/>
      <point x="173" y="185" type="curve" smooth="yes"/>
      <point x="87" y="185"/>
      <point x="45" y="136"/>
      <point x="45" y="83" type="curve" smooth="yes"/>
      <point x="45" y="51"/>
      <point x="61" y="25"/>
      <point x="82" y="13" type="curve"/>
      <point x="51" y="-7"/>
      <point x="35" y="-32"/>
      <point x="35" y="-66" type="curve" smooth="yes"/>
      <point x="35" y="-128"/>
      <point x="87" y="-175"/>
      <point x="173" y="-175" type="curve" smooth="yes"/>
    </contour>
    <contour>
      <point x="141" y="-114"/>
      <point x="104" y="-98"/>
      <point x="104" y="-66" type="curve" smooth="yes"/>
      <point x="104" y="-34"/>
      <point x="138" y="-19"/>
      <point x="173" y="-19" type="curve" smooth="yes"/>
      <point x="207" y="-19"/>
      <point x="241" y="-34"/>
      <point x="241" y="-66" type="curve" smooth="yes"/>
      <point x="241" y="-99"/>
      <point x="204" y="-114"/>
      <point x="173" y="-114" type="curve" smooth="yes"/>
    </contour>
    <contour>
      <point x="138" y="40"/>
      <point x="113" y="53"/>
      <point x="113" y="82" type="curve" smooth="yes"/>
      <point x="113" y="109"/>
      <point x="140" y="124"/>
      <point x="173" y="124" type="curve" smooth="yes"/>
      <point x="206" y="124"/>
      <point x="234" y="110"/>
      <point x="234" y="82" type="curve" smooth="yes"/>
      <point x="234" y="54"/>
      <point x="207" y="40"/>
      <point x="173" y="40" type="curve" smooth="yes"/>
    </contour>
  </outline>
</glyph>
<glyph name="nineinferior" format="1">
  <advance width="339"/>
  <unicode hex="2089"/>
  <outline>
    <contour>
      <point x="143" y="-170" type="line" smooth="yes"/>
      <point x="154" y="-170"/>
      <point x="165" y="-163"/>
      <point x="172" y="-155" type="curve" smooth="yes"/>
      <point x="256" y="-52" type="line" smooth="yes"/>
      <point x="271" y="-35"/>
      <point x="308" y="6"/>
      <point x="308" y="61" type="curve" smooth="yes"/>
      <point x="308" y="137"/>
      <point x="242" y="185"/>
      <point x="166" y="185" type="curve" smooth="yes"/>
      <point x="89" y="185"/>
      <point x="25" y="135"/>
      <point x="25" y="61" type="curve" smooth="yes"/>
      <point x="25" y="-17"/>
      <point x="95" y="-63"/>
      <point x="165" y="-62" type="curve"/>
      <point x="106" y="-130" type="line" smooth="yes"/>
      <point x="100" y="-137"/>
      <point x="94" y="-144"/>
      <point x="94" y="-150" type="curve" smooth="yes"/>
      <point x="94" y="-161"/>
      <point x="103" y="-170"/>
      <point x="114" y="-170" type="curve" smooth="yes"/>
    </contour>
    <contour>
      <point x="121" y="0"/>
      <point x="95" y="26"/>
      <point x="95" y="61" type="curve" smooth="yes"/>
      <point x="95" y="96"/>
      <point x="122" y="122"/>
      <point x="166" y="122" type="curve" smooth="yes"/>
      <point x="211" y="122"/>
      <point x="237" y="96"/>
      <point x="237" y="61" type="curve" smooth="yes"/>
      <point x="237" y="26"/>
      <point x="211" y="0"/>
      <point x="166" y="0" type="curve" smooth="yes"/>
    </contour>
  </outline>
</glyph>
<glyph name="parenleftinferior" format="1">
  <advance width="229"/>
  <unicode hex="208D"/>
  <outline>
    <contour>
      <point x="192" y="-225"/>
      <point x="201" y="-218"/>
      <point x="201" y="-203" type="curve" smooth="yes"/>
      <point x="201" y="-183" type="line" smooth="yes"/>
      <point x="201" y="-168"/>
      <point x="190" y="-160"/>
      <point x="174" y="-160" type="curve" smooth="yes"/>
      <point x="128" y="-158"/>
      <point x="104" y="-101"/>
      <point x="104" y="11" type="curve" smooth="yes"/>
      <point x="104" y="123"/>
      <point x="128" y="178"/>
      <point x="174" y="180" type="curve" smooth="yes"/>
      <point x="190" y="180"/>
      <point x="201" y="188"/>
      <point x="201" y="203" type="curve" smooth="yes"/>
      <point x="201" y="223" type="line" smooth="yes"/>
      <point x="201" y="238"/>
      <point x="192" y="245"/>
      <point x="177" y="245" type="curve" smooth="yes"/>
      <point x="93" y="245"/>
      <point x="36" y="186"/>
      <point x="36" y="11" type="curve" smooth="yes"/>
      <point x="36" y="-164"/>
      <point x="93" y="-225"/>
      <point x="177" y="-225" type="curve" smooth="yes"/>
    </contour>
  </outline>
</glyph>
<glyph name="estimated" format="1">
  <advance width="618"/>
  <unicode hex="212E"/>
  <outline>
    <contour>
      <point x="471" y="-10"/>
      <point x="546" y="75"/>
      <point x="549" y="132" type="curve" smooth="yes"/>
      <point x="550" y="145"/>
      <point x="540" y="153"/>
      <point x="527" y="153" type="curve" smooth="yes"/>
      <point x="486" y="153" type="line" smooth="yes"/>
      <point x="471" y="153"/>
      <point x="463" y="151"/>
      <point x="456" y="137" type="curve" smooth="yes"/>
      <point x="438" y="97"/>
      <point x="397" y="64"/>
      <point x="311" y="64" type="curve" smooth="yes"/>
      <point x="221" y="64"/>
      <point x="156" y="129"/>
      <point x="152" y="261" type="curve" smooth="yes"/>
      <point x="152" y="269" type="line"/>
      <point x="541" y="269" type="line" smooth="yes"/>
      <point x="555" y="269"/>
      <point x="565" y="279"/>
      <point x="565" y="293" type="curve" smooth="yes"/>
      <point x="565" y="323" type="line" smooth="yes"/>
      <point x="565" y="499"/>
      <point x="463" y="610"/>
      <point x="312" y="610" type="curve" smooth="yes"/>
      <point x="165" y="610"/>
      <point x="68" y="502"/>
      <point x="60" y="338" type="curve" smooth="yes"/>
      <point x="59" y="320"/>
      <point x="59" y="284"/>
      <point x="60" y="266" type="curve" smooth="yes"/>
      <point x="68" y="97"/>
      <point x="163" y="-10"/>
      <point x="312" y="-10" type="curve" smooth="yes"/>
    </contour>
    <contour>
      <point x="152" y="346" type="line" smooth="yes"/>
      <point x="156" y="463"/>
      <point x="215" y="537"/>
      <point x="312" y="537" type="curve" smooth="yes"/>
      <point x="408" y="537"/>
      <point x="473" y="464"/>
      <point x="473" y="346" type="curve" smooth="yes"/>
      <point x="473" y="341" type="line"/>
      <point x="152" y="341" type="line"/>
    </contour>
  </outline>
</glyph>
<glyph name="product" format="1">
  <advance width="616"/>
  <unicode hex="220F"/>
  <outline>
    <contour>
      <point x="141" y="-200" type="line" smooth="yes"/>
      <point x="155" y="-200"/>
      <point x="164" y="-191"/>
      <point x="164" y="-177" type="curve" smooth="yes"/>
      <point x="164" y="613" type="line"/>
      <point x="452" y="613" type="line"/>
      <point x="452" y="-177" type="line" smooth="yes"/>
      <point x="452" y="-191"/>
      <point x="462" y="-200"/>
      <point x="475" y="-200" type="curve" smooth="yes"/>
      <point x="516" y="-200" type="line" smooth="yes"/>
      <point x="530" y="-200"/>
      <point x="539" y="-191"/>
      <point x="539" y="-177" type="curve" smooth="yes"/>
      <point x="539" y="677" type="line" smooth="yes"/>
      <point x="539" y="691"/>
      <point x="530" y="700"/>
      <point x="516" y="700" type="curve" smooth="yes"/>
      <point x="100" y="700" type="line" smooth="yes"/>
      <point x="87" y="700"/>
      <point x="77" y="691"/>
      <point x="77" y="677" type="curve" smooth="yes"/>
      <point x="77" y="-177" type="line" smooth="yes"/>
      <point x="77" y="-191"/>
      <point x="87" y="-200"/>
      <point x="100" y="-200" type="curve" smooth="yes"/>
    </contour>
  </outline>
</glyph>
<glyph name="minus" format="1">
  <advance width="649"/>
  <unicode hex="2212"/>
  <outline>
    <contour>
      <point x="554" y="262" type="line" smooth="yes"/>
      <point x="567" y="262"/>
      <point x="577" y="272"/>
      <point x="577" y="285" type="curve" smooth="yes"/>
      <point x="577" y="315" type="line" smooth="yes"/>
      <point x="577" y="328"/>
      <point x="567" y="338"/>
      <point x="554" y="338" type="curve" smooth="yes"/>
      <point x="95" y="338" type="line" smooth="yes"/>
      <point x="82" y="338"/>
      <point x="72" y="328"/>
      <point x="72" y="315" type="curve" smooth="yes"/>
      <point x="72" y="285" type="line" smooth="yes"/>
      <point x="72" y="272"/>
      <point x="82" y="262"/>
      <point x="95" y="262" type="curve" smooth="yes"/>
    </contour>
  </outline>
</glyph>
<glyph name="radical" format="1">
  <advance width="684"/>
  <unicode hex="221A"/>
  <outline>
    <contour>
      <point x="274" y="0" type="line" smooth="yes"/>
      <point x="288" y="0"/>
      <point x="296" y="9"/>
      <point x="301" y="25" type="curve" smooth="yes"/>
      <point x="517" y="785" type="line"/>
      <point x="646" y="785" type="line" smooth="yes"/>
      <point x="659" y="785"/>
      <point x="669" y="795"/>
      <point x="669" y="808" type="curve" smooth="yes"/>
      <point x="669" y="837" type="line" smooth="yes"/>
      <point x="669" y="851"/>
      <point x="659" y="860"/>
      <point x="646" y="860" type="curve" smooth="yes"/>
      <point x="472" y="860" type="line" smooth="yes"/>
      <point x="457" y="860"/>
      <point x="449" y="846"/>
      <point x="446" y="836" type="curve"/>
      <point x="241" y="105" type="line"/>
      <point x="108" y="504" type="line" smooth="yes"/>
      <point x="105" y="510"/>
      <point x="98" y="520"/>
      <point x="84" y="520" type="curve" smooth="yes"/>
      <point x="46" y="520" type="line" smooth="yes"/>
      <point x="34" y="520"/>
      <point x="25" y="511"/>
      <point x="25" y="499" type="curve" smooth="yes"/>
      <point x="25" y="497"/>
      <point x="26" y="492"/>
      <point x="27" y="489" type="curve"/>
      <point x="186" y="17" type="line"/>
      <point x="190" y="9"/>
      <point x="196" y="0"/>
      <point x="210" y="0" type="curve" smooth="yes"/>
    </contour>
  </outline>
</glyph>
<glyph name="integral" format="1">
  <advance width="427"/>
  <unicode hex="222B"/>
  <outline>
    <contour>
      <point x="92" y="-225" type="line" smooth="yes"/>
      <point x="213" y="-225"/>
      <point x="254" y="-150"/>
      <point x="254" y="-50" type="curve" smooth="yes"/>
      <point x="254" y="555" type="line" smooth="yes"/>
      <point x="254" y="621"/>
      <point x="274" y="658"/>
      <point x="340" y="658" type="curve" smooth="yes"/>
      <point x="388" y="658" type="line" smooth="yes"/>
      <point x="402" y="658"/>
      <point x="411" y="667"/>
      <point x="411" y="680" type="curve" smooth="yes"/>
      <point x="411" y="711" type="line" smooth="yes"/>
      <point x="411" y="724"/>
      <point x="402" y="733"/>
      <point x="388" y="733" type="curve" smooth="yes"/>
      <point x="337" y="733" type="line" smooth="yes"/>
      <point x="215" y="733"/>
      <point x="174" y="659"/>
      <point x="174" y="563" type="curve" smooth="yes"/>
      <point x="174" y="-47" type="line"/>
      <point x="174" y="-105"/>
      <point x="162" y="-149"/>
      <point x="88" y="-149" type="curve" smooth="yes"/>
      <point x="39" y="-149" type="line" smooth="yes"/>
      <point x="26" y="-149"/>
      <point x="16" y="-159"/>
      <point x="16" y="-172" type="curve" smooth="yes"/>
      <point x="16" y="-202" type="line" smooth="yes"/>
      <point x="16" y="-216"/>
      <point x="26" y="-225"/>
      <point x="39" y="-225" type="curve" smooth="yes"/>
    </contour>
  </outline>
</glyph>
<glyph name="greaterequal" format="1">
  <advance width="532"/>
  <unicode hex="2265"/>
  <outline>
    <contour>
      <point x="108" y="194"/>
      <point x="117" y="198"/>
      <point x="124" y="202" type="curve" smooth="yes"/>
      <point x="437" y="354" type="line" smooth="yes"/>
      <point x="458" y="365"/>
      <point x="466" y="376"/>
      <point x="466" y="395" type="curve" smooth="yes"/>
      <point x="466" y="419" type="line"/>
      <point x="466" y="437"/>
      <point x="458" y="448"/>
      <point x="437" y="460" type="curve" smooth="yes"/>
      <point x="124" y="611" type="line" smooth="yes"/>
      <point x="117" y="615"/>
      <point x="108" y="619"/>
      <point x="100" y="619" type="curve" smooth="yes"/>
      <point x="89" y="619"/>
      <point x="80" y="612"/>
      <point x="80" y="599" type="curve" smooth="yes"/>
      <point x="80" y="567" type="line" smooth="yes"/>
      <point x="80" y="550"/>
      <point x="87" y="541"/>
      <point x="103" y="534" type="curve" smooth="yes"/>
      <point x="371" y="407" type="line"/>
      <point x="103" y="279" type="line" smooth="yes"/>
      <point x="87" y="272"/>
      <point x="80" y="263"/>
      <point x="80" y="246" type="curve" smooth="yes"/>
      <point x="80" y="214" type="line" smooth="yes"/>
      <point x="80" y="201"/>
      <point x="89" y="194"/>
      <point x="100" y="194" type="curve" smooth="yes"/>
    </contour>
    <contour>
      <point x="443" y="0" type="line" smooth="yes"/>
      <point x="457" y="0"/>
      <point x="466" y="10"/>
      <point x="466" y="23" type="curve" smooth="yes"/>
      <point x="466" y="53" type="line" smooth="yes"/>
      <point x="466" y="66"/>
      <point x="457" y="76"/>
      <point x="443" y="76" type="curve" smooth="yes"/>
      <point x="103" y="76" type="line"/>
      <point x="90" y="76"/>
      <point x="80" y="66"/>
      <point x="80" y="53" type="curve" smooth="yes"/>
      <point x="80" y="23" type="line" smooth="yes"/>
      <point x="80" y="10"/>
      <point x="90" y="0"/>
      <point x="103" y="0" type="curve" smooth="yes"/>
    </contour>
  </outline>
</glyph>
<glyph name="lozenge" format="1">
  <advance width="547"/>
  <unicode hex="25CA"/>
  <outline>
    <contour>
      <point x="286" y="0" type="line" smooth="yes"/>
      <point x="313" y="0"/>
      <point x="329" y="19"/>
      <point x="336" y="33" type="curve" smooth="yes"/>
      <point x="495" y="328" type="line" smooth="yes"/>
      <point x="499" y="336"/>
      <point x="503" y="345"/>
      <point x="503" y="355" type="curve" smooth="yes"/>
      <point x="503" y="365"/>
      <point x="499" y="374"/>
      <point x="495" y="382" type="curve" smooth="yes"/>
      <point x="336" y="677" type="line" smooth="yes"/>
      <point x="329" y="691"/>
      <point x="313" y="710"/>
      <point x="286" y="710" type="curve" smooth="yes"/>
      <point x="262" y="710" type="line" smooth="yes"/>
      <point x="235" y="710"/>
      <point x="219" y="691"/>
      <point x="212" y="677" type="curve" smooth="yes"/>
      <point x="53" y="382" type="line" smooth="yes"/>
      <point x="49" y="374"/>
      <point x="45" y="365"/>
      <point x="45" y="355" type="curve" smooth="yes"/>
      <point x="45" y="345"/>
      <point x="49" y="336"/>
      <point x="53" y="328" type="curve" smooth="yes"/>
      <point x="212" y="33" type="line" smooth="yes"/>
      <point x="219" y="19"/>
      <point x="235" y="0"/>
      <point x="262" y="0" type="curve" smooth="yes"/>
    </contour>
    <contour>
      <point x="127" y="355" type="line"/>
      <point x="274" y="630" type="line"/>
      <point x="420" y="355" type="line"/>
      <point x="274" y="80" type="line"/>
    </contour>
  </outline>
</glyph>
<glyph name="Acute" format="1">
  <advance width="340"/>
  <unicode hex="F6C9"/>
  <outline>
    <contour>
      <point x="120" y="750" type="line" smooth="yes"/>
      <point x="134" y="750"/>
      <point x="142" y="752"/>
      <point x="153" y="761" type="curve" smooth="yes"/>
      <point x="268" y="856" type="line" smooth="yes"/>
      <point x="271" y="859"/>
      <point x="273" y="863"/>
      <point x="273" y="868" type="curve" smooth="yes"/>
      <point x="273" y="880"/>
      <point x="266" y="887"/>
      <point x="254" y="887" type="curve" smooth="yes"/>
      <point x="183" y="887" type="line" smooth="yes"/>
      <point x="164" y="887"/>
      <point x="158" y="882"/>
      <point x="146" y="869" type="curve"/>
      <point x="72" y="779" type="line" smooth="yes"/>
      <point x="69" y="776"/>
      <point x="67" y="771"/>
      <point x="67" y="766" type="curve" smooth="yes"/>
      <point x="67" y="756"/>
      <point x="73" y="750"/>
      <point x="83" y="750" type="curve" smooth="yes"/>
    </contour>
  </outline>
</glyph>
<glyph name="Caron" format="1">
  <advance width="435"/>
  <unicode hex="F6CA"/>
  <outline>
    <contour>
      <point x="233" y="750" type="line" smooth="yes"/>
      <point x="244" y="750"/>
      <point x="252" y="751"/>
      <point x="266" y="765" type="curve" smooth="yes"/>
      <point x="357" y="856" type="line" smooth="yes"/>
      <point x="364" y="863"/>
      <point x="368" y="869"/>
      <point x="368" y="875" type="curve" smooth="yes"/>
      <point x="368" y="883"/>
      <point x="363" y="887"/>
      <point x="353" y="887" type="curve" smooth="yes"/>
      <point x="327" y="887" type="line" smooth="yes"/>
      <point x="318" y="887"/>
      <point x="306" y="884"/>
      <point x="300" y="880" type="curve" smooth="yes"/>
      <point x="218" y="823" type="line"/>
      <point x="136" y="880" type="line" smooth="yes"/>
      <point x="129" y="884"/>
      <point x="117" y="887"/>
      <point x="108" y="887" type="curve" smooth="yes"/>
      <point x="82" y="887" type="line" smooth="yes"/>
      <point x="72" y="887"/>
      <point x="68" y="883"/>
      <point x="68" y="875" type="curve" smooth="yes"/>
      <point x="68" y="869"/>
      <point x="72" y="863"/>
      <point x="79" y="856" type="curve" smooth="yes"/>
      <point x="170" y="765" type="line" smooth="yes"/>
      <point x="184" y="751"/>
      <point x="192" y="750"/>
      <point x="203" y="750" type="curve" smooth="yes"/>
    </contour>
  </outline>
</glyph>
<glyph name="Grave" format="1">
  <advance width="340"/>
  <unicode hex="F6CE"/>
  <outline>
    <contour>
      <point x="257" y="750" type="line" smooth="yes"/>
      <point x="267" y="750"/>
      <point x="273" y="756"/>
      <point x="273" y="766" type="curve" smooth="yes"/>
      <point x="273" y="771"/>
      <point x="271" y="776"/>
      <point x="268" y="779" type="curve" smooth="yes"/>
      <point x="194" y="869" type="line"/>
      <point x="182" y="882"/>
      <point x="176" y="887"/>
      <point x="157" y="887" type="curve" smooth="yes"/>
      <point x="86" y="887" type="line" smooth="yes"/>
      <point x="74" y="887"/>
      <point x="67" y="880"/>
      <point x="67" y="868" type="curve" smooth="yes"/>
      <point x="67" y="863"/>
      <point x="69" y="859"/>
      <point x="72" y="856" type="curve" smooth="yes"/>
      <point x="187" y="761" type="line" smooth="yes"/>
      <point x="198" y="752"/>
      <point x="206" y="750"/>
      <point x="220" y="750" type="curve" smooth="yes"/>
    </contour>
  </outline>
</glyph>
<glyph name="Hungarumlaut" format="1">
  <advance width="463"/>
  <unicode hex="F6CF"/>
  <outline>
    <contour>
      <point x="277" y="750" type="line" smooth="yes"/>
      <point x="290" y="750"/>
      <point x="299" y="755"/>
      <point x="307" y="764" type="curve" smooth="yes"/>
      <point x="386" y="855" type="line" smooth="yes"/>
      <point x="389" y="859"/>
      <point x="392" y="863"/>
      <point x="392" y="868" type="curve" smooth="yes"/>
      <point x="392" y="880"/>
      <point x="384" y="887"/>
      <point x="372" y="887" type="curve" smooth="yes"/>
      <point x="312" y="887" type="line" smooth="yes"/>
      <point x="291" y="887"/>
      <point x="281" y="881"/>
      <point x="275" y="868" type="curve" smooth="yes"/>
      <point x="236" y="781" type="line" smooth="yes"/>
      <point x="234" y="777"/>
      <point x="231" y="771"/>
      <point x="231" y="766" type="curve" smooth="yes"/>
      <point x="231" y="756"/>
      <point x="237" y="750"/>
      <point x="247" y="750" type="curve" smooth="yes"/>
    </contour>
    <contour>
      <point x="113" y="750" type="line" smooth="yes"/>
      <point x="126" y="750"/>
      <point x="135" y="755"/>
      <point x="143" y="764" type="curve" smooth="yes"/>
      <point x="222" y="855" type="line" smooth="yes"/>
      <point x="225" y="859"/>
      <point x="228" y="863"/>
      <point x="228" y="868" type="curve" smooth="yes"/>
      <point x="228" y="880"/>
      <point x="220" y="887"/>
      <point x="208" y="887" type="curve" smooth="yes"/>
      <point x="148" y="887" type="line" smooth="yes"/>
      <point x="127" y="887"/>
      <point x="117" y="881"/>
      <point x="111" y="868" type="curve" smooth="yes"/>
      <point x="72" y="781" type="line" smooth="yes"/>
      <point x="70" y="777"/>
      <point x="67" y="771"/>
      <point x="67" y="766" type="curve" smooth="yes"/>
      <point x="67" y="756"/>
      <point x="73" y="750"/>
      <point x="83" y="750" type="curve" smooth="yes"/>
    </contour>
  </outline>
</glyph>
<glyph name="Circumflex" format="1">
  <advance width="435"/>
  <outline>
    <contour>
      <point x="108" y="750" type="line" smooth="yes"/>
      <point x="117" y="750"/>
      <point x="129" y="753"/>
      <point x="136" y="757" type="curve" smooth="yes"/>
      <point x="218" y="814" type="line"/>
      <point x="300" y="757" type="line" smooth="yes"/>
      <point x="306" y="753"/>
      <point x="318" y="750"/>
      <point x="327" y="750" type="curve" smooth="yes"/>
      <point x="353" y="750" type="line" smooth="yes"/>
      <point x="363" y="750"/>
      <point x="368" y="754"/>
      <point x="368" y="762" type="curve" smooth="yes"/>
      <point x="368" y="768"/>
      <point x="364" y="774"/>
      <point x="357" y="781" type="curve" smooth="yes"/>
      <point x="266" y="872" type="line" smooth="yes"/>
      <point x="252" y="886"/>
      <point x="244" y="887"/>
      <point x="233" y="887" type="curve" smooth="yes"/>
      <point x="203" y="887" type="line" smooth="yes"/>
      <point x="192" y="887"/>
      <point x="184" y="886"/>
      <point x="170" y="872" type="curve" smooth="yes"/>
      <point x="79" y="781" type="line" smooth="yes"/>
      <point x="72" y="774"/>
      <point x="68" y="768"/>
      <point x="68" y="762" type="curve" smooth="yes"/>
      <point x="68" y="754"/>
      <point x="72" y="750"/>
      <point x="82" y="750" type="curve" smooth="yes"/>
    </contour>
  </outline>
</glyph>
<glyph name="Dotaccent" format="1">
  <advance width="241"/>
  <outline>
    <contour>
      <point x="152" y="750" type="line" smooth="yes"/>
      <point x="165" y="750"/>
      <point x="175" y="759"/>
      <point x="175" y="772" type="curve" smooth="yes"/>
      <point x="175" y="835" type="line" smooth="yes"/>
      <point x="175" y="848"/>
      <point x="165" y="858"/>
      <point x="152" y="858" type="curve" smooth="yes"/>
      <point x="89" y="858" type="line"/>
      <point x="76" y="858"/>
      <point x="67" y="848"/>
      <point x="67" y="835" type="curve" smooth="yes"/>
      <point x="67" y="772" type="line" smooth="yes"/>
      <point x="67" y="759"/>
      <point x="76" y="750"/>
      <point x="89" y="750" type="curve" smooth="yes"/>
    </contour>
  </outline>
</glyph>
<glyph name="Ring" format="1">
  <advance width="300"/>
  <outline>
    <contour>
      <point x="196" y="740"/>
      <point x="234" y="773"/>
      <point x="234" y="818" type="curve" smooth="yes"/>
      <point x="234" y="864"/>
      <point x="196" y="897"/>
      <point x="150" y="897" type="curve" smooth="yes"/>
      <point x="105" y="897"/>
      <point x="67" y="864"/>
      <point x="67" y="818" type="curve" smooth="yes"/>
      <point x="67" y="773"/>
      <point x="105" y="740"/>
      <point x="150" y="740" type="curve" smooth="yes"/>
    </contour>
    <contour>
      <point x="133" y="788"/>
      <point x="120" y="801"/>
      <point x="120" y="818" type="curve" smooth="yes"/>
      <point x="120" y="835"/>
      <point x="133" y="848"/>
      <point x="150" y="848" type="curve" smooth="yes"/>
      <point x="167" y="848"/>
      <point x="180" y="835"/>
      <point x="180" y="818" type="curve" smooth="yes"/>
      <point x="180" y="801"/>
      <point x="167" y="788"/>
      <point x="150" y="788" type="curve" smooth="yes"/>
    </contour>
  </outline>
</glyph>
<glyph name="bracketleft.cap" format="1">
  <advance width="340"/>
  <outline>
    <contour>
      <point x="276" y="-117" type="line" smooth="yes"/>
      <point x="290" y="-117"/>
      <point x="299" y="-108"/>
      <point x="299" y="-94" type="curve" smooth="yes"/>
      <point x="299" y="-58" type="line" smooth="yes"/>
      <point x="299" y="-45"/>
      <point x="290" y="-35"/>
      <point x="276" y="-35" type="curve" smooth="yes"/>
      <point x="163" y="-35" type="line"/>
      <point x="163" y="739" type="line"/>
      <point x="276" y="739" type="line" smooth="yes"/>
      <point x="290" y="739"/>
      <point x="299" y="749"/>
      <point x="299" y="762" type="curve" smooth="yes"/>
      <point x="299" y="795" type="line" smooth="yes"/>
      <point x="299" y="809"/>
      <point x="290" y="818"/>
      <point x="276" y="818" type="curve" smooth="yes"/>
      <point x="100" y="818" type="line" smooth="yes"/>
      <point x="87" y="818"/>
      <point x="77" y="809"/>
      <point x="77" y="795" type="curve" smooth="yes"/>
      <point x="77" y="-94" type="line" smooth="yes"/>
      <point x="77" y="-108"/>
      <point x="87" y="-117"/>
      <point x="100" y="-117" type="curve" smooth="yes"/>
    </contour>
  </outline>
</glyph>
<glyph name="divide.cap" format="1">
  <advance width="554"/>
  <outline>
    <contour>
      <point x="467" y="312" type="line" smooth="yes"/>
      <point x="480" y="312"/>
      <point x="490" y="321"/>
      <point x="490" y="335" type="curve" smooth="yes"/>
      <point x="490" y="366" type="line" smooth="yes"/>
      <point x="490" y="379"/>
      <point x="480" y="388"/>
      <point x="467" y="388" type="curve" smooth="yes"/>
      <point x="87" y="388" type="line" smooth="yes"/>
      <point x="74" y="388"/>
      <point x="64" y="379"/>
      <point x="64" y="366" type="curve" smooth="yes"/>
      <point x="64" y="335" type="line" smooth="yes"/>
      <point x="64" y="321"/>
      <point x="74" y="312"/>
      <point x="87" y="312" type="curve" smooth="yes"/>
    </contour>
    <contour>
      <point x="307" y="120" type="line" smooth="yes"/>
      <point x="320" y="120"/>
      <point x="330" y="129"/>
      <point x="330" y="143" type="curve" smooth="yes"/>
      <point x="330" y="202" type="line" smooth="yes"/>
      <point x="330" y="215"/>
      <point x="320" y="225"/>
      <point x="307" y="225" type="curve" smooth="yes"/>
      <point x="246" y="225" type="line" smooth="yes"/>
      <point x="233" y="225"/>
      <point x="223" y="215"/>
      <point x="223" y="202" type="curve" smooth="yes"/>
      <point x="223" y="143" type="line" smooth="yes"/>
      <point x="223" y="129"/>
      <point x="233" y="120"/>
      <point x="246" y="120" type="curve" smooth="yes"/>
    </contour>
    <contour>
      <point x="307" y="476" type="line" smooth="yes"/>
      <point x="320" y="476"/>
      <point x="330" y="485"/>
      <point x="330" y="498" type="curve" smooth="yes"/>
      <point x="330" y="557" type="line" smooth="yes"/>
      <point x="330" y="571"/>
      <point x="320" y="581"/>
      <point x="307" y="581" type="curve" smooth="yes"/>
      <point x="246" y="581" type="line" smooth="yes"/>
      <point x="233" y="581"/>
      <point x="223" y="571"/>
      <point x="223" y="557" type="curve" smooth="yes"/>
      <point x="223" y="498" type="line" smooth="yes"/>
      <point x="223" y="485"/>
      <point x="233" y="476"/>
      <point x="246" y="476" type="curve" smooth="yes"/>
    </contour>
  </outline>
</glyph>
<glyph name="emdash.cap" format="1">
  <advance width="770"/>
  <outline>
    <contour>
      <point x="675" y="310" type="line" smooth="yes"/>
      <point x="688" y="310"/>
      <point x="698" y="319"/>
      <point x="698" y="332" type="curve" smooth="yes"/>
      <point x="698" y="368" type="line" smooth="yes"/>
      <point x="698" y="381"/>
      <point x="688" y="391"/>
      <point x="675" y="391" type="curve" smooth="yes"/>
      <point x="95" y="391" type="line" smooth="yes"/>
      <point x="82" y="391"/>
      <point x="72" y="381"/>
      <point x="72" y="368" type="curve" smooth="yes"/>
      <point x="72" y="332" type="line" smooth="yes"/>
      <point x="72" y="319"/>
      <point x="82" y="310"/>
      <point x="95" y="310" type="curve" smooth="yes"/>
    </contour>
  </outline>
</glyph>
<glyph name="equal.cap" format="1">
  <advance width="570"/>
  <outline>
    <contour>
      <point x="475" y="437" type="line" smooth="yes"/>
      <point x="488" y="437"/>
      <point x="498" y="446"/>
      <point x="498" y="460" type="curve" smooth="yes"/>
      <point x="498" y="491" type="line" smooth="yes"/>
      <point x="498" y="504"/>
      <point x="488" y="513"/>
      <point x="475" y="513" type="curve" smooth="yes"/>
      <point x="95" y="513" type="line" smooth="yes"/>
      <point x="82" y="513"/>
      <point x="72" y="504"/>
      <point x="72" y="491" type="curve" smooth="yes"/>
      <point x="72" y="460" type="line" smooth="yes"/>
      <point x="72" y="446"/>
      <point x="82" y="437"/>
      <point x="95" y="437" type="curve" smooth="yes"/>
    </contour>
    <contour>
      <point x="475" y="187" type="line" smooth="yes"/>
      <point x="488" y="187"/>
      <point x="498" y="196"/>
      <point x="498" y="210" type="curve" smooth="yes"/>
      <point x="498" y="241" type="line" smooth="yes"/>
      <point x="498" y="254"/>
      <point x="488" y="263"/>
      <point x="475" y="263" type="curve" smooth="yes"/>
      <point x="95" y="263" type="line" smooth="yes"/>
      <point x="82" y="263"/>
      <point x="72" y="254"/>
      <point x="72" y="241" type="curve" smooth="yes"/>
      <point x="72" y="210" type="line" smooth="yes"/>
      <point x="72" y="196"/>
      <point x="82" y="187"/>
      <point x="95" y="187" type="curve" smooth="yes"/>
    </contour>
  </outline>
</glyph>
